<svg width="18" height="22" viewBox="0 0 18 22" fill="none" xmlns="http://www.w3.org/2000/svg">
<path d="M12.8953 0.705785C12.8508 0.656083 11.2486 0.725405 9.85427 2.23873C8.45998 3.75074 8.67449 5.48511 8.70588 5.52958C8.73727 5.57405 10.694 5.64338 11.9431 3.88415C13.1922 2.12493 12.9398 0.756796 12.8953 0.705785ZM17.2299 16.0522C17.1671 15.9266 14.1889 14.4382 14.4662 11.5763C14.7435 8.71318 16.657 7.9284 16.6871 7.84338C16.7172 7.75837 15.9063 6.81009 15.0469 6.33006C14.416 5.99163 13.7177 5.79773 13.0026 5.7624C12.8613 5.75848 12.3708 5.63814 11.3624 5.91413C10.6979 6.09593 9.20029 6.68452 8.78828 6.70806C8.37496 6.73161 7.14547 6.0253 5.82311 5.83826C4.97685 5.67477 4.07958 6.00961 3.43737 6.26728C2.79646 6.52364 1.57743 7.25349 0.724637 9.19321C-0.128161 11.1316 0.317857 14.2027 0.637002 15.1576C0.956147 16.1111 1.45448 17.6741 2.30205 18.8146C3.05544 20.1017 4.05473 20.995 4.47197 21.2985C4.88922 21.6019 6.06639 21.8034 6.88256 21.3861C7.53917 20.9833 8.72419 20.7517 9.19244 20.7688C9.65939 20.7858 10.5802 20.9702 11.5232 21.4737C12.2701 21.7314 12.9764 21.6242 13.684 21.3364C14.3916 21.0473 15.4158 19.9513 16.6113 17.729C17.0651 16.6957 17.2718 16.1372 17.2299 16.0522Z" fill="black"/>
</svg>
