<svg width="496" height="564" viewBox="0 0 496 564" fill="none" xmlns="http://www.w3.org/2000/svg">
<path d="M97.5473 42.0217L61.9782 488.857C60.8798 502.655 71.2014 514.719 85.0029 515.769L432.454 542.201C446.225 543.248 458.237 532.93 459.279 519.158L493.04 72.7151C494.08 58.9665 483.792 46.9717 470.045 45.9049L124.403 19.0804C110.656 18.0135 98.6413 28.2774 97.5473 42.0217Z" fill="#DCC7FD" stroke="#6300FF" stroke-width="1.5"/>
<path d="M29.7529 70.3434L55.5103 517.852C56.3056 531.67 68.1774 542.212 81.993 541.369L429.799 520.126C443.585 519.284 454.076 507.422 453.228 493.637L425.733 46.7643C424.887 33.0025 413.058 22.5242 399.295 23.3438L53.2255 43.951C39.4621 44.7706 28.9606 56.5784 29.7529 70.3434Z" fill="#E9C7F3" stroke="#8D21AA" stroke-width="1.5"/>
</svg>
