<svg width="43" height="42" viewBox="0 0 43 42" fill="none" xmlns="http://www.w3.org/2000/svg">
<path d="M41.2164 29.7348C41.7153 28.7785 41.6321 27.5728 40.9669 26.6997L34.6057 18.1765L38.0149 8.11491C38.3476 7.07549 38.0981 5.95292 37.3082 5.16296C36.5182 4.373 35.3956 4.12354 34.3562 4.45615L24.2946 7.86545L15.7714 1.50422C14.8983 0.83899 13.7342 0.755834 12.7363 1.25475C11.7801 1.75367 11.1564 2.75151 11.1564 3.8325L11.2812 14.4346L2.59161 20.5463C1.7185 21.17 1.26114 22.251 1.42745 23.332C1.59375 24.413 2.38373 25.2861 3.42315 25.6187L13.5679 28.7785L16.7277 38.9232C16.8524 39.3806 17.1019 39.7963 17.4345 40.0874C17.8502 40.5032 18.3908 40.7942 19.0144 40.8773C20.0954 41.0436 21.1764 40.5863 21.8 39.7132L27.9534 31.0652L38.5555 31.19C39.7196 31.3147 40.7175 30.6911 41.2164 29.7348Z" fill="#269AFF"/>
<path d="M19.5549 42C19.347 42 19.1391 42 18.9312 41.9584C18.1413 41.8337 17.3929 41.4595 16.8108 40.8774C16.3535 40.4201 16.0625 39.8796 15.8546 39.2975L12.861 29.6517L3.21525 26.6582C1.80165 26.2009 0.803795 25.0367 0.554335 23.5815C0.304875 22.1263 0.928546 20.7127 2.13427 19.8396L10.408 14.0189L10.2833 3.91574C10.2833 2.46056 11.0732 1.08853 12.4037 0.423302C13.6926 -0.241925 15.2725 -0.1172 16.4366 0.75591L24.5441 6.82611L34.1067 3.58313C35.5203 3.12579 37.0171 3.4584 38.0565 4.49781C39.0959 5.53723 39.4701 7.07557 38.9712 8.4476L35.7282 18.0102L41.7568 26.1177C42.6299 27.2818 42.7547 28.8618 42.0895 30.1506C41.4242 31.4395 40.0938 32.2295 38.6801 32.2295H38.6386L28.5355 32.1047L22.6731 40.3369C21.9247 41.4179 20.7606 42 19.5549 42ZM14.1499 1.96163C13.8589 1.96163 13.5678 2.04479 13.2768 2.16952C12.6531 2.50213 12.2374 3.16736 12.2374 3.87416L12.3621 14.4762C12.3621 14.8088 12.1958 15.0999 11.9464 15.2662L3.25682 21.378C2.67475 21.7937 2.3837 22.5005 2.46685 23.2073C2.59158 23.9141 3.09049 24.4962 3.75572 24.7457L13.9004 27.9055C14.1915 27.9887 14.4409 28.2381 14.5241 28.5292L17.6839 38.6739C17.7671 38.9649 17.9334 39.2144 18.1413 39.4638C18.4323 39.7549 18.8065 39.9212 19.1807 40.0043C19.8875 40.129 20.5943 39.7964 21.0101 39.2144L27.1634 30.5664C27.3297 30.3169 27.6624 30.1506 27.9534 30.1506L38.5555 30.3169C38.5555 30.3169 38.5554 30.3169 38.597 30.3169C39.3038 30.3169 39.9691 29.9012 40.2601 29.2775C40.5927 28.6539 40.5095 27.8639 40.0938 27.2819L33.7326 18.7586C33.5247 18.5092 33.4831 18.1765 33.6078 17.8439L37.0171 7.78237C37.2665 7.07557 37.0587 6.36877 36.5597 5.82827C36.0608 5.32935 35.3125 5.12147 34.6057 5.37093L24.5441 8.78022C24.253 8.90495 23.9204 8.82179 23.6294 8.65548L15.1062 2.29425C14.9399 2.08637 14.5241 1.96163 14.1499 1.96163Z" fill="#313131"/>
</svg>
