<svg width="268" height="162" viewBox="0 0 268 162" fill="none" xmlns="http://www.w3.org/2000/svg">
<path d="M304.75 13.0318C272.069 -6.02916 223.005 -0.595146 212.975 40.7035C192.497 -6.78159 125.629 11.945 149.2 64.6969C67.7891 -5.61112 -38.8642 110.426 19.4775 159.5H304.75V13.0318Z" fill="white"/>
<path d="M19.4366 161.5C19.0185 161.5 18.5167 161.333 18.1822 160.998C4.13212 149.212 -1.72202 132.494 1.70686 113.853C6.97562 84.9298 32.7339 56.9265 64.3465 45.7252C92.2793 35.8613 120.63 40.4589 144.8 58.5984C140.534 45.3073 141.789 33.3536 148.312 24.4093C155.086 15.1306 167.046 10.2823 179.59 11.7033C193.473 13.2916 205.265 21.7343 212.541 35.1926C217.224 21.4 226.675 11.2018 240.223 5.43393C259.709 -2.84167 285.467 -0.584688 305.79 11.2854C306.71 11.8705 307.044 13.0408 306.459 13.9603C305.873 14.8798 304.703 15.2142 303.783 14.629C284.464 3.42772 260.044 1.17073 241.728 9.02837C227.846 14.9634 218.562 26.0811 214.883 41.0441C214.715 41.88 213.963 42.4652 213.127 42.5488C212.29 42.6324 211.454 42.1308 211.119 41.3785C204.68 26.4991 193.055 17.1368 179.005 15.5485C167.882 14.2947 157.261 18.5579 151.323 26.6663C144.465 36.0286 144.298 49.2361 150.821 63.8647C151.156 64.7006 150.905 65.7037 150.236 66.2052C149.483 66.7904 148.48 66.7068 147.81 66.1216C123.557 45.1401 94.2866 39.205 65.5175 49.4033C35.6612 59.9358 10.4044 87.2704 5.38655 114.521C3.21214 126.642 3.9649 144.029 20.5239 157.906C21.3602 158.574 21.4439 159.828 20.7748 160.664C20.5239 161.333 19.9384 161.5 19.4366 161.5Z" fill="#313131"/>
</svg>
