<svg width="56" height="58" viewBox="0 0 56 58" fill="none" xmlns="http://www.w3.org/2000/svg">
<ellipse cx="28" cy="28.5957" rx="28" ry="28.5957" fill="#280066"/>
<circle cx="28.1976" cy="27.0062" r="26.4105" fill="#B180FF"/>
<path d="M35.3032 20.6182H32.6812C31.5247 20.6182 31.2218 20.9012 31.1187 21.0547C31.0505 21.1564 30.9978 21.3038 30.9673 21.5342C30.9359 21.7712 30.9341 22.0373 30.9341 22.3702V24.1221H35.5132L35.2808 25.0538L34.0327 30.0577L33.8911 30.627H30.9341V41.2608H24.4419V30.627H20.6968V24.1221H24.4419V21.3692C24.4419 19.3032 25.0987 17.6241 26.2964 16.463C27.4897 15.306 29.1408 14.7393 30.9868 14.7393C32.6337 14.7393 34.2046 14.8615 34.6519 14.921L35.3032 15.0079V20.6182Z" fill="#FEF7E6" stroke="#2E0A8E" stroke-width="1.5"/>
</svg>
