<svg width="249" height="381" viewBox="0 0 249 381" fill="none" xmlns="http://www.w3.org/2000/svg">
<path d="M24.7715 200.83C25.075 200.249 25.0244 199.515 24.6197 198.984L20.7496 193.798L22.8238 187.677C23.0261 187.045 22.8744 186.362 22.3938 185.881C21.9132 185.401 21.2302 185.249 20.5979 185.451L14.4765 187.525L9.29114 183.655C8.75995 183.251 8.05172 183.2 7.44465 183.503C6.86287 183.807 6.48344 184.414 6.48344 185.072L6.55934 191.522L1.27275 195.24C0.741565 195.62 0.463312 196.277 0.564491 196.935C0.665669 197.593 1.14628 198.124 1.77865 198.326L7.95054 200.249L9.87293 206.42C9.94881 206.699 10.1006 206.952 10.3029 207.129C10.5559 207.382 10.8847 207.559 11.2641 207.609C11.9218 207.71 12.5794 207.432 12.9589 206.901L16.7025 201.64L23.1526 201.716C23.8609 201.792 24.4679 201.412 24.7715 200.83Z" fill="#00B2B8"/>
<path d="M11.5927 208.292C11.4662 208.292 11.3397 208.292 11.2133 208.267C10.7327 208.191 10.2774 207.963 9.92325 207.609C9.64501 207.331 9.46797 207.002 9.3415 206.648L7.52026 200.78L1.65192 198.958C0.791902 198.68 0.184824 197.972 0.0330565 197.087C-0.118711 196.201 0.260721 195.341 0.994265 194.81L6.02787 191.269L5.95201 185.122C5.95201 184.237 6.4326 183.402 7.24203 182.998C8.02616 182.593 8.98735 182.669 9.6956 183.2L14.6281 186.893L20.4458 184.92C21.3058 184.642 22.2164 184.844 22.8488 185.476C23.4812 186.109 23.7088 187.045 23.4053 187.879L21.4323 193.697L25.1 198.63C25.6312 199.338 25.7071 200.299 25.3024 201.083C24.8977 201.867 24.0882 202.348 23.2282 202.348H23.2029L17.0564 202.272L13.4898 207.28C13.0345 207.938 12.3262 208.292 11.5927 208.292ZM8.30439 183.933C8.12733 183.933 7.95027 183.984 7.77321 184.06C7.39379 184.262 7.14084 184.667 7.14084 185.097L7.21674 191.547C7.21674 191.749 7.11556 191.927 6.96379 192.028L1.67721 195.746C1.32308 195.999 1.14601 196.429 1.1966 196.859C1.27249 197.289 1.57602 197.643 1.98073 197.795L8.15263 199.717C8.32969 199.768 8.48146 199.92 8.53205 200.097L10.4544 206.269C10.505 206.446 10.6062 206.597 10.7327 206.749C10.9098 206.926 11.1374 207.027 11.3651 207.078C11.7951 207.154 12.2251 206.952 12.478 206.597L16.2216 201.336C16.3228 201.184 16.5252 201.083 16.7022 201.083L23.1524 201.184C23.1524 201.184 23.1524 201.184 23.1777 201.184C23.6077 201.184 24.0124 200.931 24.1894 200.552C24.3918 200.173 24.3412 199.692 24.0883 199.338L20.2182 194.152C20.0917 194.001 20.0664 193.798 20.1423 193.596L22.2164 187.475C22.3682 187.045 22.2417 186.615 21.9382 186.286C21.6347 185.982 21.1794 185.856 20.7494 186.008L14.6281 188.082C14.451 188.158 14.2486 188.107 14.0716 188.006L8.88618 184.136C8.785 184.009 8.53204 183.933 8.30439 183.933Z" fill="#313131"/>
<path d="M136.736 310.923C139.017 310.152 141.459 308.417 143.195 306.939C145.251 307.806 145.605 309.831 145.123 311.727C142.038 315.261 137.893 316.418 137.893 316.418L136.736 310.923Z" fill="#FFF7E2"/>
<path d="M137.892 317.189C137.764 317.189 137.635 317.157 137.507 317.093C137.314 316.996 137.218 316.804 137.153 316.611L135.997 311.116C135.932 310.73 136.125 310.377 136.479 310.248C138.31 309.638 140.624 308.192 142.68 306.392C142.905 306.2 143.194 306.168 143.452 306.264C145.572 307.164 146.504 309.317 145.829 311.919C145.797 312.048 145.733 312.144 145.669 312.241C142.488 315.904 138.246 317.125 138.053 317.189C138.021 317.157 137.957 317.189 137.892 317.189ZM137.603 311.405L138.471 315.422C139.756 314.94 142.359 313.687 144.448 311.341C144.64 310.441 144.801 308.706 143.323 307.806C142.134 308.802 139.949 310.473 137.603 311.405Z" fill="#1B1B1A"/>
<path d="M142.038 307.838C141.459 307.067 141.877 305.975 143.387 305.364C144.898 304.721 145.026 303.083 146.568 302.472C148.111 301.862 152.77 302.729 154.216 308.256C155.662 313.815 154.634 321.977 152.063 324.741C149.493 327.504 143.387 324.259 142.295 321.945C141.17 319.631 142.937 313.879 142.937 313.879C142.937 313.879 145.54 311.951 144.319 309.413C143.516 307.742 142.038 307.838 142.038 307.838Z" fill="#1B1B1A"/>
<path d="M172.565 294.825C173.529 292.64 173.914 289.651 173.979 287.37C176.003 286.438 177.738 287.53 178.799 289.169C179.345 293.829 177.385 297.685 177.385 297.685L172.565 294.825Z" fill="#FFF7E2"/>
<path d="M177.417 298.424C177.288 298.424 177.16 298.391 177.031 298.327L172.179 295.467C171.858 295.274 171.729 294.857 171.858 294.503C172.982 291.965 173.175 288.623 173.207 287.305C173.207 287.016 173.4 286.759 173.657 286.631C175.778 285.634 177.963 286.406 179.441 288.719C179.505 288.816 179.537 288.912 179.57 289.041C180.148 293.861 178.156 297.813 178.092 297.974C177.995 298.166 177.834 298.295 177.642 298.359C177.545 298.391 177.481 298.424 177.417 298.424ZM173.496 294.503L177.031 296.592C177.513 295.307 178.381 292.543 178.059 289.426C177.449 288.559 176.292 287.402 174.685 287.884C174.653 289.362 174.396 292.125 173.496 294.503Z" fill="#1B1B1A"/>
<path d="M173.722 288.077C172.758 288.012 172.243 286.952 172.79 285.41C173.336 283.867 172.211 282.646 172.822 281.104C173.432 279.561 177.16 276.701 182.237 279.369C187.314 282.068 191.813 290.005 192.102 293.732C192.423 297.492 186.768 298.134 184.294 297.395C181.819 296.656 178.799 291.483 178.799 291.483C178.799 291.483 179.12 288.269 176.421 287.434C174.654 286.952 173.722 288.077 173.722 288.077Z" fill="#1B1B1A"/>
<path d="M119.319 285.217C116.331 293.571 111.511 317.864 116.459 321.27C121.408 324.644 140.334 317.736 140.334 317.736C140.334 317.736 141.813 311.277 137.635 308.642C134.808 310.184 130.437 311.727 130.437 311.727C130.437 311.727 131.144 304.529 135.675 299.934C140.238 300.287 143.259 299.13 143.259 299.13C143.259 299.13 153.959 311.213 164.949 312.305C175.97 313.398 179.955 297.427 179.955 297.427C179.955 297.427 178.509 291.354 171.664 290.262C169.961 293.507 167.905 295.981 167.905 295.981C167.905 295.981 162.571 292.607 160.257 285.024C139.081 291.579 119.319 285.217 119.319 285.217Z" fill="#FFF7E2"/>
<path d="M120.83 322.941C118.838 322.941 117.167 322.652 116.042 321.881C110.419 318.025 115.753 292.929 118.613 284.959C118.741 284.574 119.159 284.381 119.545 284.51C119.737 284.574 139.339 290.711 160.065 284.285C160.258 284.22 160.45 284.253 160.643 284.349C160.836 284.445 160.964 284.606 160.997 284.799C162.764 290.583 166.395 293.86 167.777 294.953C168.452 294.053 169.833 292.189 171.022 289.94C171.183 289.651 171.504 289.49 171.826 289.555C179.056 290.711 180.662 297.009 180.726 297.299C180.759 297.427 180.759 297.524 180.726 297.652C180.566 298.295 176.71 313.14 166.074 313.14C165.688 313.14 165.302 313.108 164.917 313.076C154.731 312.08 145.026 302.119 143.066 300.03C142.038 300.351 139.467 300.962 136.029 300.737C133.008 303.95 131.819 308.449 131.434 310.602C132.912 310.023 135.483 309.027 137.314 308.031C137.539 307.903 137.828 307.903 138.086 308.063C142.681 310.955 141.202 317.671 141.138 317.96C141.074 318.217 140.913 318.41 140.656 318.507C139.05 318.989 127.996 322.941 120.83 322.941ZM119.802 286.148C116.717 295.306 112.7 317.768 116.91 320.66C120.605 323.198 134.23 319.149 139.692 317.189C139.917 315.872 140.335 311.63 137.604 309.541C134.776 311.02 130.888 312.369 130.727 312.433C130.47 312.53 130.213 312.466 130.02 312.305C129.827 312.144 129.699 311.887 129.731 311.63C129.763 311.309 130.534 304.111 135.194 299.387C135.354 299.227 135.579 299.162 135.772 299.162C140.078 299.484 143.002 298.423 143.034 298.423C143.323 298.327 143.645 298.391 143.87 298.616C143.966 298.745 154.506 310.473 165.078 311.534C174.685 312.498 178.734 299.162 179.216 297.427C178.927 296.495 177.385 292.189 172.115 291.097C170.476 294.117 168.612 296.335 168.516 296.431C168.259 296.72 167.841 296.785 167.52 296.592C167.295 296.463 162.25 293.186 159.776 285.923C141.106 291.483 123.497 287.177 119.802 286.148Z" fill="#1B1B1A"/>
<path d="M126.871 244.247C126.871 244.247 111.19 244.182 96.3118 217.64C94.1589 217.994 92.4237 216.258 90.5599 213.527C88.6319 211.985 87.6036 210.635 88.3427 210.025C89.1139 209.382 91.1062 211.278 91.6525 211.663C91.6203 211.567 89.4352 208.996 88.9854 208.418C87.9571 207.036 89.1782 205.879 90.2386 206.908C91.1705 207.775 93.1306 209.928 93.227 210.025C93.1627 209.896 91.299 206.908 90.9455 206.361C89.9172 204.755 91.5239 203.405 92.7771 205.205C93.6126 206.426 94.9943 208.643 95.155 208.803C95.1871 208.675 94.5445 206.811 94.2553 205.687C93.7733 203.823 95.3156 203.148 96.2154 205.172C96.9223 206.779 98.7861 210.507 98.7861 210.507C98.7861 210.507 100.104 207.968 101.517 208.707C102.931 209.478 100.457 213.848 100.457 213.848C100.457 213.848 107.398 233.643 128.638 238.206C132.526 241.58 126.871 244.247 126.871 244.247Z" fill="#FFF7E2"/>
<path d="M126.871 244.986C126.71 244.986 122.693 244.922 116.781 241.548C111.479 238.495 103.574 232.004 95.862 218.444C93.3878 218.54 91.4919 216.323 89.9816 214.041C87.3467 211.921 87.3467 210.892 87.3467 210.539C87.3467 210.089 87.5395 209.703 87.8608 209.446C88.0857 209.253 88.3428 209.157 88.5999 209.157C88.5035 209.029 88.4392 208.932 88.3749 208.868C87.5395 207.743 87.7965 206.651 88.3749 206.137C88.7605 205.815 89.3389 205.655 89.9495 205.847C89.7567 204.98 90.1101 204.241 90.6564 203.855C91.3633 203.373 92.5202 203.469 93.4199 204.787C93.4199 204.819 93.452 204.819 93.452 204.851C93.5163 203.984 93.9661 203.437 94.5124 203.245C95.1872 203.02 96.2476 203.277 96.9546 204.851C97.4044 205.847 98.3363 207.775 98.9468 208.996C99.3324 208.547 99.8465 208.065 100.457 207.872C100.971 207.711 101.453 207.775 101.903 208C102.257 208.193 102.514 208.514 102.642 208.964C103.06 210.378 101.839 212.885 101.325 213.849C101.775 215.005 103.574 219.247 107.237 223.842C111.158 228.758 118.098 235.121 128.799 237.402C128.927 237.434 129.056 237.499 129.152 237.563C130.373 238.655 130.887 239.812 130.727 241.001C130.373 243.379 127.321 244.825 127.192 244.889C127.096 244.954 126.967 244.986 126.871 244.986ZM96.3119 216.901C96.569 216.901 96.826 217.03 96.9546 217.287C110.643 241.676 125.007 243.379 126.71 243.476C127.481 243.058 129.088 242.03 129.249 240.808C129.345 240.198 129.024 239.523 128.317 238.848C117.263 236.406 110.097 229.851 106.048 224.742C101.614 219.183 99.8787 214.266 99.8144 214.041C99.7501 213.849 99.7502 213.624 99.8787 213.431C100.939 211.567 101.453 209.671 101.228 209.318C101.132 209.286 101.068 209.253 100.939 209.318C100.393 209.478 99.7823 210.41 99.5574 210.828C99.4288 211.085 99.1718 211.246 98.8826 211.246C98.5934 211.246 98.3363 211.085 98.2077 210.828C98.1435 210.667 96.3119 207.068 95.6049 205.462C95.38 204.948 95.1551 204.755 95.0587 204.691C95.0266 204.787 94.9623 205.044 95.0908 205.494C95.2193 206.072 95.4764 206.843 95.6371 207.454C95.9905 208.579 96.0227 208.707 95.9906 208.932C95.9584 209.189 95.7656 209.446 95.5086 209.511C95.2515 209.607 94.9623 209.543 94.7374 209.35C94.5767 209.221 94.416 208.964 93.4199 207.422C93.0022 206.779 92.5844 206.104 92.2309 205.622C91.9096 205.173 91.6204 205.044 91.5561 205.108C91.4597 205.173 91.3955 205.494 91.6847 205.944C91.8775 206.233 93.9019 209.446 93.9983 209.703C94.1589 210.025 94.0304 210.442 93.7412 210.635C93.452 210.86 93.0343 210.796 92.7772 210.539C92.7451 210.507 92.6487 210.41 92.4559 210.217C91.8775 209.575 90.4957 208.129 89.7888 207.454C89.596 207.261 89.4675 207.261 89.4353 207.261C89.4032 207.293 89.3389 207.55 89.6603 207.968C89.9173 208.322 90.7849 209.35 91.4276 210.121C92.3273 211.214 92.3273 211.214 92.3916 211.342C92.5523 211.663 92.4559 212.017 92.1988 212.242C91.9417 212.467 91.5561 212.467 91.2669 212.274C91.1705 212.21 91.0099 212.081 90.8171 211.921C89.9173 211.181 89.2747 210.764 88.9533 210.667C89.0819 210.989 89.5639 211.728 91.0741 212.949C91.1384 212.981 91.1705 213.045 91.2348 213.109C93.1949 216.034 94.6731 217.158 96.2476 216.901C96.2155 216.901 96.2476 216.901 96.3119 216.901Z" fill="#1B1B1A"/>
<path d="M153.541 246.207C153.541 246.207 173.464 242.736 188.631 225.931C190.688 226.67 192.712 225.32 195.058 223.006C197.211 221.85 198.496 220.693 197.885 219.954C197.243 219.183 194.961 220.661 194.319 220.918C194.383 220.821 197.018 218.733 197.564 218.219C198.817 217.062 197.885 215.712 196.6 216.515C195.54 217.19 193.194 218.925 193.065 218.99C193.162 218.861 195.54 216.323 195.99 215.841C197.307 214.459 195.957 212.82 194.415 214.363C193.355 215.423 191.587 217.319 191.394 217.447C191.394 217.319 192.358 215.616 192.873 214.555C193.676 212.788 192.294 211.856 191.041 213.688C190.045 215.102 187.506 218.443 187.506 218.443C187.506 218.443 186.671 215.712 185.161 216.162C183.65 216.644 185.225 221.4 185.225 221.4C185.225 221.4 174.01 235.217 152.931 239.941C148.496 242.511 153.541 246.207 153.541 246.207Z" fill="#FFF7E2"/>
<path d="M153.542 246.946C153.381 246.946 153.22 246.882 153.092 246.785C152.963 246.689 150.232 244.664 150.36 242.286C150.425 241.065 151.164 240.037 152.545 239.202C152.61 239.17 152.674 239.137 152.77 239.105C171.633 234.896 182.59 223.167 184.39 221.143C184.068 220.018 183.393 217.415 184.036 216.13C184.229 215.744 184.55 215.455 184.936 215.359C185.418 215.198 185.932 215.262 186.382 215.487C186.928 215.776 187.346 216.355 187.667 216.869C188.503 215.776 189.788 214.073 190.399 213.174C191.363 211.76 192.455 211.695 193.098 212.049C193.612 212.338 193.933 212.949 193.837 213.816C193.869 213.784 193.869 213.784 193.901 213.752C195.026 212.627 196.183 212.788 196.793 213.366C197.275 213.848 197.468 214.652 197.114 215.455C197.757 215.359 198.303 215.648 198.593 216.033C199.075 216.644 199.107 217.737 198.078 218.701C198.014 218.765 197.918 218.861 197.789 218.958C198.046 219.022 198.271 219.15 198.464 219.407C198.753 219.729 198.85 220.147 198.753 220.596C198.689 220.918 198.496 221.946 195.508 223.553C193.58 225.481 191.298 227.312 188.856 226.734C173.753 243.25 153.863 246.882 153.67 246.914C153.638 246.946 153.574 246.946 153.542 246.946ZM153.22 240.583C152.353 241.13 151.903 241.708 151.871 242.351C151.806 243.508 153.027 244.761 153.734 245.371C156.369 244.825 174.3 240.648 188.053 225.384C188.246 225.159 188.599 225.063 188.888 225.192C190.366 225.738 192.037 224.902 194.512 222.428C194.576 222.364 194.64 222.332 194.704 222.299C196.407 221.4 197.05 220.757 197.243 220.468C196.889 220.5 196.215 220.789 195.186 221.335C194.961 221.464 194.769 221.56 194.64 221.625C194.319 221.753 193.965 221.657 193.74 221.4C193.515 221.111 193.515 220.757 193.74 220.468C193.805 220.372 193.805 220.372 194.962 219.44C195.733 218.829 196.761 217.961 197.05 217.704C197.404 217.383 197.436 217.094 197.404 217.062C197.404 217.062 197.243 217.03 197.018 217.19C196.183 217.704 194.576 218.893 193.869 219.407C193.676 219.568 193.548 219.632 193.515 219.665C193.226 219.857 192.809 219.825 192.551 219.568C192.294 219.311 192.262 218.925 192.455 218.604C192.616 218.379 195.443 215.391 195.476 215.359C195.861 214.973 195.829 214.62 195.765 214.555C195.701 214.491 195.411 214.523 194.994 214.941C194.544 215.391 193.965 216.001 193.419 216.548C192.198 217.833 191.973 218.026 191.812 218.122C191.587 218.283 191.266 218.283 191.041 218.122C190.784 217.961 190.656 217.704 190.688 217.415C190.688 217.19 190.752 217.126 191.298 216.066C191.587 215.487 191.973 214.78 192.23 214.234C192.423 213.848 192.423 213.559 192.391 213.463C192.262 213.495 192.005 213.656 191.716 214.105C190.72 215.519 188.246 218.733 188.149 218.861C187.989 219.086 187.699 219.183 187.41 219.15C187.121 219.086 186.896 218.893 186.832 218.636C186.703 218.186 186.253 217.158 185.739 216.901C185.643 216.837 185.546 216.837 185.45 216.869C185.161 217.158 185.321 219.086 185.996 221.143C186.093 221.4 186.028 221.657 185.868 221.85C185.707 221.946 174.235 235.828 153.22 240.583Z" fill="#1B1B1A"/>
<path d="M151.228 237.081C151.228 237.081 147.211 235.988 144.64 234.896C144.673 232.164 145.54 229.176 145.54 229.176L140.624 228.148C140.624 228.148 139.756 232.55 139.628 234.349C135.9 234.896 130.952 235.281 130.952 235.281C130.952 235.281 127.256 246.335 139.949 247.203C143.259 247.396 151.26 242.286 151.228 237.081Z" fill="#FFF7E2"/>
<path d="M140.142 247.942C140.046 247.942 139.949 247.942 139.885 247.942C135.708 247.653 132.751 246.271 131.112 243.829C128.606 240.069 130.149 235.249 130.245 235.024C130.341 234.735 130.598 234.542 130.888 234.51C130.92 234.51 135.354 234.157 138.921 233.675C139.146 231.65 139.853 228.18 139.885 227.987C139.917 227.794 140.046 227.601 140.206 227.505C140.367 227.409 140.592 227.344 140.785 227.409L145.701 228.437C145.894 228.469 146.087 228.598 146.183 228.79C146.279 228.983 146.312 229.176 146.247 229.401C146.247 229.433 145.508 231.939 145.38 234.414C147.886 235.378 151.389 236.342 151.421 236.374C151.742 236.47 151.967 236.76 151.967 237.113C151.967 239.298 150.714 241.676 148.432 243.797C145.894 246.207 142.359 247.942 140.142 247.942ZM131.53 235.988C131.241 237.177 130.663 240.487 132.366 242.993C133.747 245.018 136.286 246.175 139.981 246.432C141.524 246.528 144.833 245.114 147.436 242.672C149.204 241.001 150.264 239.234 150.457 237.627C149.236 237.274 146.376 236.438 144.351 235.571C144.062 235.442 143.869 235.185 143.902 234.864C143.934 232.871 144.351 230.815 144.641 229.722L141.235 229.015C140.977 230.333 140.495 233.064 140.399 234.349C140.367 234.703 140.11 234.992 139.756 235.056C136.736 235.506 132.912 235.86 131.53 235.988Z" fill="#1B1B1A"/>
<path d="M149.782 236.503C151.71 237.434 158.265 235.539 162.828 236.792C162.443 239.684 158.072 275.352 163.503 283.032C156.369 292.254 119.191 291.194 111.543 286.052C113.086 282.293 113.375 232.968 120.637 235.089C124.75 235.057 130.438 235.314 132.366 235.089C130.148 245.821 148.24 250.32 149.782 236.503Z" fill="#FFD800"/>
<path d="M135.322 290.712C124.493 290.712 114.756 289.105 111.125 286.663C110.836 286.47 110.708 286.084 110.836 285.763C111.254 284.767 111.64 279.208 112.025 273.327C113.31 254.594 114.789 237.531 118.805 234.703C119.384 234.285 120.058 234.157 120.733 234.317C122.211 234.317 123.914 234.35 125.553 234.382C128.413 234.446 131.112 234.478 132.301 234.35C132.558 234.317 132.783 234.414 132.944 234.574C133.105 234.767 133.169 234.992 133.137 235.249C132.366 239.009 134.326 241.29 135.547 242.351C137.925 244.343 141.395 244.954 144.158 243.861C146.89 242.769 148.625 240.134 149.043 236.438C149.075 236.181 149.203 235.988 149.428 235.86C149.653 235.731 149.91 235.731 150.135 235.828C150.81 236.149 152.706 235.988 154.538 235.828C157.14 235.603 160.418 235.346 163.053 236.053C163.406 236.149 163.663 236.503 163.599 236.888C162.185 247.396 159.55 276.123 164.145 282.614C164.338 282.871 164.338 283.257 164.113 283.514C159.422 289.587 144.094 290.551 137.732 290.712C136.928 290.712 136.125 290.712 135.322 290.712ZM112.443 285.699C116.427 287.948 126.839 289.426 137.7 289.169C150.039 288.912 159.261 286.598 162.571 282.967C157.622 274.452 161.382 242.415 161.993 237.338C159.711 236.888 156.915 237.113 154.634 237.306C152.899 237.466 151.453 237.563 150.392 237.434C149.75 241.258 147.725 243.99 144.673 245.211C141.427 246.528 137.346 245.821 134.551 243.475C132.269 241.547 131.177 238.816 131.466 235.892C130.02 235.956 127.803 235.924 125.489 235.892C123.818 235.86 122.115 235.828 120.605 235.828C120.508 235.828 120.444 235.828 120.38 235.796C120.123 235.731 119.898 235.763 119.641 235.956C115.881 238.591 114.371 260.41 113.503 273.424C113.086 280.075 112.796 284.028 112.443 285.699Z" fill="#1B1B1A"/>
<path d="M135.386 259.928C136.929 259.735 137.379 252.537 139.724 253.437C141.074 253.951 139.724 259.767 141.331 260.345C143.227 261.052 147.79 259.542 147.822 260.988C147.822 263.045 140.624 263.398 141.717 265.358C143.291 268.186 144.994 271.688 143.998 272.267C142.199 273.327 139.371 267.318 137.25 266.772C134.904 266.194 128.831 272.363 128.574 269.889C128.381 268.122 133.683 264.94 132.912 263.494C131.466 260.731 127.546 257.678 129.506 257.421C131.498 257.164 133.94 260.12 135.386 259.928Z" fill="#FFF7E2"/>
<path d="M143.548 273.134C142.263 273.134 140.977 271.592 139.756 270.082C138.856 269.021 137.764 267.672 137.089 267.511C136.286 267.318 134.229 268.604 132.88 269.471C130.952 270.692 129.538 271.56 128.574 271.11C128.349 270.981 127.931 270.692 127.867 269.985C127.738 268.764 129.024 267.479 130.373 266.161C131.08 265.455 132.269 264.298 132.269 263.88C131.755 262.884 130.855 261.823 130.084 260.892C128.831 259.381 127.995 258.385 128.349 257.485C128.477 257.196 128.767 256.811 129.473 256.714C130.823 256.521 132.173 257.421 133.394 258.225C134.069 258.674 134.904 259.221 135.322 259.221C135.643 258.964 136.093 257.646 136.35 256.811C136.928 255.108 137.507 253.34 138.664 252.826C139.113 252.633 139.595 252.601 140.077 252.794C141.202 253.212 141.234 254.851 141.266 256.714C141.299 257.614 141.331 259.478 141.684 259.703C142.359 259.96 143.644 259.831 144.769 259.735C146.343 259.606 147.597 259.51 148.239 260.088C148.496 260.313 148.657 260.635 148.657 261.02C148.657 262.563 146.729 263.237 144.833 263.912C143.998 264.201 142.648 264.683 142.423 265.005C145.797 271.014 145.379 272.363 144.415 272.942C144.094 273.07 143.805 273.134 143.548 273.134ZM136.896 266.001C137.089 266.001 137.25 266.033 137.41 266.065C138.599 266.354 139.692 267.704 140.881 269.15C141.556 269.985 142.937 271.656 143.484 271.656C143.484 271.656 143.484 271.656 143.516 271.656C143.548 271.367 143.451 270.082 141.041 265.744C140.752 265.23 140.817 264.78 140.913 264.491C141.299 263.527 142.648 263.045 144.255 262.466C145.09 262.177 146.697 261.599 147.018 261.149C146.568 261.052 145.54 261.149 144.833 261.213C143.484 261.341 142.07 261.438 141.106 261.084C139.788 260.602 139.756 258.707 139.724 256.714C139.692 255.879 139.692 254.465 139.435 254.144C139.338 254.111 139.306 254.144 139.242 254.144C138.664 254.401 138.085 256.136 137.7 257.261C137.089 259.092 136.607 260.538 135.45 260.667C134.518 260.795 133.522 260.12 132.462 259.446C131.594 258.867 130.598 258.225 129.827 258.16C130.084 258.61 130.695 259.317 131.144 259.863C131.98 260.859 132.944 262.016 133.522 263.141C134.165 264.362 132.847 265.679 131.337 267.19C130.598 267.929 129.377 269.118 129.281 269.696C129.859 269.535 131.112 268.732 131.98 268.186C133.747 267.093 135.547 266.001 136.896 266.001Z" fill="#1B1B1A"/>
<path d="M183.586 136.439C184.325 123.971 164.628 108.708 144.287 116.388C126.389 123.136 124.461 115.167 127.514 108.837C114.371 114.878 119.962 125.128 123.24 126.06C106.916 125.803 98.9792 129.241 95.2518 149.036C99.172 144.216 102.867 146.561 102.867 146.561C102.867 146.561 96.7299 147.879 95.7659 163.849C94.4163 163.174 94.6091 161.118 94.6091 161.118C94.6091 161.118 86.5115 169.633 92.2312 180.944C98.6579 193.669 155.47 203.084 177.031 202.152C198.593 201.188 202.931 196.497 202.834 182.679C201.453 184.318 200.007 183.772 200.007 183.772C200.007 183.772 207.719 174.678 201.677 160.604C206.337 160.861 206.562 169.633 206.562 169.633C206.562 169.633 213.406 161.375 209.872 152.088C205.405 140.392 192.07 134.897 183.586 136.439Z" fill="#6300FF"/>
<path d="M173.721 202.955C162.185 202.955 144.384 200.77 128.735 197.396C116.524 194.761 95.4765 189.138 91.492 181.265C85.6116 169.633 93.902 160.668 93.9984 160.571C94.2233 160.347 94.5768 160.282 94.866 160.411C95.0267 160.475 95.1552 160.604 95.2516 160.764C96.2799 151.799 99.0754 148.168 100.939 146.722C99.686 146.626 97.8223 147.011 95.83 149.485C95.6051 149.742 95.2516 149.839 94.9303 149.678C94.6089 149.518 94.4482 149.196 94.5125 148.843C98.1757 129.466 106.016 125.385 120.862 125.225C119.641 123.907 118.645 121.851 118.484 119.601C118.291 116.902 119.127 111.793 127.192 108.066C127.481 107.937 127.835 108.001 128.06 108.226C128.285 108.451 128.349 108.805 128.188 109.094C127.064 111.472 126.453 114.653 128.156 116.517C129.442 117.93 133.233 119.698 144.03 115.617C154.377 111.697 165.881 113.271 174.75 119.826C180.662 124.164 184.261 130.109 184.357 135.507C193.58 134.351 206.305 140.552 210.578 151.799C214.241 161.407 207.429 169.729 207.14 170.083C206.947 170.34 206.626 170.404 206.305 170.308C206.015 170.211 205.79 169.922 205.79 169.601C205.79 169.537 205.533 163.463 202.931 161.728C206.819 172.172 203.445 179.659 201.581 182.711C201.774 182.583 201.999 182.39 202.191 182.133C202.384 181.876 202.738 181.812 203.027 181.908C203.316 182.004 203.509 182.294 203.541 182.615C203.605 190.455 202.127 194.826 198.464 197.75C194.64 200.802 188.213 202.313 176.999 202.827C176.003 202.955 174.878 202.955 173.721 202.955ZM94.0627 162.949C92.1347 165.649 88.6642 172.332 92.8416 180.623C98.8827 192.544 154.313 202.409 176.935 201.413C187.828 200.931 193.965 199.517 197.532 196.657C200.553 194.247 201.87 190.616 202.031 184.286C200.81 184.896 199.782 184.511 199.717 184.511C199.492 184.414 199.332 184.222 199.267 183.997C199.203 183.772 199.267 183.515 199.428 183.322C199.717 182.968 206.754 174.389 201.003 160.925C200.906 160.7 200.938 160.411 201.067 160.186C201.227 159.961 201.452 159.865 201.709 159.865C205.469 160.057 206.722 164.717 207.14 167.512C208.843 164.717 211.639 158.772 209.197 152.377C205.019 141.452 192.455 135.604 183.747 137.178C183.522 137.21 183.297 137.146 183.104 136.986C182.944 136.825 182.847 136.6 182.847 136.375C183.136 131.234 179.698 125.385 173.85 121.08C165.367 114.846 154.409 113.335 144.544 117.063C133.49 121.208 128.927 119.634 127.032 117.577C125.489 115.906 125.168 113.303 126.068 110.411C121.858 112.821 119.705 116.002 119.994 119.569C120.219 122.622 122.179 124.968 123.465 125.353C123.818 125.45 124.043 125.803 124.011 126.189C123.947 126.574 123.625 126.831 123.272 126.831C108.073 126.606 100.393 129.498 96.5369 146.786C100.136 144.023 103.285 145.919 103.317 145.951C103.574 146.111 103.703 146.433 103.671 146.722C103.606 147.011 103.381 147.268 103.092 147.332C103.06 147.332 97.5009 148.907 96.5691 163.913C96.5691 164.17 96.4084 164.395 96.1835 164.524C95.9585 164.652 95.7014 164.652 95.4765 164.556C94.6732 164.17 94.2876 163.56 94.0627 162.949Z" fill="#1B1B1A"/>
<path d="M180.116 137.885C180.116 137.885 186.382 122.076 179.602 115.263C191.748 116.838 191.234 127.346 188.149 131.812C198.175 125.193 207.236 131.651 207.654 135.379C196.182 133.194 187.217 140.392 187.217 140.392L180.116 137.885Z" fill="#6300FF"/>
<path d="M187.217 141.163C186.992 141.163 186.767 141.066 186.639 140.873C186.382 140.552 186.446 140.07 186.767 139.813C187.121 139.524 195.508 132.936 206.561 134.447C205.951 133.29 204.537 131.876 202.416 130.912C200.392 129.948 194.993 128.181 188.567 132.454C188.278 132.647 187.86 132.615 187.603 132.358C187.346 132.101 187.314 131.715 187.506 131.394C189.113 129.08 189.949 124.967 188.438 121.593C187.281 118.991 184.872 117.191 181.401 116.356C186.285 123.971 181.015 137.564 180.758 138.174C180.598 138.56 180.18 138.753 179.794 138.592C179.409 138.431 179.216 138.014 179.377 137.628C179.441 137.467 185.386 122.172 179.023 115.809C178.798 115.584 178.734 115.231 178.895 114.942C179.023 114.653 179.345 114.492 179.666 114.524C186.028 115.36 188.695 118.509 189.82 120.983C191.17 124.003 190.88 127.313 189.949 129.884C196.022 126.895 201.035 128.566 203.059 129.53C206.015 130.944 208.168 133.258 208.393 135.314C208.425 135.539 208.329 135.796 208.168 135.957C208.007 136.118 207.75 136.182 207.525 136.15C196.504 134.061 187.796 140.938 187.699 141.002C187.539 141.098 187.378 141.163 187.217 141.163Z" fill="#1B1B1A"/>
<path d="M188.502 199.485C183.682 224.292 161.093 237.049 137.185 232.422C113.278 227.762 97.1152 207.486 101.967 182.679C106.787 157.872 129.891 142.384 153.798 147.043C177.706 151.67 193.322 174.646 188.502 199.485Z" fill="#FFF7E2"/>
<path d="M146.858 234.092C143.644 234.092 140.335 233.771 137.057 233.128C125.071 230.815 114.821 224.549 108.201 215.519C101.357 206.201 98.8825 194.472 101.228 182.486C103.574 170.34 110.354 159.929 120.315 153.148C130.18 146.4 142.134 143.958 153.959 146.272C165.784 148.553 175.938 155.301 182.558 165.263C189.242 175.256 191.619 187.467 189.242 199.613C186.896 211.599 180.212 221.56 170.411 227.634C163.503 231.907 155.373 234.092 146.858 234.092ZM145.283 146.947C136.704 146.947 128.381 149.485 121.151 154.402C111.543 160.957 104.988 171.047 102.706 182.775C100.457 194.343 102.835 205.654 109.422 214.62C115.817 223.328 125.746 229.369 137.346 231.65C148.946 233.9 160.418 232.004 169.608 226.348C179.055 220.5 185.514 210.892 187.763 199.324C190.045 187.563 187.763 175.77 181.305 166.098C174.878 156.49 165.077 149.967 153.67 147.75C150.874 147.204 148.047 146.947 145.283 146.947Z" fill="#1B1B1A"/>
<path d="M186.735 199.324C186.735 199.324 188.31 194.408 194.544 194.697C201.131 195.018 202.288 203.952 197.982 208.418C193.676 212.885 186.446 211.792 184.871 207.454L186.735 199.324Z" fill="#FFF7E2"/>
<path d="M191.33 212.049C190.687 212.049 190.013 211.985 189.37 211.856C186.864 211.31 184.936 209.768 184.164 207.711C184.036 207.326 184.229 206.876 184.614 206.747C185 206.619 185.45 206.811 185.578 207.197C186.157 208.772 187.635 209.928 189.659 210.378C191.812 210.828 194.993 210.442 197.436 207.904C199.653 205.622 200.392 201.831 199.235 198.907C198.4 196.786 196.729 195.565 194.511 195.468C188.952 195.179 187.506 199.389 187.442 199.581C187.313 199.967 186.896 200.192 186.51 200.063C186.125 199.935 185.9 199.517 186.028 199.132C186.06 199.067 187.86 193.637 194.608 193.99C197.403 194.119 199.621 195.725 200.681 198.392C202.063 201.831 201.163 206.297 198.56 208.996C196.632 210.957 193.997 212.049 191.33 212.049Z" fill="#1B1B1A"/>
<path d="M191.908 207.325C190.302 201.702 192.808 200.256 195.443 203.244C195.668 201.541 194.8 200.288 192.23 200.063C192.776 197.846 195.475 197.107 195.475 197.107C191.362 195.725 186.799 202.602 191.908 207.325Z" fill="#FFF7E2"/>
<path d="M191.908 208.097C191.587 208.097 191.266 207.872 191.169 207.55C190.237 204.305 190.527 202.023 191.973 201.22C192.326 201.027 192.744 200.931 193.162 200.995C192.872 200.931 192.519 200.866 192.165 200.834C191.941 200.802 191.748 200.706 191.619 200.513C191.491 200.32 191.459 200.095 191.491 199.902C192.133 197.268 195.154 196.432 195.282 196.4C195.668 196.304 196.086 196.528 196.214 196.914C196.311 197.332 196.086 197.717 195.668 197.846C195.636 197.846 194.061 198.296 193.29 199.485C194.286 199.71 195.057 200.127 195.572 200.77C196.118 201.445 196.343 202.345 196.182 203.373C196.15 203.662 195.925 203.919 195.668 203.983C195.379 204.08 195.09 203.983 194.897 203.759C193.933 202.666 193.097 202.377 192.712 202.57C192.294 202.794 191.748 204.048 192.647 207.165C192.776 207.55 192.519 207.968 192.133 208.097C192.037 208.097 191.973 208.097 191.908 208.097Z" fill="#1B1B1A"/>
<path d="M103.381 183.129C103.381 183.129 103.767 177.988 97.854 175.899C91.6201 173.746 87.2178 181.554 89.5314 187.338C91.845 193.122 98.9465 194.793 102.063 191.355L103.381 183.129Z" fill="#FFF7E2"/>
<path d="M97.7257 193.894C97.2437 193.894 96.7617 193.861 96.2476 193.765C92.97 193.187 90.1101 190.841 88.8248 187.66C87.443 184.189 88.2785 179.723 90.8492 177.023C92.8093 174.967 95.4764 174.292 98.1113 175.224C104.506 177.441 104.12 183.161 104.12 183.225C104.088 183.643 103.735 183.964 103.317 183.932C102.899 183.9 102.578 183.547 102.61 183.129C102.61 182.936 102.867 178.502 97.5972 176.67C95.5085 175.931 93.4841 176.445 91.9096 178.084C89.7245 180.365 89.0176 184.157 90.2065 187.113C91.524 190.359 94.3196 191.933 96.4725 192.319C98.4969 192.672 100.329 192.158 101.453 190.905C101.742 190.584 102.224 190.584 102.514 190.841C102.835 191.13 102.835 191.58 102.578 191.901C101.421 193.187 99.6858 193.894 97.7257 193.894Z" fill="#1B1B1A"/>
<path d="M95.6048 188.624C99.2038 184.029 97.4364 181.747 93.8696 183.515C94.2874 181.844 95.5727 181.008 98.047 181.779C98.3683 179.498 96.1511 177.827 96.1511 177.827C100.457 178.052 102.128 186.149 95.6048 188.624Z" fill="#FFF7E2"/>
<path d="M95.6048 189.395C95.4442 189.395 95.2835 189.331 95.155 189.234C94.8336 188.977 94.7694 188.495 95.0265 188.174C97.0187 185.603 96.9866 184.254 96.6974 183.9C96.4403 183.579 95.5727 183.547 94.2553 184.189C93.9982 184.318 93.6769 184.286 93.4519 184.093C93.227 183.9 93.1306 183.611 93.1948 183.322C93.4519 182.294 93.9661 181.554 94.7373 181.137C95.4442 180.751 96.2797 180.623 97.3079 180.815C97.0187 179.434 95.7334 178.438 95.7334 178.405C95.412 178.148 95.3478 177.666 95.6048 177.345C95.8619 177.024 96.3439 176.959 96.6653 177.216C96.7617 177.281 99.2359 179.209 98.8503 181.876C98.8182 182.101 98.6896 182.294 98.4968 182.422C98.304 182.551 98.0791 182.583 97.8542 182.518C97.5007 182.422 97.1794 182.326 96.858 182.294C97.2758 182.422 97.5971 182.647 97.8542 182.968C98.8824 184.222 98.2719 186.471 96.2154 189.138C96.0547 189.299 95.8298 189.395 95.6048 189.395Z" fill="#1B1B1A"/>
<path d="M147.693 183.161C147.757 185.828 141.524 190.07 144.608 192.769C146.504 194.44 149.975 193.315 149.268 189.363C148.818 187.081 147.693 183.161 147.693 183.161Z" fill="#FFF7E2"/>
<path d="M146.569 194.279C145.701 194.279 144.801 193.958 144.094 193.348C141.684 191.227 143.645 188.528 145.219 186.343C146.055 185.186 146.922 183.965 146.922 183.193C146.922 182.808 147.179 182.487 147.565 182.422C147.95 182.358 148.304 182.583 148.4 182.969C148.432 183.129 149.557 186.953 149.975 189.267C150.36 191.323 149.718 193.058 148.272 193.862C147.758 194.151 147.147 194.279 146.569 194.279ZM147.565 185.603C147.244 186.15 146.858 186.696 146.44 187.242C144.737 189.588 143.805 191.098 145.091 192.223C145.765 192.833 146.794 192.962 147.533 192.544C148.4 192.062 148.754 190.938 148.497 189.524C148.304 188.399 147.918 186.857 147.565 185.603Z" fill="#1B1B1A"/>
<path d="M175.874 177.859C171.986 175.224 169.544 179.659 172.371 180.59C175.424 181.587 177.609 183.547 178.091 183.386C179.152 183.033 178.059 179.337 175.874 177.859Z" fill="#FFF7E2"/>
<path d="M178.027 184.157C177.577 184.157 177.063 183.836 176.227 183.354C175.199 182.743 173.817 181.876 172.146 181.329C171.15 181.008 170.508 180.269 170.411 179.369C170.315 178.373 170.829 177.345 171.793 176.799C172.403 176.445 174.042 175.738 176.292 177.281C178.187 178.566 179.441 181.361 179.216 182.904C179.119 183.739 178.605 184.061 178.316 184.157C178.252 184.157 178.123 184.157 178.027 184.157ZM173.528 177.795C173.175 177.795 172.853 177.891 172.564 178.052C172.114 178.309 171.857 178.759 171.889 179.176C171.921 179.594 172.307 179.787 172.596 179.883C174.428 180.494 175.97 181.426 176.998 182.036C177.223 182.197 177.513 182.358 177.738 182.486C177.705 181.619 176.934 179.498 175.424 178.502C174.781 178.02 174.107 177.795 173.528 177.795Z" fill="#1B1B1A"/>
<path d="M125.007 168.412C129.698 168.187 129.473 173.232 126.581 172.557C123.465 171.85 120.573 172.364 120.251 171.979C119.544 171.111 122.372 168.508 125.007 168.412Z" fill="#FFF7E2"/>
<path d="M127.095 173.36C126.871 173.36 126.646 173.328 126.421 173.296C124.718 172.911 123.079 172.911 121.89 172.911C120.669 172.911 120.058 172.911 119.705 172.461C119.512 172.236 119.255 171.722 119.576 170.95C120.219 169.504 122.725 167.769 125.007 167.673C127.706 167.544 128.766 168.99 129.12 169.601C129.634 170.597 129.57 171.722 128.959 172.525C128.477 173.071 127.835 173.36 127.095 173.36ZM122.018 171.4C123.207 171.4 124.943 171.432 126.742 171.818C127.063 171.882 127.481 171.914 127.706 171.561C127.963 171.24 127.963 170.726 127.738 170.244C127.32 169.472 126.356 169.055 125.039 169.119C123.207 169.215 121.472 170.629 120.99 171.336C121.247 171.336 121.569 171.336 121.826 171.336C121.922 171.4 121.954 171.4 122.018 171.4Z" fill="#1B1B1A"/>
<path d="M174.878 194.986C174.846 195.275 173.817 188.56 167.937 187.66C162.442 186.824 159.068 192.833 159.132 192.544C159.807 188.174 175.553 190.584 174.878 194.986Z" fill="#FFF7E2"/>
<path d="M174.846 195.757C174.267 195.757 174.139 195.211 174.042 194.986C172.982 191.162 170.829 188.881 167.809 188.431C165.881 188.142 162.924 188.656 159.904 192.801C159.711 193.058 159.39 193.508 158.811 193.283C158.49 193.155 158.297 192.801 158.361 192.448C158.394 192.255 158.49 192.094 158.618 191.998C158.651 191.966 158.651 191.934 158.683 191.901C162.153 187.146 165.688 186.567 168.034 186.953C171.633 187.499 174.267 190.23 175.489 194.601C175.489 194.633 175.489 194.665 175.521 194.665C175.585 194.793 175.617 194.954 175.585 195.115C175.521 195.468 175.231 195.725 174.878 195.757C174.878 195.757 174.878 195.757 174.846 195.757Z" fill="#1B1B1A"/>
<path d="M132.719 187.017C132.687 187.306 131.658 180.622 125.778 179.691C120.283 178.855 116.909 184.864 116.973 184.575C117.648 180.173 133.393 182.615 132.719 187.017Z" fill="#FFF7E2"/>
<path d="M132.719 187.756C132.141 187.756 132.012 187.21 131.948 186.985C130.887 183.161 128.734 180.88 125.714 180.43C123.786 180.14 120.83 180.655 117.809 184.8C117.616 185.057 117.295 185.507 116.717 185.282C116.395 185.153 116.202 184.8 116.267 184.446C116.299 184.254 116.395 184.125 116.524 183.997C116.556 183.964 116.556 183.932 116.588 183.9C120.058 179.144 123.593 178.566 125.939 178.919C129.538 179.466 132.205 182.197 133.394 186.567C133.394 186.599 133.394 186.599 133.426 186.631C133.49 186.76 133.522 186.921 133.49 187.081C133.426 187.435 133.137 187.724 132.783 187.724C132.751 187.756 132.719 187.756 132.719 187.756Z" fill="#1B1B1A"/>
<path d="M132.558 197.268C136.446 194.472 136.414 200.16 143.419 201.574C150.553 203.02 152.835 197.557 155.277 202.698C157.269 206.876 150.296 226.798 138.664 224.163C126.903 221.464 128.863 199.935 132.558 197.268Z" fill="#FFF7E2"/>
<path d="M140.752 225.16C140.013 225.16 139.242 225.063 138.471 224.902C133.908 223.874 130.727 219.954 129.506 213.881C128.124 207.133 129.441 198.617 132.141 196.689C134.711 194.858 136.093 196.143 137.603 197.557C138.889 198.746 140.495 200.256 143.58 200.899C146.568 201.509 148.625 200.835 150.264 200.288C152.352 199.614 154.313 198.971 155.951 202.409C157.333 205.301 155.052 214.009 150.521 219.665C147.597 223.264 144.255 225.16 140.752 225.16ZM133.008 197.878C131.209 199.164 129.602 206.715 130.984 213.559C131.755 217.415 133.747 222.268 138.824 223.424C143.548 224.485 147.147 221.432 149.364 218.701C153.67 213.302 155.662 205.237 154.602 203.02C153.541 200.77 152.834 200.995 150.746 201.67C149.011 202.248 146.665 203.02 143.291 202.313C139.788 201.606 137.925 199.871 136.575 198.617C135.065 197.236 134.551 196.754 133.008 197.878Z" fill="#1B1B1A"/>
<path d="M147.661 221.561C145.154 223.746 142.102 224.935 138.663 224.163C135.418 223.424 133.233 221.271 131.819 218.444C134.036 217.737 136.864 217.544 140.302 218.251C143.58 218.926 145.958 220.115 147.661 221.561Z" fill="#FFF7E2"/>
<path d="M140.72 225.159C139.981 225.159 139.21 225.063 138.471 224.902C135.257 224.163 132.783 222.107 131.144 218.797C131.048 218.604 131.048 218.379 131.112 218.154C131.209 217.962 131.369 217.801 131.594 217.737C134.197 216.933 137.185 216.837 140.463 217.512C143.612 218.154 146.183 219.343 148.143 220.982C148.304 221.111 148.4 221.336 148.4 221.561C148.4 221.785 148.304 221.978 148.143 222.139C145.829 224.131 143.291 225.159 140.72 225.159ZM132.912 218.926C134.326 221.368 136.318 222.878 138.792 223.424C141.459 224.035 143.998 223.392 146.44 221.561C144.769 220.372 142.68 219.472 140.142 218.958C137.507 218.444 135.065 218.411 132.912 218.926Z" fill="#1B1B1A"/>
<path d="M133.908 196.593C136.575 195.886 137.314 200.353 143.419 201.606C149.589 202.859 152.095 198.971 154.248 201.156C151.324 205.205 147.243 208.129 142.295 207.004C137.41 205.88 134.904 201.509 133.908 196.593Z" fill="#FFF7E2"/>
<path d="M144.383 207.968C143.644 207.968 142.905 207.872 142.134 207.711C137.571 206.683 134.39 202.763 133.169 196.722C133.105 196.336 133.33 195.95 133.715 195.854C135.322 195.436 136.414 196.432 137.571 197.525C138.856 198.714 140.463 200.224 143.548 200.867C146.536 201.477 148.593 200.802 150.232 200.256C151.87 199.742 153.381 199.228 154.762 200.61C155.02 200.867 155.052 201.284 154.827 201.574C151.838 205.783 148.175 207.968 144.383 207.968ZM134.84 197.332C135.74 200.995 137.796 205.205 142.455 206.265C147.211 207.358 150.842 204.305 153.156 201.317C152.642 201.124 151.967 201.284 150.682 201.702C148.946 202.281 146.601 203.02 143.227 202.345C139.724 201.638 137.86 199.903 136.511 198.65C135.804 197.943 135.322 197.493 134.84 197.332Z" fill="#1B1B1A"/>
<path d="M126.742 143.058C115.27 145.372 108.715 158.836 117.391 165.23C118.13 155.398 132.88 154.434 132.88 154.434C132.88 154.434 128.927 175.256 147.757 176.606C143.098 173.521 143.869 165.07 164.852 165.166C166.523 167.962 161.35 171.978 158.811 172.332C166.941 174.71 179.698 167.158 180.116 160.603C184.679 168.669 181.144 175.449 181.144 175.449C181.144 175.449 192.873 171.496 192.648 162.981C192.294 150.288 173.978 144.761 158.233 141.773C142.487 138.817 135.964 141.195 126.742 143.058Z" fill="#6300FF"/>
<path d="M147.789 177.377C147.757 177.377 147.757 177.377 147.725 177.377C142.327 176.992 138.214 174.999 135.482 171.465C131.144 165.841 131.659 158.033 132.012 155.302C128.831 155.719 118.741 157.615 118.163 165.295C118.13 165.584 117.97 165.809 117.713 165.938C117.456 166.066 117.166 166.034 116.941 165.873C113.439 163.303 111.993 159.318 112.957 154.98C114.306 148.875 119.93 143.669 126.614 142.32C127.031 142.223 127.417 142.513 127.513 142.898C127.61 143.316 127.321 143.701 126.935 143.798C120.83 145.019 115.688 149.743 114.467 155.302C113.728 158.643 114.596 161.6 116.877 163.817C118.805 154.755 132.269 153.759 132.88 153.727C133.105 153.727 133.329 153.791 133.49 153.984C133.651 154.145 133.715 154.402 133.651 154.627C133.619 154.723 131.883 164.363 136.703 170.597C138.792 173.296 141.781 174.967 145.669 175.642C144.769 174.357 144.48 172.846 144.93 171.368C145.572 169.28 148.753 164.46 164.531 164.46C164.659 164.46 164.788 164.46 164.917 164.46C165.174 164.46 165.431 164.588 165.559 164.813C166.138 165.777 166.138 166.934 165.559 168.123C164.82 169.633 163.246 171.079 161.671 172.011C165.881 172.172 170.636 170.276 173.946 167.93C177.224 165.616 179.248 162.853 179.409 160.539C179.441 160.218 179.666 159.929 179.987 159.865C180.308 159.8 180.662 159.929 180.823 160.218C184.197 166.195 183.329 171.465 182.526 174.067C185.61 172.686 192.101 169.023 191.941 162.981C191.941 162.564 192.262 162.21 192.68 162.21C192.68 162.21 192.68 162.21 192.712 162.21C193.13 162.21 193.451 162.532 193.451 162.949C193.708 171.915 181.915 175.963 181.433 176.156C181.144 176.253 180.823 176.156 180.63 175.931C180.437 175.706 180.405 175.353 180.533 175.096C180.662 174.871 183.329 169.537 180.437 162.789C179.569 164.974 177.609 167.223 174.846 169.183C170.861 171.979 164.242 174.678 158.683 173.071C158.329 172.975 158.104 172.654 158.136 172.3C158.169 171.947 158.426 171.657 158.779 171.593C160.418 171.368 163.31 169.376 164.242 167.48C164.531 166.902 164.595 166.388 164.467 165.938C149.364 165.97 146.825 170.404 146.408 171.786C145.958 173.328 146.665 174.935 148.271 175.995C148.561 176.188 148.689 176.542 148.561 176.863C148.4 177.184 148.111 177.377 147.789 177.377Z" fill="#1B1B1A"/>
<path d="M253.118 298.174C233.235 286.578 203.385 289.884 197.283 315.009C184.824 286.12 144.143 297.513 158.483 329.607C108.954 286.832 44.0681 357.428 79.5623 387.283H253.118V298.174Z" fill="white"/>
<path d="M79.5374 388.5C79.283 388.5 78.9777 388.398 78.7742 388.195C70.2263 381.024 66.6648 370.853 68.7508 359.512C71.9563 341.916 87.6273 324.879 106.86 318.064C123.854 312.063 141.102 314.86 155.806 325.896C153.211 317.81 153.975 310.538 157.943 305.096C162.065 299.451 169.34 296.501 176.972 297.366C185.419 298.332 192.593 303.469 197.019 311.657C199.868 303.265 205.618 297.061 213.86 293.552C225.715 288.517 241.386 289.89 253.75 297.112C254.31 297.468 254.514 298.18 254.157 298.739C253.801 299.298 253.089 299.502 252.529 299.146C240.776 292.331 225.919 290.958 214.776 295.739C206.33 299.349 200.683 306.113 198.444 315.216C198.342 315.725 197.884 316.081 197.375 316.132C196.867 316.183 196.358 315.878 196.154 315.42C192.236 306.368 185.164 300.672 176.616 299.705C169.849 298.943 163.388 301.536 159.775 306.469C155.603 312.165 155.501 320.2 159.47 329.1C159.673 329.609 159.521 330.219 159.114 330.524C158.656 330.88 158.045 330.829 157.638 330.473C142.883 317.708 125.075 314.098 107.572 320.302C89.4081 326.71 74.0423 343.34 70.9895 359.919C69.6666 367.293 70.1246 377.871 80.1988 386.313C80.7076 386.72 80.7585 387.483 80.3515 387.991C80.1989 388.398 79.8426 388.5 79.5374 388.5Z" fill="#313131"/>
<path d="M211.716 29.7349C212.215 28.7786 212.132 27.5729 211.467 26.6997L205.106 18.1765L208.515 8.11497C208.847 7.07555 208.598 5.95298 207.808 5.16302C207.018 4.37307 205.896 4.1236 204.856 4.45621L194.795 7.86551L186.271 1.50428C185.398 0.839051 184.234 0.755895 183.236 1.25482C182.28 1.75374 181.656 2.75157 181.656 3.83256L181.781 14.4346L173.091 20.5464C172.218 21.1701 171.761 22.2511 171.927 23.332C172.094 24.413 172.884 25.2861 173.923 25.6188L184.068 28.7786L187.228 38.9233C187.352 39.3806 187.602 39.7964 187.934 40.0874C188.35 40.5032 188.891 40.7943 189.514 40.8774C190.595 41.0437 191.676 40.5864 192.3 39.7133L198.453 31.0653L209.055 31.19C210.219 31.3148 211.217 30.6911 211.716 29.7349Z" fill="#FFCA05"/>
<path d="M190.055 42C189.847 42 189.639 42 189.431 41.9584C188.641 41.8337 187.893 41.4595 187.311 40.8774C186.853 40.4201 186.562 39.8796 186.355 39.2975L183.361 29.6517L173.715 26.6582C172.302 26.2009 171.304 25.0367 171.054 23.5815C170.805 22.1263 171.429 20.7127 172.634 19.8396L180.908 14.0189L180.783 3.91574C180.783 2.46056 181.573 1.08853 182.904 0.423302C184.193 -0.241925 185.772 -0.1172 186.937 0.75591L195.044 6.82611L204.607 3.58313C206.02 3.12579 207.517 3.4584 208.556 4.49781C209.596 5.53723 209.97 7.07557 209.471 8.4476L206.228 18.0102L212.257 26.1177C213.13 27.2818 213.255 28.8618 212.589 30.1506C211.924 31.4395 210.594 32.2295 209.18 32.2295H209.139L199.035 32.1047L193.173 40.3369C192.425 41.4179 191.261 42 190.055 42ZM184.65 1.96163C184.359 1.96163 184.068 2.04479 183.777 2.16952C183.153 2.50213 182.737 3.16736 182.737 3.87416L182.862 14.4762C182.862 14.8088 182.696 15.0999 182.446 15.2662L173.757 21.378C173.175 21.7937 172.884 22.5005 172.967 23.2073C173.092 23.9141 173.59 24.4962 174.256 24.7457L184.4 27.9055C184.691 27.9887 184.941 28.2381 185.024 28.5292L188.184 38.6739C188.267 38.9649 188.433 39.2144 188.641 39.4638C188.932 39.7549 189.307 39.9212 189.681 40.0043C190.388 40.129 191.094 39.7964 191.51 39.2144L197.663 30.5664C197.83 30.3169 198.162 30.1506 198.453 30.1506L209.055 30.3169C209.055 30.3169 209.055 30.3169 209.097 30.3169C209.804 30.3169 210.469 29.9012 210.76 29.2775C211.093 28.6539 211.01 27.8639 210.594 27.2819L204.233 18.7586C204.025 18.5092 203.983 18.1765 204.108 17.8439L207.517 7.78237C207.767 7.07557 207.559 6.36877 207.06 5.82827C206.561 5.32935 205.812 5.12147 205.106 5.37093L195.044 8.78022C194.753 8.90495 194.42 8.82179 194.129 8.65548L185.606 2.29425C185.44 2.08637 185.024 1.96163 184.65 1.96163Z" fill="#313131"/>
</svg>
