<svg width="56" height="58" viewBox="0 0 56 58" fill="none" xmlns="http://www.w3.org/2000/svg">
<ellipse cx="28" cy="28.5957" rx="28" ry="28.5957" fill="#280066"/>
<circle cx="28.1976" cy="27.0061" r="26.4105" fill="#B180FF"/>
<path d="M24.2495 19.9247V35.1161H18.6226V19.9247H24.2495ZM32.7456 19.9814C33.8398 19.5475 35.1109 19.3938 36.3257 19.5937C37.5437 19.7942 38.725 20.3551 39.6021 21.3671C40.4823 22.3829 41.0161 23.8076 41.0161 25.663V35.1161H35.5024V27.1259C35.5024 26.1148 35.201 25.4403 34.812 25.0283C34.422 24.6152 33.9051 24.4232 33.3823 24.4394C32.3593 24.4714 31.2262 25.3241 31.2261 27.1259V35.1161H25.7124V19.9247H31.3726L31.3374 20.5195L31.3208 20.789C31.7455 20.4562 32.2308 20.1855 32.7456 19.9814ZM21.436 13.7353C22.8905 13.7353 24.1372 15.019 24.1372 16.5488C24.137 17.6946 23.4242 18.6484 22.5034 19.1747L22.4634 19.1972L22.4214 19.2128C21.3455 19.6163 20.0915 19.3744 19.3501 18.5214L19.2036 18.3632C18.5113 17.5616 18.2565 16.4 18.7827 15.4228C19.2253 14.2776 20.25 13.7353 21.436 13.7353Z" fill="#FEF7E6" stroke="#2E0A8E" stroke-width="1.1253" stroke-miterlimit="10"/>
</svg>
