<svg width="272" height="503" viewBox="0 0 272 503" fill="none" xmlns="http://www.w3.org/2000/svg">
<path d="M41.2164 29.7348C41.7153 28.7785 41.6321 27.5728 40.9669 26.6997L34.6057 18.1765L38.0149 8.11491C38.3476 7.07549 38.0981 5.95292 37.3082 5.16296C36.5182 4.373 35.3956 4.12354 34.3562 4.45615L24.2946 7.86545L15.7714 1.50422C14.8983 0.83899 13.7342 0.755834 12.7363 1.25475C11.7801 1.75367 11.1564 2.75151 11.1564 3.8325L11.2812 14.4346L2.59161 20.5463C1.7185 21.17 1.26114 22.251 1.42745 23.332C1.59375 24.413 2.38373 25.2861 3.42315 25.6187L13.5679 28.7785L16.7277 38.9232C16.8524 39.3806 17.1019 39.7963 17.4345 40.0874C17.8502 40.5032 18.3908 40.7942 19.0144 40.8773C20.0954 41.0436 21.1764 40.5863 21.8 39.7132L27.9534 31.0652L38.5555 31.19C39.7196 31.3147 40.7175 30.6911 41.2164 29.7348Z" fill="#00B2B8"/>
<path d="M19.5549 42C19.347 42 19.1391 42 18.9312 41.9584C18.1413 41.8337 17.3929 41.4595 16.8108 40.8774C16.3535 40.4201 16.0625 39.8796 15.8546 39.2975L12.861 29.6517L3.21525 26.6582C1.80165 26.2009 0.803795 25.0367 0.554335 23.5815C0.304875 22.1263 0.928546 20.7127 2.13427 19.8396L10.408 14.0189L10.2833 3.91574C10.2833 2.46056 11.0732 1.08853 12.4037 0.423302C13.6926 -0.241925 15.2725 -0.1172 16.4366 0.75591L24.5441 6.82611L34.1067 3.58313C35.5203 3.12579 37.0171 3.4584 38.0565 4.49781C39.0959 5.53723 39.4701 7.07557 38.9712 8.4476L35.7282 18.0102L41.7568 26.1177C42.6299 27.2818 42.7547 28.8618 42.0895 30.1506C41.4242 31.4395 40.0938 32.2295 38.6801 32.2295H38.6386L28.5355 32.1047L22.6731 40.3369C21.9247 41.4179 20.7606 42 19.5549 42ZM14.1499 1.96163C13.8589 1.96163 13.5678 2.04479 13.2768 2.16952C12.6531 2.50213 12.2374 3.16736 12.2374 3.87416L12.3621 14.4762C12.3621 14.8088 12.1958 15.0999 11.9464 15.2662L3.25682 21.378C2.67475 21.7937 2.3837 22.5005 2.46685 23.2073C2.59158 23.9141 3.09049 24.4962 3.75572 24.7457L13.9004 27.9055C14.1915 27.9887 14.4409 28.2381 14.5241 28.5292L17.6839 38.6739C17.7671 38.9649 17.9334 39.2144 18.1413 39.4638C18.4323 39.7549 18.8065 39.9212 19.1807 40.0043C19.8875 40.129 20.5943 39.7964 21.0101 39.2144L27.1634 30.5664C27.3297 30.3169 27.6624 30.1506 27.9534 30.1506L38.5554 30.3169C38.5554 30.3169 38.5554 30.3169 38.597 30.3169C39.3038 30.3169 39.969 29.9012 40.2601 29.2775C40.5927 28.6539 40.5095 27.8639 40.0938 27.2819L33.7326 18.7586C33.5247 18.5092 33.4831 18.1765 33.6078 17.8439L37.0171 7.78237C37.2665 7.07557 37.0587 6.36877 36.5597 5.82827C36.0608 5.32935 35.3125 5.12147 34.6057 5.37093L24.5441 8.78022C24.253 8.90495 23.9204 8.82179 23.6294 8.65548L15.1062 2.29425C14.9399 2.08637 14.5241 1.96163 14.1499 1.96163Z" fill="#313131"/>
<path d="M107.68 348.045C111.43 346.777 115.444 343.925 118.297 341.495C121.677 342.921 122.258 346.249 121.466 349.365C116.395 355.175 109.582 357.076 109.582 357.076L107.68 348.045Z" fill="#FFF7E2"/>
<path d="M109.582 358.344C109.37 358.344 109.159 358.291 108.948 358.186C108.631 358.027 108.473 357.71 108.367 357.393L106.466 348.362C106.36 347.728 106.677 347.147 107.258 346.935C110.268 345.932 114.071 343.555 117.452 340.597C117.821 340.28 118.297 340.228 118.719 340.386C122.205 341.865 123.737 345.404 122.628 349.682C122.575 349.893 122.469 350.052 122.364 350.21C117.135 356.231 110.163 358.238 109.846 358.344C109.793 358.291 109.687 358.344 109.582 358.344ZM109.106 348.837L110.532 355.439C112.645 354.647 116.923 352.587 120.357 348.731C120.673 347.252 120.938 344.4 118.508 342.921C116.554 344.559 112.962 347.305 109.106 348.837Z" fill="#1B1B1A"/>
<path d="M116.396 342.974C115.445 341.706 116.132 339.911 118.614 338.907C121.096 337.851 121.308 335.157 123.843 334.154C126.378 333.15 134.037 334.576 136.413 343.661C138.79 352.798 137.1 366.214 132.875 370.756C128.649 375.298 118.614 369.964 116.818 366.161C114.97 362.358 117.874 352.904 117.874 352.904C117.874 352.904 122.153 349.735 120.146 345.562C118.825 342.816 116.396 342.974 116.396 342.974Z" fill="#1B1B1A"/>
<path d="M166.573 321.583C168.157 317.992 168.791 313.08 168.897 309.329C172.224 307.798 175.076 309.594 176.819 312.287C177.717 319.946 174.495 326.284 174.495 326.284L166.573 321.583Z" fill="#FFF7E2"/>
<path d="M174.548 327.499C174.337 327.499 174.125 327.446 173.914 327.34L165.939 322.639C165.41 322.323 165.199 321.636 165.41 321.055C167.259 316.882 167.576 311.389 167.629 309.224C167.629 308.748 167.946 308.326 168.368 308.115C171.854 306.477 175.446 307.745 177.875 311.548C177.981 311.706 178.034 311.865 178.087 312.076C179.037 319.999 175.763 326.495 175.657 326.759C175.499 327.076 175.234 327.287 174.918 327.393C174.759 327.446 174.654 327.499 174.548 327.499ZM168.104 321.055L173.914 324.488C174.706 322.375 176.132 317.833 175.604 312.71C174.601 311.284 172.699 309.382 170.058 310.174C170.006 312.604 169.583 317.146 168.104 321.055Z" fill="#1B1B1A"/>
<path d="M168.474 310.491C166.889 310.386 166.044 308.643 166.942 306.107C167.84 303.572 165.991 301.565 166.995 299.03C167.999 296.495 174.125 291.794 182.471 296.178C190.816 300.614 198.21 313.66 198.685 319.787C199.214 325.967 189.918 327.023 185.851 325.808C181.784 324.594 176.819 316.09 176.819 316.09C176.819 316.09 177.347 310.808 172.911 309.435C170.006 308.643 168.474 310.491 168.474 310.491Z" fill="#1B1B1A"/>
<path d="M79.0535 305.79C74.1414 319.523 66.2188 359.453 74.3527 365.052C82.4866 370.597 113.596 359.242 113.596 359.242C113.596 359.242 116.026 348.625 109.159 344.294C104.512 346.83 97.3283 349.365 97.3283 349.365C97.3283 349.365 98.4903 337.534 105.938 329.981C113.438 330.562 118.403 328.66 118.403 328.66C118.403 328.66 135.991 348.52 154.054 350.316C172.171 352.111 178.72 325.861 178.72 325.861C178.72 325.861 176.343 315.879 165.093 314.083C162.294 319.417 158.914 323.484 158.914 323.484C158.914 323.484 150.146 317.938 146.343 305.474C111.536 316.248 79.0535 305.79 79.0535 305.79Z" fill="#FFF7E2"/>
<path d="M81.5364 367.798C78.2617 367.798 75.5152 367.323 73.6666 366.055C64.4235 359.717 73.1912 318.467 77.892 305.368C78.1032 304.734 78.7899 304.417 79.4237 304.628C79.7406 304.734 111.959 314.822 146.027 304.259C146.343 304.153 146.66 304.206 146.977 304.364C147.294 304.523 147.505 304.787 147.558 305.104C150.463 314.611 156.432 319.998 158.703 321.794C159.812 320.315 162.083 317.252 164.037 313.555C164.301 313.079 164.83 312.815 165.358 312.921C177.242 314.822 179.883 325.174 179.988 325.65C180.041 325.861 180.041 326.02 179.988 326.231C179.724 327.287 173.386 351.689 155.903 351.689C155.27 351.689 154.636 351.636 154.002 351.583C137.259 349.946 121.308 333.572 118.086 330.139C116.396 330.668 112.171 331.671 106.519 331.301C101.554 336.583 99.6 343.978 98.9662 347.516C101.396 346.566 105.621 344.928 108.632 343.291C109.002 343.08 109.477 343.08 109.899 343.344C117.452 348.097 115.023 359.136 114.917 359.611C114.811 360.034 114.547 360.351 114.125 360.509C111.484 361.302 93.3147 367.798 81.5364 367.798ZM79.8463 307.322C74.7758 322.375 68.1736 359.295 75.0927 364.048C81.1667 368.221 103.561 361.566 112.54 358.344C112.91 356.178 113.597 349.206 109.107 345.773C104.459 348.203 98.0683 350.421 97.8042 350.527C97.3817 350.685 96.9591 350.58 96.6422 350.316C96.3253 350.052 96.1141 349.629 96.1669 349.206C96.2197 348.678 97.4873 336.847 105.146 329.083C105.41 328.819 105.78 328.713 106.097 328.713C113.174 329.241 117.98 327.498 118.033 327.498C118.509 327.34 119.037 327.446 119.407 327.815C119.565 328.027 136.889 347.305 154.266 349.048C170.059 350.633 176.714 328.713 177.506 325.861C177.03 324.329 174.495 317.252 165.833 315.456C163.139 320.421 160.076 324.065 159.918 324.224C159.495 324.699 158.808 324.805 158.28 324.488C157.91 324.277 149.618 318.889 145.551 306.952C114.864 316.09 85.9203 309.012 79.8463 307.322Z" fill="#1B1B1A"/>
<path d="M91.4655 238.448C91.4655 238.448 65.6906 238.343 41.2361 194.715C37.6973 195.296 34.8452 192.444 31.7818 187.955C28.6127 185.419 26.9225 183.201 28.1373 182.198C29.405 181.141 32.6797 184.257 33.5776 184.891C33.5248 184.733 29.9331 180.507 29.1937 179.557C27.5035 177.286 29.5106 175.384 31.2536 177.074C32.7853 178.5 36.0071 182.039 36.1656 182.198C36.0599 181.986 32.9965 177.074 32.4156 176.176C30.7254 173.536 33.3663 171.317 35.4262 174.275C36.7994 176.282 39.0705 179.926 39.3346 180.19C39.3875 179.979 38.3311 176.916 37.8558 175.067C37.0635 172.004 39.5987 170.895 41.0776 174.222C42.2396 176.863 45.303 182.99 45.303 182.99C45.303 182.99 47.4686 178.817 49.7925 180.032C52.1165 181.3 48.0495 188.483 48.0495 188.483C48.0495 188.483 59.4581 221.018 94.3705 228.519C100.761 234.064 91.4655 238.448 91.4655 238.448Z" fill="#FFF7E2"/>
<path d="M91.4656 239.663C91.2016 239.663 84.5994 239.557 74.8809 234.012C66.166 228.994 53.173 218.325 40.4968 196.036C36.4298 196.194 33.3136 192.55 30.8311 188.8C26.5001 185.314 26.5001 183.624 26.5001 183.043C26.5001 182.303 26.817 181.669 27.3452 181.247C27.7149 180.93 28.1375 180.772 28.56 180.772C28.4016 180.56 28.2959 180.402 28.1903 180.296C26.817 178.448 27.2395 176.652 28.1903 175.807C28.8241 175.278 29.7748 175.014 30.7783 175.331C30.4614 173.905 31.0424 172.69 31.9403 172.057C33.1023 171.264 35.0038 171.423 36.4826 173.588C36.4826 173.641 36.5354 173.641 36.5354 173.694C36.6411 172.268 37.3805 171.37 38.2784 171.053C39.3876 170.683 41.1306 171.106 42.2926 173.694C43.032 175.331 44.5637 178.5 45.5672 180.507C46.201 179.768 47.0461 178.976 48.0496 178.659C48.8947 178.395 49.687 178.5 50.4264 178.87C51.0074 179.187 51.43 179.715 51.6412 180.455C52.3279 182.779 50.3208 186.898 49.4757 188.483C50.2152 190.384 53.173 197.356 59.1942 204.909C65.6379 212.99 77.0465 223.448 94.6347 227.198C94.846 227.251 95.0572 227.357 95.2157 227.462C97.2227 229.258 98.0678 231.159 97.8037 233.114C97.2228 237.022 92.2051 239.399 91.9938 239.505C91.8354 239.61 91.6241 239.663 91.4656 239.663ZM41.2362 193.501C41.6588 193.501 42.0813 193.712 42.2926 194.134C64.7928 234.223 88.4022 237.022 91.2016 237.181C92.4692 236.494 95.1101 234.804 95.3742 232.797C95.5326 231.793 95.0044 230.684 93.8424 229.575C75.6732 225.561 63.8949 214.786 57.2399 206.388C49.9511 197.251 47.0989 189.17 46.9933 188.8C46.8876 188.483 46.8877 188.113 47.0989 187.796C48.8419 184.733 49.687 181.617 49.3173 181.036C49.1588 180.983 49.0532 180.93 48.8419 181.036C47.944 181.3 46.9405 182.831 46.5708 183.518C46.3595 183.941 45.937 184.205 45.4616 184.205C44.9863 184.205 44.5637 183.941 44.3524 183.518C44.2468 183.254 41.2362 177.338 40.0742 174.698C39.7045 173.852 39.3348 173.536 39.1763 173.43C39.1235 173.588 39.0179 174.011 39.2291 174.75C39.4404 175.701 39.8629 176.969 40.127 177.972C40.708 179.821 40.7609 180.032 40.708 180.402C40.6552 180.824 40.3383 181.247 39.9158 181.353C39.4932 181.511 39.0179 181.405 38.6481 181.088C38.3841 180.877 38.12 180.455 36.4826 177.919C35.796 176.863 35.1093 175.754 34.5284 174.962C34.0002 174.222 33.5248 174.011 33.4192 174.117C33.2607 174.222 33.1551 174.75 33.6305 175.49C33.9474 175.965 37.2749 181.247 37.4333 181.669C37.6974 182.198 37.4862 182.884 37.0108 183.201C36.5355 183.571 35.8488 183.465 35.4263 183.043C35.3735 182.99 35.215 182.831 34.8981 182.514C33.9474 181.458 31.6762 179.081 30.5142 177.972C30.1973 177.655 29.9861 177.655 29.9333 177.655C29.8804 177.708 29.7748 178.131 30.303 178.817C30.7255 179.398 32.1516 181.088 33.2079 182.356C34.6868 184.152 34.6868 184.152 34.7924 184.363C35.0565 184.891 34.8981 185.472 34.4756 185.842C34.053 186.212 33.4192 186.212 32.9438 185.895C32.7854 185.789 32.5213 185.578 32.2044 185.314C30.7255 184.099 29.6692 183.412 29.141 183.254C29.3523 183.782 30.1445 184.997 32.6269 187.004C32.7326 187.057 32.7854 187.162 32.891 187.268C36.1129 192.074 38.5425 193.923 41.1305 193.501C41.0777 193.501 41.1306 193.501 41.2362 193.501Z" fill="#1B1B1A"/>
<path d="M135.304 241.67C135.304 241.67 168.051 235.966 192.981 208.342C196.361 209.557 199.689 207.339 203.544 203.536C207.083 201.635 209.196 199.733 208.192 198.518C207.136 197.251 203.386 199.68 202.33 200.103C202.435 199.944 206.766 196.511 207.664 195.666C209.724 193.765 208.192 191.546 206.08 192.867C204.337 193.976 200.481 196.828 200.27 196.934C200.428 196.722 204.337 192.55 205.076 191.758C207.242 189.486 205.023 186.793 202.488 189.328C200.745 191.071 197.84 194.187 197.523 194.399C197.523 194.187 199.108 191.388 199.953 189.645C201.273 186.74 199.002 185.208 196.942 188.219C195.305 190.543 191.132 196.036 191.132 196.036C191.132 196.036 189.759 191.546 187.277 192.286C184.794 193.078 187.382 200.895 187.382 200.895C187.382 200.895 168.949 223.607 134.301 231.371C127.012 235.596 135.304 241.67 135.304 241.67Z" fill="#FFF7E2"/>
<path d="M135.304 242.885C135.04 242.885 134.776 242.779 134.565 242.621C134.354 242.462 129.864 239.135 130.075 235.226C130.181 233.219 131.396 231.529 133.667 230.156C133.773 230.103 133.878 230.05 134.037 229.997C165.041 223.078 183.051 203.8 186.009 200.472C185.481 198.624 184.372 194.346 185.428 192.233C185.745 191.599 186.273 191.124 186.907 190.965C187.699 190.701 188.544 190.807 189.284 191.177C190.182 191.652 190.868 192.603 191.397 193.448C192.77 191.652 194.883 188.853 195.886 187.374C197.471 185.05 199.266 184.944 200.323 185.525C201.168 186 201.696 187.004 201.538 188.43C201.59 188.377 201.59 188.377 201.643 188.324C203.492 186.476 205.393 186.74 206.397 187.691C207.189 188.483 207.506 189.803 206.925 191.124C207.981 190.965 208.879 191.441 209.355 192.074C210.147 193.078 210.2 194.874 208.509 196.458C208.404 196.564 208.245 196.722 208.034 196.881C208.457 196.987 208.826 197.198 209.143 197.62C209.619 198.148 209.777 198.835 209.619 199.575C209.513 200.103 209.196 201.793 204.284 204.434C201.115 207.603 197.365 210.613 193.351 209.663C168.527 236.811 135.833 242.779 135.516 242.832C135.463 242.885 135.357 242.885 135.304 242.885ZM134.776 232.427C133.35 233.325 132.611 234.276 132.558 235.332C132.452 237.233 134.459 239.293 135.621 240.297C139.952 239.399 169.425 232.533 192.03 207.444C192.347 207.075 192.928 206.916 193.404 207.127C195.833 208.025 198.58 206.652 202.647 202.585C202.752 202.48 202.858 202.427 202.964 202.374C205.763 200.895 206.819 199.839 207.136 199.363C206.555 199.416 205.446 199.891 203.756 200.789C203.386 201.001 203.069 201.159 202.858 201.265C202.33 201.476 201.749 201.318 201.379 200.895C201.009 200.42 201.009 199.839 201.379 199.363C201.485 199.205 201.485 199.205 203.386 197.673C204.654 196.67 206.344 195.244 206.819 194.821C207.4 194.293 207.453 193.817 207.4 193.765C207.4 193.765 207.136 193.712 206.766 193.976C205.393 194.821 202.752 196.775 201.59 197.62C201.273 197.884 201.062 197.99 201.009 198.043C200.534 198.36 199.847 198.307 199.425 197.884C199.002 197.462 198.949 196.828 199.266 196.3C199.53 195.93 204.178 191.018 204.231 190.965C204.865 190.331 204.812 189.751 204.707 189.645C204.601 189.539 204.126 189.592 203.439 190.279C202.699 191.018 201.749 192.022 200.851 192.92C198.844 195.032 198.474 195.349 198.21 195.508C197.84 195.772 197.312 195.772 196.942 195.508C196.52 195.244 196.309 194.821 196.361 194.346C196.361 193.976 196.467 193.87 197.365 192.127C197.84 191.177 198.474 190.015 198.897 189.117C199.214 188.483 199.214 188.008 199.161 187.849C198.95 187.902 198.527 188.166 198.052 188.905C196.414 191.229 192.347 196.511 192.189 196.722C191.925 197.092 191.449 197.251 190.974 197.198C190.499 197.092 190.129 196.775 190.023 196.353C189.812 195.613 189.073 193.923 188.228 193.501C188.069 193.395 187.911 193.395 187.752 193.448C187.277 193.923 187.541 197.092 188.65 200.472C188.808 200.895 188.703 201.318 188.439 201.634C188.175 201.793 169.319 224.61 134.776 232.427Z" fill="#1B1B1A"/>
<path d="M131.501 226.67C131.501 226.67 124.899 224.874 120.674 223.078C120.726 218.589 122.153 213.677 122.153 213.677L114.071 211.987C114.071 211.987 112.645 219.223 112.434 222.181C106.307 223.078 98.1734 223.712 98.1734 223.712C98.1734 223.712 92.0994 241.881 112.962 243.308C118.403 243.624 131.554 235.226 131.501 226.67Z" fill="#FFF7E2"/>
<path d="M113.28 244.522C113.121 244.522 112.963 244.522 112.857 244.522C105.991 244.047 101.132 241.776 98.438 237.762C94.3182 231.582 96.8535 223.659 97.0119 223.29C97.1704 222.814 97.5929 222.497 98.0683 222.445C98.1211 222.445 105.41 221.864 111.273 221.071C111.642 217.744 112.804 212.04 112.857 211.723C112.91 211.406 113.121 211.089 113.385 210.93C113.649 210.772 114.019 210.666 114.336 210.772L122.417 212.462C122.734 212.515 123.051 212.726 123.209 213.043C123.368 213.36 123.421 213.677 123.315 214.047C123.315 214.099 122.1 218.219 121.889 222.286C126.009 223.871 131.766 225.455 131.819 225.508C132.347 225.666 132.717 226.142 132.717 226.723C132.717 230.314 130.657 234.223 126.907 237.709C122.734 241.67 116.924 244.522 113.28 244.522ZM99.1246 224.874C98.6493 226.828 97.6985 232.269 100.498 236.388C102.769 239.716 106.942 241.617 113.016 242.04C115.551 242.198 120.991 239.874 125.269 235.86C128.174 233.114 129.917 230.209 130.234 227.568C128.227 226.987 123.526 225.614 120.199 224.188C119.723 223.976 119.407 223.554 119.459 223.026C119.512 219.751 120.199 216.371 120.674 214.575L115.075 213.413C114.653 215.578 113.861 220.068 113.702 222.18C113.649 222.761 113.227 223.237 112.646 223.342C107.681 224.082 101.396 224.663 99.1246 224.874Z" fill="#1B1B1A"/>
<path d="M129.125 225.719C132.294 227.251 143.068 224.135 150.569 226.195C149.935 230.948 142.752 289.576 151.678 302.199C139.952 317.358 78.8423 315.615 66.2717 307.164C68.807 300.984 69.2824 219.909 81.2191 223.395C87.9797 223.342 97.3284 223.765 100.497 223.395C96.8531 241.036 126.589 248.431 129.125 225.719Z" fill="#FFD800"/>
<path d="M105.357 314.822C87.5573 314.822 71.5536 312.182 65.5852 308.167C65.1099 307.85 64.8986 307.217 65.1098 306.688C65.7965 305.051 66.4303 295.914 67.0641 286.248C69.1768 255.456 71.6064 227.409 78.2086 222.761C79.1593 222.075 80.2685 221.864 81.3777 222.128C83.8073 222.128 86.6066 222.18 89.3003 222.233C94.001 222.339 98.4377 222.392 100.392 222.18C100.814 222.128 101.184 222.286 101.448 222.55C101.712 222.867 101.818 223.237 101.765 223.659C100.498 229.839 103.719 233.589 105.727 235.332C109.635 238.607 115.339 239.61 119.882 237.814C124.371 236.019 127.223 231.688 127.91 225.614C127.963 225.191 128.174 224.874 128.544 224.663C128.913 224.452 129.336 224.452 129.706 224.61C130.815 225.138 133.931 224.874 136.942 224.61C141.22 224.24 146.607 223.818 150.938 224.98C151.519 225.138 151.942 225.719 151.836 226.353C149.512 243.624 145.181 290.843 152.734 301.512C153.051 301.935 153.051 302.569 152.681 302.991C144.97 312.974 119.776 314.558 109.318 314.822C107.998 314.822 106.677 314.822 105.357 314.822ZM67.7507 306.583C74.3001 310.28 91.4129 312.71 109.265 312.287C129.547 311.865 144.706 308.062 150.146 302.093C142.012 288.097 148.192 235.438 149.195 227.093C145.445 226.353 140.85 226.723 137.1 227.04C134.248 227.304 131.871 227.462 130.128 227.251C129.072 233.536 125.744 238.026 120.727 240.033C115.392 242.198 108.684 241.036 104.089 237.181C100.339 234.012 98.5433 229.522 99.0187 224.716C96.6419 224.821 92.9975 224.769 89.1946 224.716C86.4481 224.663 83.6488 224.61 81.1664 224.61C81.0079 224.61 80.9023 224.61 80.7966 224.557C80.3741 224.452 80.0044 224.504 79.5819 224.821C73.4022 229.152 70.9198 265.015 69.4937 286.407C68.8071 297.34 68.3317 303.836 67.7507 306.583Z" fill="#1B1B1A"/>
<path d="M105.463 264.223C107.998 263.906 108.737 252.075 112.593 253.554C114.811 254.399 112.593 263.959 115.234 264.91C118.35 266.072 125.85 263.589 125.903 265.966C125.903 269.346 114.072 269.927 115.868 273.149C118.456 277.797 121.255 283.554 119.618 284.505C116.66 286.248 112.012 276.371 108.526 275.473C104.67 274.523 94.6877 284.664 94.2652 280.597C93.9483 277.692 102.663 272.463 101.396 270.086C99.0187 265.544 92.575 260.526 95.7969 260.103C99.0716 259.681 103.086 264.54 105.463 264.223Z" fill="#FFF7E2"/>
<path d="M118.878 285.931C116.765 285.931 114.653 283.396 112.645 280.914C111.167 279.171 109.371 276.952 108.262 276.688C106.941 276.371 103.561 278.484 101.343 279.91C98.1735 281.917 95.8495 283.343 94.265 282.604C93.8952 282.392 93.2086 281.917 93.103 280.755C92.8917 278.748 95.0045 276.635 97.2228 274.47C98.3848 273.308 100.339 271.406 100.339 270.72C99.4939 269.082 98.015 267.339 96.7474 265.808C94.6875 263.325 93.3143 261.688 93.8953 260.209C94.1065 259.734 94.5819 259.1 95.7439 258.941C97.9622 258.625 100.181 260.103 102.188 261.424C103.297 262.163 104.67 263.061 105.357 263.061C105.885 262.639 106.624 260.473 107.047 259.1C107.998 256.301 108.948 253.396 110.85 252.551C111.589 252.234 112.381 252.181 113.174 252.498C115.022 253.184 115.075 255.878 115.128 258.941C115.181 260.42 115.234 263.484 115.815 263.853C116.924 264.276 119.036 264.065 120.885 263.906C123.473 263.695 125.533 263.537 126.589 264.487C127.012 264.857 127.276 265.385 127.276 266.019C127.276 268.554 124.107 269.663 120.991 270.773C119.617 271.248 117.399 272.04 117.029 272.568C122.575 282.445 121.889 284.664 120.304 285.614C119.776 285.826 119.301 285.931 118.878 285.931ZM107.945 274.206C108.262 274.206 108.526 274.259 108.79 274.311C110.744 274.787 112.54 277.005 114.494 279.382C115.603 280.755 117.874 283.502 118.772 283.502C118.772 283.502 118.772 283.502 118.825 283.502C118.878 283.026 118.719 280.914 114.758 273.783C114.283 272.938 114.388 272.199 114.547 271.723C115.181 270.139 117.399 269.346 120.04 268.396C121.413 267.92 124.054 266.97 124.582 266.23C123.843 266.072 122.153 266.23 120.991 266.336C118.772 266.547 116.448 266.706 114.864 266.125C112.698 265.332 112.645 262.216 112.593 258.941C112.54 257.568 112.54 255.244 112.117 254.716C111.959 254.663 111.906 254.716 111.8 254.716C110.85 255.139 109.899 257.991 109.265 259.839C108.262 262.85 107.469 265.227 105.568 265.438C104.036 265.649 102.399 264.54 100.656 263.431C99.2299 262.48 97.5925 261.424 96.3249 261.318C96.7474 262.058 97.7509 263.22 98.4904 264.118C99.8636 265.755 101.448 267.656 102.399 269.505C103.455 271.512 101.29 273.678 98.8073 276.16C97.5925 277.375 95.5854 279.329 95.427 280.28C96.3777 280.016 98.4376 278.695 99.8637 277.797C102.769 276.002 105.726 274.206 107.945 274.206Z" fill="#1B1B1A"/>
<path d="M184.688 61.2456C185.903 40.7524 153.526 15.6641 120.093 28.2875C90.6733 39.3792 87.5043 26.2804 92.5219 15.8754C70.9196 25.8051 80.1098 42.6538 85.4972 44.1855C58.6659 43.763 45.62 49.4145 39.4931 81.9501C45.9369 74.0274 52.0109 77.8831 52.0109 77.8831C52.0109 77.8831 41.9227 80.0486 40.3382 106.299C38.1199 105.19 38.4368 101.809 38.4368 101.809C38.4368 101.809 25.1268 115.806 34.5283 134.398C45.0918 155.314 138.473 170.789 173.914 169.257C209.354 167.673 216.485 159.962 216.326 137.25C214.055 139.944 211.678 139.046 211.678 139.046C211.678 139.046 224.354 124.098 214.425 100.964C222.083 101.387 222.453 115.806 222.453 115.806C222.453 115.806 233.703 102.232 227.893 86.9677C220.552 67.7422 198.632 58.7104 184.688 61.2456Z" fill="#6300FF"/>
<path d="M168.473 170.578C149.512 170.578 120.251 166.986 94.5289 161.44C74.4582 157.109 39.8628 147.866 33.3135 134.926C23.6479 115.806 37.2747 101.07 37.4332 100.911C37.8029 100.542 38.3839 100.436 38.8593 100.647C39.1234 100.753 39.3346 100.964 39.4931 101.228C41.1832 86.4923 45.7783 80.5239 48.8417 78.1471C46.7819 77.9887 43.7185 78.6225 40.4438 82.6894C40.0741 83.112 39.4931 83.2704 38.9649 83.0063C38.4367 82.7423 38.1726 82.2141 38.2782 81.6331C44.2994 49.7841 57.1869 43.0763 81.5886 42.8122C79.5815 40.6467 77.9442 37.2664 77.6802 33.5692C77.3632 29.1325 78.7365 20.7345 91.9937 14.6077C92.469 14.3964 93.05 14.502 93.4197 14.8718C93.7895 15.2415 93.8951 15.8225 93.631 16.2978C91.7824 20.2063 90.7789 25.4353 93.5782 28.4987C95.6909 30.8226 101.923 33.7276 119.67 27.0198C136.677 20.5761 155.586 23.1641 170.164 33.9389C179.882 41.0692 185.798 50.8405 185.956 59.7138C201.115 57.8124 222.03 68.0062 229.055 86.4923C235.076 102.285 223.879 115.964 223.404 116.545C223.087 116.968 222.559 117.074 222.03 116.915C221.555 116.757 221.185 116.281 221.185 115.753C221.185 115.648 220.763 105.665 216.485 102.813C222.875 119.979 217.33 132.285 214.266 137.303C214.583 137.091 214.953 136.775 215.27 136.352C215.587 135.929 216.168 135.824 216.643 135.982C217.118 136.141 217.435 136.616 217.488 137.144C217.594 150.032 215.164 157.215 209.143 162.021C202.858 167.039 192.294 169.521 173.861 170.366C172.223 170.578 170.375 170.578 168.473 170.578ZM37.5389 104.82C34.3698 109.257 28.6655 120.243 35.5318 133.87C45.4615 153.465 136.572 169.68 173.755 168.042C191.66 167.25 201.748 164.926 207.611 160.226C212.576 156.264 214.742 150.296 215.006 139.891C212.999 140.894 211.308 140.261 211.203 140.261C210.833 140.102 210.569 139.785 210.463 139.415C210.358 139.046 210.463 138.623 210.727 138.306C211.203 137.725 222.77 123.623 213.316 101.492C213.157 101.123 213.21 100.647 213.421 100.278C213.685 99.9079 214.055 99.7495 214.477 99.7495C220.657 100.066 222.717 107.725 223.404 112.32C226.203 107.725 230.798 97.9537 226.784 87.443C219.918 69.4851 199.266 59.8723 184.952 62.4603C184.583 62.5132 184.213 62.4075 183.896 62.1434C183.632 61.8793 183.474 61.5096 183.474 61.1399C183.949 52.6891 178.298 43.0763 168.685 35.9988C154.741 25.7522 136.73 23.2697 120.515 29.3966C102.346 36.21 94.8458 33.622 91.7296 30.2417C89.1944 27.4952 88.6662 23.2169 90.1451 18.4633C83.226 22.4247 79.6872 27.6536 80.1626 33.5163C80.5323 38.534 83.7542 42.3897 85.8669 43.0235C86.4479 43.1819 86.8176 43.7629 86.7647 44.3967C86.6591 45.0306 86.1309 45.4531 85.5499 45.4531C60.5672 45.0834 47.9439 49.8369 41.6058 78.2528C47.5213 73.7105 52.6974 76.8267 52.7503 76.8795C53.1728 77.1436 53.3841 77.6718 53.3312 78.1471C53.2256 78.6225 52.8559 79.045 52.3806 79.1507C52.3277 79.1507 43.1903 81.7387 41.6586 106.404C41.6586 106.827 41.3945 107.197 41.0248 107.408C40.6551 107.619 40.2325 107.619 39.8628 107.461C38.5423 106.827 37.9086 105.823 37.5389 104.82Z" fill="#1B1B1A"/>
<path d="M178.984 63.6224C178.984 63.6224 189.283 37.6362 178.139 26.4389C198.104 29.027 197.259 46.2983 192.188 53.6399C208.667 42.7595 223.562 53.3758 224.248 59.5027C205.393 55.9111 190.657 67.7422 190.657 67.7422L178.984 63.6224Z" fill="#6300FF"/>
<path d="M190.656 69.0097C190.287 69.0097 189.917 68.8513 189.706 68.5344C189.283 68.0062 189.389 67.2139 189.917 66.7914C190.498 66.316 204.283 55.4884 222.453 57.9709C221.449 56.0694 219.125 53.7455 215.639 52.1609C212.312 50.5764 203.438 47.6714 192.875 54.6962C192.399 55.0131 191.713 54.9603 191.29 54.5377C190.868 54.1152 190.815 53.4814 191.132 52.9532C193.773 49.1503 195.146 42.3897 192.664 36.8439C190.762 32.5656 186.801 29.6079 181.097 28.2346C189.125 40.7523 180.463 63.0941 180.04 64.0977C179.776 64.7315 179.09 65.0484 178.456 64.7843C177.822 64.5202 177.505 63.8336 177.769 63.1998C177.875 62.9357 187.646 37.7946 177.188 27.3367C176.818 26.967 176.713 26.386 176.977 25.9106C177.188 25.4353 177.716 25.1712 178.244 25.224C188.702 26.5973 193.086 31.7734 194.935 35.8403C197.153 40.8052 196.678 46.2454 195.146 50.4708C205.128 45.5587 213.368 48.3052 216.696 49.8898C221.555 52.2137 225.094 56.0166 225.463 59.3969C225.516 59.7666 225.358 60.1892 225.093 60.4533C224.829 60.7174 224.407 60.823 224.037 60.7702C205.921 57.337 191.607 68.64 191.449 68.7456C191.185 68.9041 190.921 69.0097 190.656 69.0097Z" fill="#1B1B1A"/>
<path d="M192.769 164.873C184.847 205.648 147.716 226.617 108.42 219.011C69.1237 211.353 42.5565 178.025 50.532 137.25C58.4546 96.4747 96.4303 71.0167 135.727 78.6752C175.023 86.2809 200.692 124.045 192.769 164.873Z" fill="#FFF7E2"/>
<path d="M124.318 221.758C119.036 221.758 113.596 221.23 108.209 220.173C88.5077 216.37 71.6589 206.071 60.7785 191.229C49.5284 175.912 45.4614 156.634 49.3171 136.933C53.1728 116.968 64.3173 99.8551 80.6907 88.7106C96.9057 77.6189 116.554 73.6048 135.991 77.4076C155.427 81.1577 172.118 92.2494 182.998 108.623C193.984 125.049 197.893 145.12 193.984 165.085C190.129 184.786 179.142 201.159 163.033 211.142C151.677 218.166 138.315 221.758 124.318 221.758ZM121.73 78.5168C107.628 78.5168 93.9479 82.6894 82.0639 90.7705C66.2715 101.545 55.4967 118.13 51.7467 137.408C48.0494 156.423 51.958 175.014 62.7855 189.75C73.2962 204.064 89.6168 213.994 108.684 217.744C127.751 221.441 146.607 218.325 161.713 209.029C177.241 199.416 187.857 183.624 191.555 164.609C195.305 145.278 191.555 125.894 180.938 109.996C170.375 94.2036 154.265 83.4817 135.515 79.8372C130.92 78.9393 126.272 78.5168 121.73 78.5168Z" fill="#1B1B1A"/>
<path d="M189.864 164.609C189.864 164.609 192.453 156.528 202.699 157.004C213.527 157.532 215.428 172.215 208.351 179.557C201.273 186.898 189.389 185.103 186.801 177.972L189.864 164.609Z" fill="#FFF7E2"/>
<path d="M197.417 185.525C196.361 185.525 195.252 185.42 194.195 185.208C190.076 184.31 186.907 181.775 185.639 178.395C185.428 177.761 185.745 177.022 186.379 176.81C187.012 176.599 187.752 176.916 187.963 177.55C188.914 180.138 191.343 182.039 194.671 182.779C198.21 183.518 203.439 182.884 207.453 178.712C211.097 174.962 212.312 168.729 210.411 163.923C209.037 160.437 206.291 158.43 202.646 158.271C193.509 157.796 191.132 164.715 191.026 165.032C190.815 165.666 190.129 166.036 189.495 165.824C188.861 165.613 188.491 164.926 188.702 164.293C188.755 164.187 191.713 155.261 202.805 155.842C207.4 156.053 211.044 158.694 212.787 163.078C215.058 168.729 213.58 176.071 209.301 180.508C206.132 183.729 201.801 185.525 197.417 185.525Z" fill="#1B1B1A"/>
<path d="M198.368 177.761C195.727 168.518 199.847 166.141 204.178 171.053C204.547 168.254 203.121 166.194 198.896 165.824C199.794 162.18 204.23 160.965 204.23 160.965C197.47 158.694 189.97 169.997 198.368 177.761Z" fill="#FFF7E2"/>
<path d="M198.368 179.029C197.84 179.029 197.311 178.659 197.153 178.131C195.621 172.796 196.097 169.046 198.473 167.726C199.054 167.409 199.741 167.25 200.428 167.356C199.952 167.25 199.371 167.145 198.79 167.092C198.421 167.039 198.104 166.881 197.892 166.564C197.681 166.247 197.628 165.877 197.681 165.56C198.738 161.229 203.702 159.856 203.914 159.803C204.548 159.645 205.234 160.014 205.445 160.648C205.604 161.335 205.234 161.969 204.547 162.18C204.495 162.18 201.907 162.919 200.639 164.874C202.276 165.243 203.544 165.93 204.389 166.986C205.287 168.095 205.657 169.574 205.393 171.264C205.34 171.74 204.97 172.162 204.547 172.268C204.072 172.426 203.597 172.268 203.28 171.898C201.695 170.103 200.322 169.627 199.688 169.944C199.002 170.314 198.104 172.374 199.583 177.497C199.794 178.131 199.371 178.817 198.738 179.029C198.579 179.029 198.474 179.029 198.368 179.029Z" fill="#1B1B1A"/>
<path d="M52.8559 137.989C52.8559 137.989 53.4896 129.539 43.7712 126.105C33.5246 122.567 26.2886 135.401 30.0915 144.909C33.8943 154.416 45.567 157.162 50.6903 151.511L52.8559 137.989Z" fill="#FFF7E2"/>
<path d="M43.5601 155.683C42.7678 155.683 41.9756 155.63 41.1305 155.472C35.7431 154.521 31.0424 150.666 28.9297 145.437C26.6585 139.732 28.0318 132.391 32.2572 127.954C35.4791 124.574 39.8629 123.465 44.194 124.996C54.7046 128.641 54.0708 138.042 54.0708 138.148C54.018 138.834 53.437 139.363 52.7504 139.31C52.0637 139.257 51.5356 138.676 51.5884 137.989C51.5884 137.672 52.011 130.384 43.3489 127.373C39.9157 126.158 36.5882 127.003 34.0001 129.697C30.4086 133.447 29.2466 139.679 31.2009 144.539C33.3664 149.873 37.9615 152.461 41.5003 153.095C44.8278 153.676 47.8384 152.831 49.687 150.771C50.1623 150.243 50.9546 150.243 51.4299 150.666C51.9581 151.141 51.9581 151.88 51.5356 152.408C49.6342 154.521 46.782 155.683 43.5601 155.683Z" fill="#1B1B1A"/>
<path d="M40.0738 147.021C45.9894 139.468 43.0844 135.718 37.2217 138.623C37.9083 135.877 40.021 134.503 44.088 135.771C44.6161 132.021 40.9718 129.274 40.9718 129.274C48.0493 129.644 50.7958 142.954 40.0738 147.021Z" fill="#FFF7E2"/>
<path d="M40.074 148.289C39.8099 148.289 39.5458 148.183 39.3345 148.025C38.8064 147.602 38.7008 146.81 39.1233 146.282C42.398 142.056 42.3452 139.838 41.8698 139.257C41.4473 138.729 40.0212 138.676 37.8557 139.732C37.4332 139.944 36.905 139.891 36.5353 139.574C36.1655 139.257 36.0071 138.782 36.1127 138.306C36.5352 136.616 37.3803 135.401 38.648 134.715C39.8099 134.081 41.1832 133.87 42.8734 134.187C42.398 131.915 40.2853 130.278 40.2853 130.225C39.7571 129.803 39.6515 129.01 40.074 128.482C40.4965 127.954 41.2888 127.848 41.817 128.271C41.9755 128.377 46.0424 131.546 45.4086 135.93C45.3557 136.299 45.1445 136.616 44.8276 136.827C44.5107 137.039 44.141 137.091 43.7712 136.986C43.1902 136.827 42.6621 136.669 42.1339 136.616C42.8205 136.827 43.3487 137.197 43.7712 137.725C45.4614 139.785 44.4579 143.482 41.0775 147.866C40.8135 148.13 40.4437 148.289 40.074 148.289Z" fill="#1B1B1A"/>
<path d="M125.691 138.042C125.797 142.426 115.55 149.398 120.621 153.834C123.737 156.581 129.441 154.732 128.279 148.236C127.54 144.486 125.691 138.042 125.691 138.042Z" fill="#FFF7E2"/>
<path d="M123.843 156.317C122.417 156.317 120.938 155.789 119.776 154.785C115.815 151.299 119.036 146.863 121.625 143.271C122.998 141.37 124.424 139.363 124.424 138.095C124.424 137.461 124.846 136.933 125.48 136.827C126.114 136.722 126.695 137.091 126.853 137.725C126.906 137.989 128.755 144.275 129.442 148.077C130.075 151.458 129.019 154.31 126.642 155.63C125.797 156.106 124.794 156.317 123.843 156.317ZM125.48 142.056C124.952 142.954 124.318 143.852 123.632 144.75C120.832 148.606 119.301 151.088 121.413 152.937C122.522 153.94 124.213 154.151 125.427 153.465C126.853 152.673 127.434 150.824 127.012 148.5C126.695 146.651 126.061 144.116 125.48 142.056Z" fill="#1B1B1A"/>
<path d="M172.012 129.327C165.621 124.996 161.607 132.285 166.255 133.817C171.273 135.454 174.864 138.676 175.656 138.412C177.399 137.831 175.603 131.757 172.012 129.327Z" fill="#FFF7E2"/>
<path d="M175.551 139.68C174.811 139.68 173.966 139.151 172.593 138.359C170.903 137.356 168.632 135.929 165.885 135.032C164.248 134.503 163.191 133.289 163.033 131.81C162.874 130.172 163.719 128.482 165.304 127.584C166.308 127.003 169.001 125.841 172.698 128.377C175.815 130.489 177.875 135.084 177.505 137.62C177.346 138.993 176.501 139.521 176.026 139.68C175.92 139.68 175.709 139.68 175.551 139.68ZM168.156 129.222C167.575 129.222 167.047 129.38 166.572 129.644C165.832 130.067 165.41 130.806 165.462 131.493C165.515 132.179 166.149 132.496 166.624 132.655C169.635 133.658 172.17 135.19 173.86 136.194C174.23 136.458 174.706 136.722 175.075 136.933C175.022 135.507 173.755 132.021 171.272 130.384C170.216 129.591 169.107 129.222 168.156 129.222Z" fill="#1B1B1A"/>
<path d="M88.4022 113.799C96.1136 113.429 95.7439 121.721 90.9903 120.612C85.867 119.45 81.1134 120.295 80.5853 119.662C79.4233 118.235 84.0712 113.957 88.4022 113.799Z" fill="#FFF7E2"/>
<path d="M91.8351 121.933C91.4654 121.933 91.0957 121.88 90.7259 121.827C87.9266 121.193 85.2329 121.193 83.2787 121.193C81.2716 121.193 80.2681 121.193 79.6871 120.454C79.3702 120.084 78.9476 119.239 79.4758 117.972C80.5321 115.595 84.6519 112.743 88.402 112.584C92.8386 112.373 94.5816 114.75 95.1626 115.753C96.0077 117.391 95.9021 119.239 94.8985 120.56C94.1063 121.457 93.0499 121.933 91.8351 121.933ZM83.49 118.711C85.4442 118.711 88.2963 118.764 91.2541 119.398C91.7823 119.503 92.4689 119.556 92.8386 118.975C93.2612 118.447 93.2612 117.602 92.8914 116.81C92.2048 115.542 90.6203 114.855 88.4548 114.961C85.4442 115.119 82.592 117.443 81.7998 118.605C82.2223 118.605 82.7505 118.605 83.173 118.605C83.3315 118.711 83.3843 118.711 83.49 118.711Z" fill="#1B1B1A"/>
<path d="M170.375 157.479C170.322 157.954 168.632 146.916 158.966 145.437C149.935 144.063 144.389 153.94 144.494 153.465C145.604 146.282 171.484 150.243 170.375 157.479Z" fill="#FFF7E2"/>
<path d="M170.322 158.747C169.371 158.747 169.16 157.849 169.002 157.479C167.259 151.194 163.72 147.444 158.755 146.704C155.586 146.229 150.727 147.074 145.762 153.887C145.445 154.31 144.917 155.049 143.966 154.68C143.438 154.468 143.121 153.887 143.227 153.306C143.28 152.99 143.438 152.725 143.649 152.567C143.702 152.514 143.702 152.461 143.755 152.409C149.459 144.592 155.269 143.641 159.125 144.275C165.04 145.173 169.371 149.662 171.378 156.845C171.378 156.898 171.379 156.951 171.431 156.951C171.537 157.162 171.59 157.426 171.537 157.69C171.431 158.271 170.956 158.694 170.375 158.747C170.375 158.747 170.375 158.747 170.322 158.747Z" fill="#1B1B1A"/>
<path d="M101.078 144.38C101.025 144.856 99.3351 133.87 89.6695 132.338C80.6377 130.965 75.0919 140.842 75.1975 140.366C76.3067 133.13 102.187 137.144 101.078 144.38Z" fill="#FFF7E2"/>
<path d="M101.078 145.595C100.128 145.595 99.9164 144.697 99.8108 144.327C98.0678 138.042 94.5291 134.292 89.5642 133.553C86.3952 133.077 81.5359 133.922 76.5711 140.736C76.2542 141.158 75.726 141.898 74.7753 141.528C74.2471 141.317 73.9302 140.736 74.0359 140.155C74.0887 139.838 74.2471 139.627 74.4584 139.415C74.5112 139.363 74.5112 139.31 74.564 139.257C80.2683 131.44 86.0782 130.489 89.9339 131.07C95.8495 131.968 100.233 136.458 102.188 143.641C102.188 143.694 102.188 143.694 102.24 143.746C102.346 143.958 102.399 144.222 102.346 144.486C102.24 145.067 101.765 145.542 101.184 145.542C101.131 145.595 101.078 145.595 101.078 145.595Z" fill="#1B1B1A"/>
<path d="M100.814 161.229C107.205 156.634 107.152 165.983 118.666 168.307C130.392 170.683 134.142 161.704 138.156 170.155C141.431 177.021 129.969 209.768 110.849 205.437C91.5181 201.001 94.74 165.613 100.814 161.229Z" fill="#FFF7E2"/>
<path d="M114.283 207.075C113.068 207.075 111.8 206.916 110.533 206.652C103.032 204.962 97.8035 198.518 95.7964 188.536C93.5253 177.444 95.6908 163.447 100.128 160.278C104.353 157.268 106.624 159.38 109.106 161.704C111.219 163.659 113.86 166.141 118.931 167.197C123.843 168.201 127.223 167.092 129.917 166.194C133.35 165.085 136.572 164.028 139.265 169.68C141.536 174.433 137.786 188.747 130.339 198.043C125.533 203.958 120.04 207.075 114.283 207.075ZM101.554 162.233C98.5958 164.345 95.9549 176.757 98.226 188.008C99.4937 194.346 102.768 202.321 111.114 204.223C118.878 205.965 124.793 200.948 128.438 196.458C135.515 187.585 138.79 174.328 137.047 170.683C135.304 166.986 134.142 167.356 130.709 168.465C127.857 169.416 124.001 170.683 118.455 169.521C112.698 168.359 109.635 165.507 107.416 163.447C104.934 161.176 104.089 160.384 101.554 162.233Z" fill="#1B1B1A"/>
<path d="M125.638 201.159C121.518 204.751 116.501 206.705 110.849 205.437C105.515 204.223 101.923 200.684 99.5991 196.036C103.244 194.874 107.891 194.557 113.543 195.719C118.93 196.828 122.839 198.782 125.638 201.159Z" fill="#FFF7E2"/>
<path d="M114.23 207.075C113.015 207.075 111.747 206.916 110.533 206.652C105.251 205.437 101.184 202.057 98.4902 196.617C98.3317 196.3 98.3318 195.93 98.4374 195.56C98.5958 195.244 98.8599 194.98 99.2297 194.874C103.508 193.553 108.42 193.395 113.807 194.504C118.983 195.56 123.209 197.515 126.431 200.208C126.695 200.42 126.853 200.789 126.853 201.159C126.853 201.529 126.695 201.846 126.431 202.11C122.628 205.385 118.455 207.075 114.23 207.075ZM101.395 196.828C103.719 200.842 106.994 203.325 111.061 204.223C115.445 205.226 119.617 204.17 123.631 201.159C120.885 199.205 117.452 197.726 113.279 196.881C108.948 196.036 104.934 195.983 101.395 196.828Z" fill="#1B1B1A"/>
<path d="M103.032 160.12C107.416 158.958 108.631 166.3 118.666 168.359C128.807 170.419 132.927 164.028 136.466 167.62C131.66 174.275 124.952 179.081 116.818 177.233C108.79 175.384 104.67 168.201 103.032 160.12Z" fill="#FFF7E2"/>
<path d="M120.251 178.817C119.036 178.817 117.822 178.659 116.554 178.395C109.054 176.705 103.825 170.261 101.818 160.331C101.712 159.697 102.082 159.064 102.716 158.905C105.357 158.218 107.152 159.856 109.054 161.652C111.167 163.606 113.807 166.088 118.878 167.145C123.79 168.148 127.17 167.039 129.864 166.141C132.558 165.296 135.04 164.451 137.311 166.722C137.734 167.145 137.787 167.831 137.417 168.307C132.505 175.226 126.484 178.817 120.251 178.817ZM104.564 161.335C106.043 167.356 109.424 174.275 117.082 176.018C124.899 177.814 130.867 172.796 134.67 167.884C133.825 167.567 132.716 167.831 130.603 168.518C127.751 169.469 123.896 170.683 118.35 169.574C112.593 168.412 109.529 165.56 107.311 163.5C106.149 162.338 105.357 161.599 104.564 161.335Z" fill="#1B1B1A"/>
<path d="M91.2541 72.1259C72.3982 75.9287 61.6235 98.0593 75.8842 108.57C77.099 92.4078 101.342 90.8233 101.342 90.8233C101.342 90.8233 94.8457 125.049 125.797 127.267C118.138 122.197 119.406 108.306 153.896 108.464C156.642 113.059 148.139 119.662 143.966 120.243C157.329 124.151 178.297 111.739 178.984 100.964C186.484 114.221 180.674 125.366 180.674 125.366C180.674 125.366 199.953 118.869 199.583 104.873C199.002 84.0098 168.896 74.9252 143.015 70.0132C117.135 65.154 106.413 69.0625 91.2541 72.1259Z" fill="#6300FF"/>
<path d="M125.85 128.535C125.797 128.535 125.797 128.535 125.744 128.535C116.871 127.901 110.11 124.627 105.621 118.817C98.4902 109.574 99.3353 96.7389 99.9163 92.2494C94.6873 92.936 78.1027 96.0523 77.1519 108.676C77.0991 109.151 76.835 109.521 76.4125 109.732C75.9899 109.943 75.5146 109.89 75.1448 109.626C69.3877 105.401 67.0109 98.8516 68.5955 91.7212C70.8138 81.6859 80.0569 73.1295 91.0429 70.9111C91.7295 70.7527 92.3634 71.228 92.5218 71.8619C92.6803 72.5485 92.2049 73.1823 91.5711 73.3407C81.5358 75.3478 73.085 83.112 71.0779 92.2494C69.8631 97.7424 71.2892 102.602 75.0392 106.246C78.2083 91.3515 100.339 89.7142 101.342 89.6614C101.712 89.6614 102.082 89.767 102.346 90.0839C102.61 90.348 102.716 90.7705 102.61 91.1402C102.557 91.2987 99.705 107.144 107.628 117.391C111.061 121.827 115.973 124.574 122.364 125.683C120.885 123.57 120.409 121.088 121.149 118.658C122.205 115.225 127.434 107.302 153.368 107.302C153.579 107.302 153.79 107.302 154.001 107.302C154.424 107.302 154.846 107.514 155.058 107.883C156.008 109.468 156.008 111.369 155.058 113.324C153.843 115.806 151.255 118.183 148.667 119.715C155.586 119.979 163.403 116.862 168.843 113.007C174.23 109.204 177.558 104.662 177.822 100.859C177.875 100.33 178.245 99.8551 178.773 99.7495C179.301 99.6438 179.882 99.8551 180.146 100.33C185.692 110.155 184.266 118.817 182.945 123.095C188.016 120.824 198.685 114.802 198.421 104.873C198.421 104.186 198.949 103.605 199.636 103.605C199.636 103.605 199.636 103.605 199.689 103.605C200.375 103.605 200.903 104.133 200.903 104.82C201.326 119.556 181.942 126.211 181.15 126.528C180.674 126.686 180.146 126.528 179.829 126.158C179.512 125.789 179.459 125.208 179.671 124.785C179.882 124.415 184.266 115.648 179.512 104.556C178.086 108.147 174.864 111.845 170.322 115.067C163.773 119.662 152.892 124.098 143.755 121.457C143.174 121.299 142.804 120.771 142.857 120.19C142.91 119.609 143.332 119.134 143.913 119.028C146.607 118.658 151.36 115.383 152.892 112.267C153.368 111.317 153.473 110.471 153.262 109.732C128.438 109.785 124.265 117.074 123.578 119.345C122.839 121.88 124.001 124.521 126.642 126.264C127.117 126.581 127.329 127.162 127.117 127.69C126.853 128.218 126.378 128.535 125.85 128.535Z" fill="#1B1B1A"/>
<path d="M308.5 354.032C275.819 334.971 226.755 340.405 216.725 381.704C196.247 334.218 129.379 352.945 152.95 405.697C71.5391 335.389 -35.1142 451.426 23.2275 500.5H308.5V354.032Z" fill="white"/>
<path d="M23.1866 502.5C22.7685 502.5 22.2667 502.333 21.9322 501.998C7.88212 490.212 2.02798 473.494 5.45686 454.853C10.7256 425.93 36.4839 397.927 68.0965 386.725C96.0293 376.861 124.38 381.459 148.55 399.598C144.284 386.307 145.539 374.354 152.062 365.409C158.836 356.131 170.796 351.282 183.34 352.703C197.223 354.292 209.015 362.734 216.291 376.193C220.974 362.4 230.425 352.202 243.973 346.434C263.459 338.158 289.217 340.415 309.54 352.285C310.46 352.871 310.794 354.041 310.209 354.96C309.623 355.88 308.453 356.214 307.533 355.629C288.214 344.428 263.794 342.171 245.478 350.028C231.596 355.963 222.312 367.081 218.633 382.044C218.465 382.88 217.713 383.465 216.877 383.549C216.04 383.632 215.204 383.131 214.869 382.378C208.43 367.499 196.805 358.137 182.755 356.549C171.632 355.295 161.011 359.558 155.073 367.666C148.215 377.029 148.048 390.236 154.571 404.865C154.906 405.701 154.655 406.704 153.986 407.205C153.233 407.79 152.23 407.707 151.56 407.122C127.307 386.14 98.0366 380.205 69.2675 390.403C39.4112 400.936 14.1544 428.27 9.13655 455.521C6.96214 467.642 7.7149 485.029 24.2739 498.906C25.1102 499.574 25.1939 500.828 24.5248 501.664C24.2739 502.333 23.6884 502.5 23.1866 502.5Z" fill="#313131"/>
</svg>
