<svg width="206" height="359" viewBox="0 0 206 359" fill="none" xmlns="http://www.w3.org/2000/svg">
<path d="M81.9304 334.045C85.6804 332.777 89.6945 329.925 92.5467 327.495C95.927 328.921 96.508 332.249 95.7157 335.365C90.6452 341.175 83.8318 343.076 83.8318 343.076L81.9304 334.045Z" fill="#FFF7E2"/>
<path d="M83.8318 344.344C83.6205 344.344 83.4093 344.291 83.198 344.186C82.8811 344.027 82.7226 343.71 82.617 343.393L80.7156 334.362C80.61 333.728 80.9269 333.147 81.5079 332.935C84.5185 331.932 88.3213 329.555 91.7016 326.597C92.0713 326.28 92.5467 326.228 92.9692 326.386C96.4552 327.865 97.9869 331.404 96.8777 335.682C96.8249 335.893 96.7193 336.052 96.6136 336.21C91.3847 342.231 84.4128 344.238 84.0959 344.344C84.043 344.291 83.9374 344.344 83.8318 344.344ZM83.3565 334.837L84.7825 341.439C86.8952 340.647 91.1734 338.587 94.6066 334.731C94.9235 333.252 95.1875 330.4 92.7579 328.921C90.8037 330.559 87.2121 333.305 83.3565 334.837Z" fill="#1B1B1A"/>
<path d="M90.6456 328.974C89.6949 327.706 90.3816 325.911 92.864 324.907C95.3464 323.851 95.5576 321.157 98.0929 320.154C100.628 319.15 108.287 320.576 110.663 329.661C113.04 338.798 111.35 352.214 107.125 356.756C102.899 361.298 92.864 355.964 91.0682 352.161C89.2196 348.358 92.1245 338.904 92.1245 338.904C92.1245 338.904 96.4027 335.735 94.3957 331.562C93.0752 328.816 90.6456 328.974 90.6456 328.974Z" fill="#1B1B1A"/>
<path d="M140.823 307.583C142.407 303.992 143.041 299.08 143.147 295.329C146.474 293.798 149.326 295.594 151.069 298.287C151.967 305.946 148.745 312.284 148.745 312.284L140.823 307.583Z" fill="#FFF7E2"/>
<path d="M148.798 313.499C148.587 313.499 148.375 313.446 148.164 313.34L140.189 308.639C139.66 308.323 139.449 307.636 139.66 307.055C141.509 302.882 141.826 297.389 141.879 295.224C141.879 294.748 142.196 294.326 142.618 294.115C146.104 292.477 149.696 293.745 152.125 297.548C152.231 297.706 152.284 297.865 152.337 298.076C153.287 305.999 150.013 312.495 149.907 312.759C149.749 313.076 149.484 313.287 149.168 313.393C149.009 313.446 148.903 313.499 148.798 313.499ZM142.354 307.055L148.164 310.488C148.956 308.375 150.382 303.833 149.854 298.71C148.851 297.284 146.949 295.382 144.308 296.174C144.256 298.604 143.833 303.146 142.354 307.055Z" fill="#1B1B1A"/>
<path d="M142.724 296.491C141.139 296.386 140.294 294.643 141.192 292.107C142.09 289.572 140.241 287.565 141.245 285.03C142.248 282.495 148.375 277.794 156.72 282.178C165.066 286.614 172.46 299.66 172.935 305.787C173.464 311.967 164.168 313.023 160.101 311.808C156.034 310.594 151.069 302.09 151.069 302.09C151.069 302.09 151.597 296.808 147.161 295.435C144.256 294.643 142.724 296.491 142.724 296.491Z" fill="#1B1B1A"/>
<path d="M53.3035 291.79C48.3914 305.523 40.4688 345.453 48.6027 351.052C56.7366 356.597 87.8461 345.242 87.8461 345.242C87.8461 345.242 90.2757 334.625 83.4095 330.294C78.7615 332.83 71.5783 335.365 71.5783 335.365C71.5783 335.365 72.7403 323.534 80.1876 315.981C87.6877 316.562 92.6525 314.66 92.6525 314.66C92.6525 314.66 110.241 334.52 128.304 336.316C146.421 338.111 152.97 311.861 152.97 311.861C152.97 311.861 150.593 301.879 139.343 300.083C136.544 305.417 133.164 309.484 133.164 309.484C133.164 309.484 124.396 303.938 120.593 291.474C85.7863 302.248 53.3035 291.79 53.3035 291.79Z" fill="#FFF7E2"/>
<path d="M55.7864 353.798C52.5117 353.798 49.7652 353.323 47.9165 352.055C38.6735 345.717 47.4412 304.467 52.1419 291.368C52.3532 290.734 53.0399 290.417 53.6737 290.628C53.9906 290.734 86.2092 300.822 120.277 290.259C120.593 290.153 120.91 290.206 121.227 290.364C121.544 290.523 121.755 290.787 121.808 291.104C124.713 300.611 130.682 305.998 132.953 307.794C134.062 306.315 136.333 303.252 138.287 299.555C138.551 299.079 139.08 298.815 139.608 298.921C151.492 300.822 154.133 311.174 154.238 311.65C154.291 311.861 154.291 312.02 154.238 312.231C153.974 313.287 147.636 337.689 130.153 337.689C129.52 337.689 128.886 337.636 128.252 337.583C111.509 335.946 95.558 319.572 92.3361 316.139C90.646 316.668 86.4205 317.671 80.7691 317.301C75.8042 322.583 73.8499 329.978 73.2161 333.516C75.6457 332.566 79.8712 330.928 82.8818 329.291C83.2515 329.08 83.7269 329.08 84.1494 329.344C91.7023 334.097 89.2727 345.136 89.1671 345.611C89.0614 346.034 88.7973 346.351 88.3748 346.509C85.7339 347.302 67.5647 353.798 55.7864 353.798ZM54.0962 293.322C49.0257 308.375 42.4236 345.295 49.3427 350.048C55.4167 354.221 77.8113 347.566 86.7903 344.344C87.16 342.178 87.8466 335.206 83.3571 331.773C78.7092 334.203 72.3183 336.421 72.0542 336.527C71.6316 336.685 71.2091 336.58 70.8922 336.316C70.5752 336.052 70.364 335.629 70.4168 335.206C70.4697 334.678 71.7373 322.847 79.3958 315.083C79.6599 314.819 80.0296 314.713 80.3465 314.713C87.424 315.241 92.2304 313.498 92.2832 313.498C92.7586 313.34 93.2868 313.446 93.6565 313.815C93.815 314.027 111.139 333.305 128.516 335.048C144.309 336.633 150.964 314.713 151.756 311.861C151.28 310.329 148.745 303.252 140.083 301.456C137.389 306.421 134.326 310.065 134.168 310.224C133.745 310.699 133.058 310.805 132.53 310.488C132.16 310.277 123.868 304.889 119.801 292.952C89.1142 302.09 60.1702 295.012 54.0962 293.322Z" fill="#1B1B1A"/>
<path d="M65.7155 224.448C65.7155 224.448 39.9406 224.343 15.4861 180.715C11.9473 181.296 9.09512 178.444 6.03171 173.955C2.86266 171.419 1.17249 169.201 2.38729 168.198C3.65491 167.141 6.92962 170.257 7.82752 170.891C7.7747 170.733 4.18308 166.507 3.44364 165.557C1.75348 163.286 3.76056 161.384 5.50353 163.074C7.03524 164.5 10.2571 168.039 10.4155 168.198C10.3099 167.986 7.24649 163.074 6.66549 162.176C4.97533 159.536 7.61625 157.317 9.67613 160.275C11.0494 162.282 13.3205 165.926 13.5846 166.19C13.6374 165.979 12.5811 162.916 12.1057 161.067C11.3135 158.004 13.8487 156.895 15.3276 160.222C16.4896 162.863 19.553 168.99 19.553 168.99C19.553 168.99 21.7185 164.817 24.0425 166.032C26.3664 167.3 22.2995 174.483 22.2995 174.483C22.2995 174.483 33.7081 207.018 68.6204 214.519C75.0114 220.064 65.7155 224.448 65.7155 224.448Z" fill="#FFF7E2"/>
<path d="M65.7156 225.663C65.4515 225.663 58.8493 225.557 49.1309 220.012C40.416 214.994 27.4229 204.325 14.7467 182.036C10.6798 182.194 7.56352 178.55 5.0811 174.8C0.750066 171.314 0.750092 169.624 0.750092 169.043C0.750092 168.303 1.06698 167.669 1.59516 167.247C1.96488 166.93 2.38745 166.772 2.80999 166.772C2.65153 166.56 2.54586 166.402 2.44023 166.296C1.06697 164.448 1.48951 162.652 2.44023 161.807C3.07404 161.278 4.02476 161.014 5.0283 161.331C4.71139 159.905 5.29236 158.69 6.19026 158.057C7.35224 157.264 9.25372 157.423 10.7326 159.588C10.7326 159.641 10.7854 159.641 10.7854 159.694C10.8911 158.268 11.6305 157.37 12.5284 157.053C13.6375 156.683 15.3806 157.106 16.5425 159.694C17.282 161.331 18.8137 164.5 19.8172 166.507C20.451 165.768 21.2961 164.976 22.2996 164.659C23.1447 164.395 23.9369 164.5 24.6764 164.87C25.2574 165.187 25.6799 165.715 25.8912 166.455C26.5778 168.779 24.5708 172.898 23.7257 174.483C24.4651 176.384 27.4229 183.356 33.4441 190.909C39.8879 198.99 51.2964 209.448 68.8847 213.198C69.0959 213.251 69.3072 213.357 69.4656 213.462C71.4727 215.258 72.3178 217.159 72.0537 219.114C71.4727 223.022 66.4551 225.399 66.2438 225.505C66.0853 225.61 65.8741 225.663 65.7156 225.663ZM15.4862 179.501C15.9087 179.501 16.3313 179.712 16.5425 180.134C39.0428 220.223 62.6522 223.022 65.4515 223.181C66.7191 222.494 69.36 220.804 69.6241 218.797C69.7826 217.793 69.2544 216.684 68.0924 215.575C49.9232 211.561 38.1449 200.786 31.4899 192.388C24.201 183.251 21.3489 175.17 21.2432 174.8C21.1376 174.483 21.1376 174.113 21.3489 173.796C23.0919 170.733 23.9369 167.617 23.5672 167.036C23.4088 166.983 23.3031 166.93 23.0919 167.036C22.194 167.3 21.1905 168.831 20.8207 169.518C20.6095 169.941 20.1869 170.205 19.7116 170.205C19.2362 170.205 18.8136 169.941 18.6024 169.518C18.4967 169.254 15.4861 163.338 14.3242 160.698C13.9544 159.852 13.5847 159.536 13.4263 159.43C13.3735 159.588 13.2678 160.011 13.4791 160.75C13.6904 161.701 14.1129 162.969 14.377 163.972C14.958 165.821 15.0108 166.032 14.958 166.402C14.9052 166.824 14.5883 167.247 14.1657 167.353C13.7432 167.511 13.2678 167.405 12.8981 167.088C12.634 166.877 12.37 166.455 10.7326 163.919C10.046 162.863 9.35932 161.754 8.77833 160.962C8.25015 160.222 7.77481 160.011 7.66917 160.117C7.51072 160.222 7.4051 160.75 7.88045 161.49C8.19736 161.965 11.5248 167.247 11.6833 167.669C11.9474 168.198 11.7361 168.884 11.2608 169.201C10.7854 169.571 10.0988 169.465 9.67626 169.043C9.62344 168.99 9.46499 168.831 9.14809 168.514C8.19737 167.458 5.92619 165.081 4.76421 163.972C4.4473 163.655 4.23605 163.655 4.18323 163.655C4.13041 163.708 4.02475 164.131 4.55293 164.817C4.97547 165.398 6.40154 167.088 7.45789 168.356C8.93678 170.152 8.93678 170.152 9.04241 170.363C9.3065 170.891 9.14806 171.472 8.72552 171.842C8.30298 172.212 7.66916 172.212 7.1938 171.895C7.03535 171.789 6.77125 171.578 6.45434 171.314C4.97545 170.099 3.91914 169.412 3.39097 169.254C3.60224 169.782 4.39449 170.997 6.87691 173.004C6.98254 173.057 7.03536 173.162 7.141 173.268C10.3629 178.074 12.7925 179.923 15.3805 179.501C15.3277 179.501 15.3806 179.501 15.4862 179.501Z" fill="#1B1B1A"/>
<path d="M109.554 227.67C109.554 227.67 142.301 221.966 167.231 194.342C170.611 195.557 173.939 193.339 177.794 189.536C181.333 187.635 183.446 185.733 182.442 184.518C181.386 183.251 177.636 185.68 176.58 186.103C176.685 185.944 181.016 182.511 181.914 181.666C183.974 179.765 182.442 177.546 180.33 178.867C178.587 179.976 174.731 182.828 174.52 182.934C174.678 182.722 178.587 178.55 179.326 177.758C181.492 175.486 179.273 172.793 176.738 175.328C174.995 177.071 172.09 180.187 171.773 180.399C171.773 180.187 173.358 177.388 174.203 175.645C175.523 172.74 173.252 171.208 171.192 174.219C169.555 176.543 165.382 182.036 165.382 182.036C165.382 182.036 164.009 177.546 161.527 178.286C159.044 179.078 161.632 186.895 161.632 186.895C161.632 186.895 143.199 209.607 108.551 217.371C101.262 221.596 109.554 227.67 109.554 227.67Z" fill="#FFF7E2"/>
<path d="M109.554 228.885C109.29 228.885 109.026 228.779 108.815 228.621C108.604 228.462 104.114 225.135 104.325 221.226C104.431 219.219 105.646 217.529 107.917 216.156C108.023 216.103 108.128 216.05 108.287 215.997C139.291 209.078 157.301 189.8 160.259 186.472C159.731 184.624 158.622 180.346 159.678 178.233C159.995 177.599 160.523 177.124 161.157 176.965C161.949 176.701 162.794 176.807 163.534 177.177C164.432 177.652 165.118 178.603 165.647 179.448C167.02 177.652 169.133 174.853 170.136 173.374C171.721 171.05 173.516 170.944 174.573 171.525C175.418 172 175.946 173.004 175.788 174.43C175.84 174.377 175.84 174.377 175.893 174.324C177.742 172.476 179.643 172.74 180.647 173.691C181.439 174.483 181.756 175.803 181.175 177.124C182.231 176.965 183.129 177.441 183.605 178.074C184.397 179.078 184.45 180.874 182.759 182.458C182.654 182.564 182.495 182.722 182.284 182.881C182.707 182.987 183.076 183.198 183.393 183.62C183.869 184.148 184.027 184.835 183.869 185.575C183.763 186.103 183.446 187.793 178.534 190.434C175.365 193.603 171.615 196.613 167.601 195.663C142.777 222.811 110.083 228.779 109.766 228.832C109.713 228.885 109.607 228.885 109.554 228.885ZM109.026 218.427C107.6 219.325 106.861 220.276 106.808 221.332C106.702 223.233 108.709 225.293 109.871 226.297C114.202 225.399 143.675 218.533 166.28 193.444C166.597 193.075 167.178 192.916 167.654 193.127C170.083 194.025 172.83 192.652 176.897 188.585C177.002 188.48 177.108 188.427 177.214 188.374C180.013 186.895 181.069 185.839 181.386 185.363C180.805 185.416 179.696 185.891 178.006 186.789C177.636 187.001 177.319 187.159 177.108 187.265C176.58 187.476 175.999 187.318 175.629 186.895C175.259 186.42 175.259 185.839 175.629 185.363C175.735 185.205 175.735 185.205 177.636 183.673C178.904 182.67 180.594 181.244 181.069 180.821C181.65 180.293 181.703 179.817 181.65 179.765C181.65 179.765 181.386 179.712 181.016 179.976C179.643 180.821 177.002 182.775 175.84 183.62C175.523 183.884 175.312 183.99 175.259 184.043C174.784 184.36 174.097 184.307 173.675 183.884C173.252 183.462 173.199 182.828 173.516 182.3C173.78 181.93 178.428 177.018 178.481 176.965C179.115 176.331 179.062 175.751 178.957 175.645C178.851 175.539 178.376 175.592 177.689 176.279C176.949 177.018 175.999 178.022 175.101 178.92C173.094 181.032 172.724 181.349 172.46 181.508C172.09 181.772 171.562 181.772 171.192 181.508C170.77 181.244 170.559 180.821 170.611 180.346C170.611 179.976 170.717 179.87 171.615 178.127C172.09 177.177 172.724 176.015 173.147 175.117C173.464 174.483 173.464 174.008 173.411 173.849C173.2 173.902 172.777 174.166 172.302 174.905C170.664 177.229 166.597 182.511 166.439 182.722C166.175 183.092 165.699 183.251 165.224 183.198C164.749 183.092 164.379 182.775 164.273 182.353C164.062 181.613 163.323 179.923 162.478 179.501C162.319 179.395 162.161 179.395 162.002 179.448C161.527 179.923 161.791 183.092 162.9 186.472C163.058 186.895 162.953 187.318 162.689 187.634C162.425 187.793 143.569 210.61 109.026 218.427Z" fill="#1B1B1A"/>
<path d="M105.751 212.67C105.751 212.67 99.149 210.874 94.9236 209.078C94.9764 204.589 96.4025 199.677 96.4025 199.677L88.3214 197.987C88.3214 197.987 86.8953 205.223 86.6841 208.181C80.5572 209.078 72.4233 209.712 72.4233 209.712C72.4233 209.712 66.3493 227.881 87.2122 229.308C92.6524 229.624 105.804 221.226 105.751 212.67Z" fill="#FFF7E2"/>
<path d="M87.5296 230.522C87.3712 230.522 87.2128 230.522 87.1071 230.522C80.2409 230.047 75.3816 227.776 72.6879 223.762C68.5682 217.582 71.1034 209.659 71.2619 209.29C71.4203 208.814 71.8429 208.497 72.3182 208.445C72.3711 208.445 79.6599 207.864 85.5226 207.071C85.8923 203.744 87.0543 198.04 87.1071 197.723C87.16 197.406 87.3712 197.089 87.6353 196.93C87.8994 196.772 88.2691 196.666 88.586 196.772L96.6671 198.462C96.984 198.515 97.3009 198.726 97.4594 199.043C97.6178 199.36 97.6706 199.677 97.565 200.047C97.565 200.099 96.3502 204.219 96.1389 208.286C100.259 209.871 106.016 211.455 106.069 211.508C106.597 211.666 106.967 212.142 106.967 212.723C106.967 216.314 104.907 220.223 101.157 223.709C96.984 227.67 91.1741 230.522 87.5296 230.522ZM73.3746 210.874C72.8992 212.828 71.9485 218.269 74.7478 222.388C77.019 225.716 81.1915 227.617 87.2656 228.04C89.8008 228.198 95.241 225.874 99.5193 221.86C102.424 219.114 104.167 216.209 104.484 213.568C102.477 212.987 97.7763 211.614 94.4488 210.188C93.9734 209.976 93.6565 209.554 93.7093 209.026C93.7622 205.751 94.4487 202.371 94.9241 200.575L89.3255 199.413C88.9029 201.578 88.1107 206.068 87.9522 208.18C87.8994 208.761 87.4769 209.237 86.8959 209.342C81.931 210.082 75.6458 210.663 73.3746 210.874Z" fill="#1B1B1A"/>
<path d="M103.375 211.719C106.544 213.251 117.318 210.135 124.819 212.195C124.185 216.948 117.002 275.576 125.928 288.199C114.202 303.358 53.0923 301.615 40.5218 293.164C43.057 286.984 43.5324 205.909 55.4691 209.395C62.2298 209.342 71.5785 209.765 74.7475 209.395C71.1031 227.036 100.839 234.431 103.375 211.719Z" fill="#FFD800"/>
<path d="M79.6067 300.822C61.8072 300.822 45.8036 298.182 39.8352 294.167C39.3598 293.85 39.1485 293.217 39.3598 292.688C40.0464 291.051 40.6802 281.914 41.314 272.248C43.4267 241.456 45.8564 213.409 52.4586 208.761C53.4093 208.075 54.5185 207.864 55.6276 208.128C58.0572 208.128 60.8566 208.18 63.5503 208.233C68.251 208.339 72.6877 208.392 74.6419 208.18C75.0645 208.128 75.4342 208.286 75.6983 208.55C75.9624 208.867 76.068 209.237 76.0152 209.659C74.7476 215.839 77.9694 219.589 79.9765 221.332C83.885 224.607 89.5892 225.61 94.1315 223.814C98.621 222.019 101.473 217.688 102.16 211.614C102.213 211.191 102.424 210.874 102.794 210.663C103.163 210.452 103.586 210.452 103.956 210.61C105.065 211.138 108.181 210.874 111.192 210.61C115.47 210.24 120.857 209.818 125.188 210.98C125.769 211.138 126.192 211.719 126.086 212.353C123.762 229.624 119.431 276.843 126.984 287.512C127.301 287.935 127.301 288.569 126.931 288.991C119.22 298.974 94.0259 300.558 83.568 300.822C82.2476 300.822 80.9272 300.822 79.6067 300.822ZM42.0007 292.583C48.5501 296.28 65.6629 298.71 83.5152 298.287C103.797 297.865 118.956 294.062 124.396 288.093C116.262 274.097 122.442 221.438 123.445 213.093C119.695 212.353 115.1 212.723 111.35 213.04C108.498 213.304 106.121 213.462 104.378 213.251C103.322 219.536 99.9943 224.026 94.9767 226.033C89.6421 228.198 82.9343 227.036 78.3392 223.181C74.5891 220.012 72.7933 215.522 73.2686 210.716C70.8918 210.821 67.2474 210.769 63.4446 210.716C60.6981 210.663 57.8988 210.61 55.4163 210.61C55.2579 210.61 55.1522 210.61 55.0466 210.557C54.624 210.452 54.2544 210.504 53.8318 210.821C47.6522 215.152 45.1698 251.015 43.7437 272.407C43.0571 283.34 42.5817 289.836 42.0007 292.583Z" fill="#1B1B1A"/>
<path d="M79.7124 250.223C82.2477 249.906 82.9871 238.075 86.8428 239.554C89.0611 240.399 86.8428 249.959 89.4837 250.91C92.5999 252.072 100.1 249.589 100.153 251.966C100.153 255.346 88.3217 255.927 90.1175 259.149C92.7055 263.797 95.5048 269.554 93.8675 270.505C90.9097 272.248 86.2618 262.371 82.7758 261.473C78.9201 260.523 68.9376 270.664 68.5151 266.597C68.1982 263.692 76.9131 258.463 75.6455 256.086C73.2687 251.544 66.825 246.526 70.0468 246.103C73.3215 245.681 77.3357 250.54 79.7124 250.223Z" fill="#FFF7E2"/>
<path d="M93.1279 271.931C91.0152 271.931 88.9025 269.396 86.8954 266.914C85.4165 265.171 83.6207 262.952 82.5115 262.688C81.1911 262.371 77.8108 264.484 75.5924 265.91C72.4234 267.917 70.0994 269.343 68.5149 268.604C68.1452 268.392 67.4586 267.917 67.3529 266.755C67.1417 264.748 69.2544 262.635 71.4727 260.47C72.6347 259.308 74.5889 257.406 74.5889 256.72C73.7438 255.082 72.265 253.339 70.9973 251.808C68.9375 249.325 67.5642 247.688 68.1452 246.209C68.3565 245.734 68.8318 245.1 69.9938 244.941C72.2121 244.625 74.4304 246.103 76.4375 247.424C77.5467 248.163 78.9199 249.061 79.6066 249.061C80.1347 248.639 80.8742 246.473 81.2968 245.1C82.2475 242.301 83.1982 239.396 85.0996 238.551C85.839 238.234 86.6313 238.181 87.4236 238.498C89.2722 239.184 89.325 241.878 89.3778 244.941C89.4306 246.42 89.4835 249.484 90.0644 249.853C91.1736 250.276 93.2863 250.065 95.1349 249.906C97.723 249.695 99.7829 249.537 100.839 250.487C101.262 250.857 101.526 251.385 101.526 252.019C101.526 254.554 98.3568 255.663 95.2406 256.773C93.8673 257.248 91.649 258.04 91.2793 258.568C96.8251 268.445 96.1385 270.664 94.5539 271.614C94.0258 271.826 93.5504 271.931 93.1279 271.931ZM82.1946 260.206C82.5115 260.206 82.7756 260.259 83.0397 260.311C84.9939 260.787 86.7898 263.005 88.744 265.382C89.8532 266.755 92.1243 269.502 93.0222 269.502C93.0222 269.502 93.0222 269.502 93.075 269.502C93.1278 269.026 92.9694 266.914 89.0081 259.783C88.5327 258.938 88.6384 258.199 88.7968 257.723C89.4306 256.139 91.649 255.346 94.2898 254.396C95.6631 253.92 98.304 252.97 98.8321 252.23C98.0927 252.072 96.4026 252.23 95.2406 252.336C93.0223 252.547 90.6982 252.706 89.1137 252.125C86.9482 251.332 86.8954 248.216 86.8426 244.941C86.7898 243.568 86.7898 241.244 86.3672 240.716C86.2088 240.663 86.156 240.716 86.0503 240.716C85.0996 241.139 84.1489 243.991 83.5151 245.839C82.5115 248.85 81.7193 251.227 79.8178 251.438C78.2861 251.649 76.6488 250.54 74.9059 249.431C73.4798 248.48 71.8424 247.424 70.5748 247.318C70.9973 248.058 72.0008 249.22 72.7403 250.118C74.1135 251.755 75.6981 253.656 76.6488 255.505C77.7051 257.512 75.5397 259.678 73.0572 262.16C71.8424 263.375 69.8354 265.329 69.6769 266.28C70.6276 266.016 72.6875 264.695 74.1136 263.797C77.0186 262.002 79.9763 260.206 82.1946 260.206Z" fill="#1B1B1A"/>
<path d="M158.938 47.2456C160.153 26.7524 127.776 1.6641 94.3426 14.2875C64.9232 25.3792 61.7542 12.2804 66.7719 1.87537C45.1695 11.8051 54.3597 28.6538 59.7471 30.1855C32.9158 29.763 19.8699 35.4145 13.7431 67.9501C20.1868 60.0274 26.2608 63.8831 26.2608 63.8831C26.2608 63.8831 16.1727 66.0486 14.5881 92.2989C12.3698 91.1898 12.6867 87.8094 12.6867 87.8094C12.6867 87.8094 -0.623293 101.806 8.77822 120.398C19.3417 141.314 112.723 156.789 148.164 155.257C183.604 153.673 190.735 145.962 190.576 123.25C188.305 125.944 185.928 125.046 185.928 125.046C185.928 125.046 198.604 110.098 188.675 86.9644C196.333 87.3869 196.703 101.806 196.703 101.806C196.703 101.806 207.953 88.232 202.143 72.9677C194.801 53.7422 172.882 44.7104 158.938 47.2456Z" fill="#6300FF"/>
<path d="M142.723 156.578C123.762 156.578 94.501 152.986 68.7789 147.44C48.7082 143.109 14.1128 133.866 7.56342 120.926C-2.10218 101.806 11.5247 87.0699 11.6831 86.9115C12.0529 86.5417 12.6339 86.4361 13.1093 86.6474C13.3733 86.753 13.5846 86.9643 13.743 87.2284C15.4332 72.4923 20.0283 66.5239 23.0917 64.1471C21.0318 63.9887 17.9685 64.6225 14.6938 68.6894C14.3241 69.112 13.743 69.2704 13.2149 69.0063C12.6867 68.7423 12.4226 68.2141 12.5282 67.6331C18.5494 35.7841 31.4369 29.0763 55.8386 28.8122C53.8315 26.6467 52.1942 23.2664 51.9301 19.5692C51.6132 15.1325 52.9865 6.73451 66.2437 0.607678C66.719 0.396408 67.3 0.502043 67.6697 0.871765C68.0394 1.24149 68.1451 1.82247 67.881 2.29783C66.0324 6.20632 65.0289 11.4353 67.8282 14.4987C69.9409 16.8226 76.1734 19.7276 93.92 13.0198C110.927 6.57606 129.836 9.16412 144.413 19.9389C154.132 27.0692 160.048 36.8405 160.206 45.7138C175.365 43.8124 196.28 54.0062 203.305 72.4923C209.326 88.2847 198.129 101.964 197.654 102.545C197.337 102.968 196.809 103.074 196.28 102.915C195.805 102.757 195.435 102.281 195.435 101.753C195.435 101.648 195.013 91.665 190.735 88.8129C197.125 105.979 191.58 118.285 188.516 123.303C188.833 123.091 189.203 122.775 189.52 122.352C189.837 121.929 190.418 121.824 190.893 121.982C191.368 122.141 191.685 122.616 191.738 123.144C191.844 136.032 189.414 143.215 183.393 148.021C177.108 153.039 166.544 155.521 148.111 156.366C146.473 156.578 144.625 156.578 142.723 156.578ZM11.7888 90.82C8.61977 95.2566 2.91546 106.243 9.78173 119.87C19.7114 139.465 110.822 155.68 148.005 154.042C165.91 153.25 175.998 150.926 181.861 146.226C186.826 142.264 188.992 136.296 189.256 125.891C187.249 126.894 185.558 126.261 185.453 126.261C185.083 126.102 184.819 125.785 184.713 125.415C184.608 125.046 184.713 124.623 184.977 124.306C185.453 123.725 197.02 109.623 187.565 87.4925C187.407 87.1227 187.46 86.6474 187.671 86.2777C187.935 85.9079 188.305 85.7495 188.727 85.7495C194.907 86.0664 196.967 93.7249 197.654 98.3201C200.453 93.7249 205.048 83.9537 201.034 73.443C194.168 55.4851 173.516 45.8723 159.202 48.4603C158.833 48.5132 158.463 48.4075 158.146 48.1434C157.882 47.8793 157.724 47.5096 157.724 47.1399C158.199 38.6891 152.547 29.0763 142.935 21.9988C128.991 11.7522 110.98 9.26975 94.7651 15.3966C76.5959 22.21 69.0958 19.622 65.9796 16.2417C63.4443 13.4952 62.9161 9.21692 64.395 4.46335C57.4759 8.42466 53.9372 13.6536 54.4125 19.5163C54.7822 24.534 58.0041 28.3897 60.1168 29.0235C60.6978 29.1819 61.0675 29.7629 61.0147 30.3967C60.9091 31.0306 60.3809 31.4531 59.7999 31.4531C34.8172 31.0834 22.1938 35.8369 15.8557 64.2528C21.7713 59.7105 26.9474 62.8267 27.0002 62.8795C27.4228 63.1436 27.634 63.6718 27.5812 64.1471C27.4756 64.6225 27.1059 65.045 26.6305 65.1507C26.5777 65.1507 17.4403 67.7387 15.9085 92.4045C15.9085 92.827 15.6445 93.1967 15.2748 93.408C14.905 93.6193 14.4825 93.6193 14.1127 93.4608C12.7923 92.827 12.1585 91.8235 11.7888 90.82Z" fill="#1B1B1A"/>
<path d="M153.234 49.6224C153.234 49.6224 163.533 23.6362 152.389 12.4389C172.354 15.027 171.509 32.2983 166.438 39.6399C182.917 28.7595 197.812 39.3758 198.498 45.5027C179.643 41.9111 164.907 53.7422 164.907 53.7422L153.234 49.6224Z" fill="#6300FF"/>
<path d="M164.906 55.0097C164.537 55.0097 164.167 54.8513 163.956 54.5344C163.533 54.0062 163.639 53.2139 164.167 52.7914C164.748 52.316 178.533 41.4884 196.703 43.9709C195.699 42.0694 193.375 39.7455 189.889 38.1609C186.562 36.5764 177.688 33.6714 167.125 40.6962C166.649 41.0131 165.963 40.9603 165.54 40.5377C165.118 40.1152 165.065 39.4814 165.382 38.9532C168.023 35.1503 169.396 28.3897 166.914 22.8439C165.012 18.5656 161.051 15.6079 155.347 14.2346C163.375 26.7523 154.713 49.0941 154.29 50.0977C154.026 50.7315 153.339 51.0484 152.706 50.7843C152.072 50.5202 151.755 49.8336 152.019 49.1998C152.125 48.9357 161.896 23.7946 151.438 13.3367C151.068 12.967 150.963 12.386 151.227 11.9106C151.438 11.4353 151.966 11.1712 152.494 11.224C162.952 12.5973 167.336 17.7734 169.185 21.8403C171.403 26.8052 170.928 32.2454 169.396 36.4708C179.378 31.5587 187.618 34.3052 190.945 35.8898C195.805 38.2137 199.344 42.0166 199.713 45.3969C199.766 45.7666 199.607 46.1892 199.343 46.4533C199.079 46.7174 198.657 46.823 198.287 46.7702C180.171 43.337 165.857 54.64 165.699 54.7456C165.435 54.9041 165.17 55.0097 164.906 55.0097Z" fill="#1B1B1A"/>
<path d="M167.019 150.873C159.097 191.648 121.966 212.617 82.6699 205.011C43.3737 197.353 16.8065 164.025 24.7819 123.25C32.7046 82.4747 70.6803 57.0167 109.977 64.6752C149.273 72.2809 174.942 110.045 167.019 150.873Z" fill="#FFF7E2"/>
<path d="M98.5679 207.758C93.2862 207.758 87.846 207.23 82.4586 206.173C62.7577 202.37 45.9089 192.071 35.0285 177.229C23.7784 161.912 19.7114 142.634 23.5671 122.933C27.4228 102.968 38.5673 85.8551 54.9407 74.7106C71.1557 63.6189 90.8037 59.6048 110.241 63.4076C129.677 67.1577 146.368 78.2494 157.248 94.6228C168.234 111.049 172.143 131.12 168.234 151.085C164.379 170.786 153.392 187.159 137.283 197.142C125.927 204.166 112.565 207.758 98.5679 207.758ZM95.9799 64.5168C81.8776 64.5168 68.1979 68.6894 56.3139 76.7705C40.5215 87.5452 29.7467 104.13 25.9967 123.408C22.2994 142.423 26.208 161.014 37.0355 175.75C47.5462 190.064 63.8668 199.994 82.934 203.744C102.001 207.441 120.857 204.325 135.963 195.029C151.491 185.416 162.107 169.624 165.805 150.609C169.555 131.278 165.805 111.894 155.188 95.996C144.625 80.2036 128.515 69.4817 109.765 65.8372C105.17 64.9393 100.522 64.5168 95.9799 64.5168Z" fill="#1B1B1A"/>
<path d="M164.114 150.609C164.114 150.609 166.702 142.528 176.949 143.004C187.777 143.532 189.678 158.215 182.6 165.557C175.523 172.898 163.639 171.103 161.051 163.972L164.114 150.609Z" fill="#FFF7E2"/>
<path d="M171.667 171.525C170.611 171.525 169.502 171.42 168.445 171.208C164.326 170.31 161.157 167.775 159.889 164.395C159.678 163.761 159.995 163.022 160.628 162.81C161.262 162.599 162.002 162.916 162.213 163.55C163.164 166.138 165.593 168.039 168.921 168.779C172.46 169.518 177.688 168.884 181.703 164.712C185.347 160.962 186.562 154.729 184.66 149.923C183.287 146.437 180.541 144.43 176.896 144.271C167.759 143.796 165.382 150.715 165.276 151.032C165.065 151.666 164.378 152.036 163.745 151.824C163.111 151.613 162.741 150.926 162.952 150.293C163.005 150.187 165.963 141.261 177.055 141.842C181.65 142.053 185.294 144.694 187.037 149.078C189.308 154.729 187.829 162.071 183.551 166.508C180.382 169.729 176.051 171.525 171.667 171.525Z" fill="#1B1B1A"/>
<path d="M172.618 163.761C169.977 154.518 174.096 152.141 178.427 157.053C178.797 154.254 177.371 152.194 173.146 151.824C174.044 148.18 178.48 146.965 178.48 146.965C171.72 144.694 164.22 155.997 172.618 163.761Z" fill="#FFF7E2"/>
<path d="M172.618 165.029C172.09 165.029 171.561 164.659 171.403 164.131C169.871 158.796 170.347 155.046 172.723 153.726C173.304 153.409 173.991 153.25 174.678 153.356C174.202 153.25 173.621 153.145 173.04 153.092C172.671 153.039 172.354 152.881 172.142 152.564C171.931 152.247 171.878 151.877 171.931 151.56C172.988 147.229 177.952 145.856 178.164 145.803C178.797 145.645 179.484 146.014 179.695 146.648C179.854 147.335 179.484 147.969 178.797 148.18C178.745 148.18 176.157 148.919 174.889 150.874C176.526 151.243 177.794 151.93 178.639 152.986C179.537 154.095 179.907 155.574 179.643 157.264C179.59 157.74 179.22 158.162 178.797 158.268C178.322 158.426 177.847 158.268 177.53 157.898C175.945 156.103 174.572 155.627 173.938 155.944C173.252 156.314 172.354 158.374 173.833 163.497C174.044 164.131 173.621 164.817 172.988 165.029C172.829 165.029 172.723 165.029 172.618 165.029Z" fill="#1B1B1A"/>
<path d="M27.1058 123.989C27.1058 123.989 27.7396 115.539 18.0211 112.105C7.77454 108.567 0.538532 121.401 4.34139 130.909C8.14425 140.416 19.8169 143.162 24.9402 137.511L27.1058 123.989Z" fill="#FFF7E2"/>
<path d="M17.81 141.683C17.0177 141.683 16.2255 141.63 15.3804 141.472C9.99303 140.521 5.29229 136.666 3.17959 131.437C0.908438 125.732 2.28172 118.391 6.50712 113.954C9.72899 110.574 14.1128 109.465 18.4439 110.996C28.9545 114.641 28.3207 124.042 28.3207 124.148C28.2679 124.834 27.6869 125.363 27.0003 125.31C26.3136 125.257 25.7855 124.676 25.8383 123.989C25.8383 123.672 26.2609 116.384 17.5988 113.373C14.1657 112.158 10.8381 113.003 8.25006 115.697C4.65847 119.447 3.49652 125.679 5.45077 130.539C7.61629 135.873 12.2114 138.461 15.7502 139.095C19.0777 139.676 22.0883 138.831 23.9369 136.771C24.4123 136.243 25.2045 136.243 25.6798 136.666C26.208 137.141 26.208 137.88 25.7855 138.408C23.8841 140.521 21.0319 141.683 17.81 141.683Z" fill="#1B1B1A"/>
<path d="M14.3238 133.021C20.2393 125.468 17.3344 121.718 11.4716 124.623C12.1582 121.877 14.2709 120.503 18.3379 121.771C18.8661 118.021 15.2217 115.274 15.2217 115.274C22.2993 115.644 25.0457 128.954 14.3238 133.021Z" fill="#FFF7E2"/>
<path d="M14.3239 134.289C14.0598 134.289 13.7957 134.183 13.5845 134.025C13.0563 133.602 12.9507 132.81 13.3732 132.282C16.6479 128.056 16.5951 125.838 16.1197 125.257C15.6972 124.729 14.2711 124.676 12.1056 125.732C11.6831 125.944 11.1549 125.891 10.7852 125.574C10.4154 125.257 10.257 124.782 10.3626 124.306C10.7851 122.616 11.6302 121.401 12.8979 120.715C14.0598 120.081 15.4331 119.87 17.1233 120.187C16.6479 117.915 14.5352 116.278 14.5352 116.225C14.007 115.803 13.9014 115.01 14.3239 114.482C14.7465 113.954 15.5387 113.848 16.0669 114.271C16.2254 114.377 20.2923 117.546 19.6585 121.93C19.6056 122.299 19.3944 122.616 19.0775 122.827C18.7606 123.039 18.3909 123.091 18.0211 122.986C17.4401 122.827 16.912 122.669 16.3838 122.616C17.0704 122.827 17.5986 123.197 18.0211 123.725C19.7113 125.785 18.7078 129.482 15.3275 133.866C15.0634 134.13 14.6936 134.289 14.3239 134.289Z" fill="#1B1B1A"/>
<path d="M99.9411 124.042C100.047 128.426 89.8002 135.398 94.8706 139.834C97.9869 142.581 103.691 140.732 102.529 134.236C101.79 130.486 99.9411 124.042 99.9411 124.042Z" fill="#FFF7E2"/>
<path d="M98.0927 142.317C96.6667 142.317 95.1878 141.789 94.0258 140.785C90.0645 137.299 93.2864 132.863 95.8744 129.271C97.2477 127.37 98.6738 125.363 98.6738 124.095C98.6738 123.461 99.0963 122.933 99.7301 122.827C100.364 122.722 100.945 123.091 101.103 123.725C101.156 123.989 103.005 130.275 103.691 134.077C104.325 137.458 103.269 140.31 100.892 141.63C100.047 142.106 99.0434 142.317 98.0927 142.317ZM99.7301 128.056C99.202 128.954 98.5681 129.852 97.8815 130.75C95.0822 134.606 93.5504 137.088 95.6631 138.937C96.7723 139.94 98.4625 140.151 99.6773 139.465C101.103 138.673 101.684 136.824 101.262 134.5C100.945 132.651 100.311 130.116 99.7301 128.056Z" fill="#1B1B1A"/>
<path d="M146.262 115.327C139.871 110.996 135.857 118.285 140.505 119.817C145.522 121.454 149.114 124.676 149.906 124.412C151.649 123.831 149.853 117.757 146.262 115.327Z" fill="#FFF7E2"/>
<path d="M149.801 125.68C149.061 125.68 148.216 125.151 146.843 124.359C145.153 123.356 142.881 121.929 140.135 121.032C138.498 120.503 137.441 119.289 137.283 117.81C137.124 116.172 137.969 114.482 139.554 113.584C140.557 113.003 143.251 111.841 146.948 114.377C150.065 116.489 152.125 121.084 151.755 123.62C151.596 124.993 150.751 125.521 150.276 125.68C150.17 125.68 149.959 125.68 149.801 125.68ZM142.406 115.222C141.825 115.222 141.297 115.38 140.822 115.644C140.082 116.067 139.66 116.806 139.712 117.493C139.765 118.179 140.399 118.496 140.874 118.655C143.885 119.658 146.42 121.19 148.11 122.194C148.48 122.458 148.955 122.722 149.325 122.933C149.272 121.507 148.005 118.021 145.522 116.384C144.466 115.591 143.357 115.222 142.406 115.222Z" fill="#1B1B1A"/>
<path d="M62.6522 99.7988C70.3635 99.4291 69.9938 107.721 65.2403 106.612C60.117 105.45 55.3634 106.295 54.8352 105.662C53.6733 104.235 58.3212 99.9573 62.6522 99.7988Z" fill="#FFF7E2"/>
<path d="M66.0851 107.933C65.7154 107.933 65.3457 107.88 64.9759 107.827C62.1766 107.193 59.4829 107.193 57.5287 107.193C55.5216 107.193 54.5181 107.193 53.9371 106.454C53.6202 106.084 53.1976 105.239 53.7258 103.972C54.7821 101.595 58.9019 98.7426 62.652 98.5841C67.0886 98.3729 68.8316 100.75 69.4126 101.753C70.2577 103.391 70.1521 105.239 69.1485 106.56C68.3563 107.457 67.2999 107.933 66.0851 107.933ZM57.74 104.711C59.6942 104.711 62.5463 104.764 65.5041 105.398C66.0323 105.503 66.7189 105.556 67.0886 104.975C67.5112 104.447 67.5112 103.602 67.1414 102.81C66.4548 101.542 64.8703 100.855 62.7048 100.961C59.6942 101.119 56.842 103.443 56.0498 104.605C56.4723 104.605 57.0005 104.605 57.423 104.605C57.5815 104.711 57.6343 104.711 57.74 104.711Z" fill="#1B1B1A"/>
<path d="M144.625 143.479C144.572 143.954 142.882 132.916 133.216 131.437C124.184 130.063 118.639 139.94 118.744 139.465C119.853 132.282 145.734 136.243 144.625 143.479Z" fill="#FFF7E2"/>
<path d="M144.572 144.747C143.621 144.747 143.41 143.849 143.252 143.479C141.509 137.194 137.97 133.444 133.005 132.704C129.836 132.229 124.977 133.074 120.012 139.887C119.695 140.31 119.167 141.049 118.216 140.68C117.688 140.468 117.371 139.887 117.477 139.306C117.529 138.99 117.688 138.725 117.899 138.567C117.952 138.514 117.952 138.461 118.005 138.409C123.709 130.592 129.519 129.641 133.375 130.275C139.29 131.173 143.621 135.662 145.628 142.845C145.628 142.898 145.628 142.951 145.681 142.951C145.787 143.162 145.84 143.426 145.787 143.69C145.681 144.271 145.206 144.694 144.625 144.747C144.625 144.747 144.625 144.747 144.572 144.747Z" fill="#1B1B1A"/>
<path d="M75.328 130.38C75.2752 130.856 73.5851 119.87 63.9195 118.338C54.8877 116.965 49.3418 126.842 49.4475 126.366C50.5566 119.13 76.4372 123.144 75.328 130.38Z" fill="#FFF7E2"/>
<path d="M75.3284 131.595C74.3777 131.595 74.1664 130.697 74.0607 130.327C72.3178 124.042 68.779 120.292 63.8142 119.553C60.6451 119.077 55.7859 119.922 50.821 126.736C50.5041 127.158 49.976 127.898 49.0253 127.528C48.4971 127.317 48.1802 126.736 48.2858 126.155C48.3387 125.838 48.4971 125.627 48.7083 125.415C48.7612 125.363 48.7612 125.31 48.814 125.257C54.5183 117.44 60.3282 116.489 64.1839 117.07C70.0994 117.968 74.4833 122.458 76.4375 129.641C76.4375 129.694 76.4376 129.694 76.4904 129.746C76.596 129.958 76.6488 130.222 76.596 130.486C76.4904 131.067 76.015 131.542 75.434 131.542C75.3812 131.595 75.3284 131.595 75.3284 131.595Z" fill="#1B1B1A"/>
<path d="M75.064 147.229C81.4549 142.634 81.4021 151.983 92.9164 154.307C104.642 156.683 108.392 147.704 112.406 156.155C115.681 163.021 104.219 195.768 85.0993 191.437C65.7681 187.001 68.99 151.613 75.064 147.229Z" fill="#FFF7E2"/>
<path d="M88.5326 193.075C87.3178 193.075 86.0502 192.916 84.7826 192.652C77.2825 190.962 72.0536 184.518 70.0465 174.536C67.7753 163.444 69.9409 149.447 74.3776 146.278C78.603 143.268 80.8741 145.38 83.3565 147.704C85.4692 149.659 88.1101 152.141 93.1806 153.197C98.0926 154.201 101.473 153.092 104.167 152.194C107.6 151.085 110.822 150.028 113.515 155.68C115.786 160.433 112.036 174.747 104.589 184.043C99.7828 189.958 94.2897 193.075 88.5326 193.075ZM75.8036 148.233C72.8458 150.345 70.2049 162.757 72.4761 174.008C73.7437 180.346 77.0184 188.321 85.3636 190.223C93.1277 191.965 99.0433 186.948 102.688 182.458C109.765 173.585 113.04 160.328 111.297 156.683C109.554 152.986 108.392 153.356 104.959 154.465C102.107 155.416 98.251 156.683 92.7052 155.521C86.9481 154.359 83.8847 151.507 81.6663 149.447C79.1839 147.176 78.3388 146.384 75.8036 148.233Z" fill="#1B1B1A"/>
<path d="M99.888 187.159C95.7683 190.751 90.7506 192.705 85.0991 191.437C79.7646 190.223 76.173 186.684 73.8491 182.036C77.4935 180.874 82.1414 180.557 87.7928 181.719C93.1802 182.828 97.0887 184.782 99.888 187.159Z" fill="#FFF7E2"/>
<path d="M88.4798 193.075C87.265 193.075 85.9974 192.916 84.7826 192.652C79.5008 191.437 75.4338 188.057 72.7402 182.617C72.5817 182.3 72.5817 181.93 72.6874 181.56C72.8458 181.244 73.1099 180.98 73.4796 180.874C77.7578 179.553 82.6698 179.395 88.0572 180.504C93.2333 181.56 97.4588 183.515 100.681 186.208C100.945 186.42 101.103 186.789 101.103 187.159C101.103 187.529 100.945 187.846 100.681 188.11C96.8778 191.385 92.7052 193.075 88.4798 193.075ZM75.6451 182.828C77.9691 186.842 81.2438 189.325 85.3107 190.223C89.6946 191.226 93.8672 190.17 97.8813 187.159C95.1348 185.205 91.7016 183.726 87.5291 182.881C83.198 182.036 79.1839 181.983 75.6451 182.828Z" fill="#1B1B1A"/>
<path d="M77.2825 146.12C81.6663 144.958 82.8811 152.3 92.9165 154.359C103.057 156.419 107.177 150.028 110.716 153.62C105.91 160.275 99.2017 165.081 91.0678 163.233C83.0396 161.384 78.9198 154.201 77.2825 146.12Z" fill="#FFF7E2"/>
<path d="M94.5012 164.817C93.2864 164.817 92.0716 164.659 90.804 164.395C83.3039 162.705 78.0749 156.261 76.0679 146.331C75.9622 145.697 76.3319 145.064 76.9658 144.905C79.6066 144.218 81.4024 145.856 83.3039 147.652C85.4166 149.606 88.0575 152.088 93.128 153.145C98.04 154.148 101.42 153.039 104.114 152.141C106.808 151.296 109.29 150.451 111.561 152.722C111.984 153.145 112.037 153.831 111.667 154.307C106.755 161.226 100.734 164.817 94.5012 164.817ZM78.8144 147.335C80.2933 153.356 83.6736 160.275 91.3322 162.018C99.1491 163.814 105.117 158.796 108.92 153.884C108.075 153.567 106.966 153.831 104.853 154.518C102.001 155.469 98.1456 156.683 92.5998 155.574C86.8427 154.412 83.7792 151.56 81.5609 149.5C80.3989 148.338 79.6066 147.599 78.8144 147.335Z" fill="#1B1B1A"/>
<path d="M65.5041 58.1259C46.6482 61.9287 35.8735 84.0593 50.1342 94.57C51.349 78.4078 75.5922 76.8233 75.5922 76.8233C75.5922 76.8233 69.0957 111.049 100.047 113.267C92.3882 108.197 93.6558 94.3059 128.146 94.4643C130.892 99.0594 122.389 105.662 118.216 106.243C131.579 110.151 152.547 97.739 153.234 86.9642C160.734 100.221 154.924 111.366 154.924 111.366C154.924 111.366 174.203 104.869 173.833 90.8727C173.252 70.0098 143.146 60.9252 117.265 56.0132C91.3847 51.154 80.6627 55.0625 65.5041 58.1259Z" fill="#6300FF"/>
<path d="M100.1 114.535C100.047 114.535 100.047 114.535 99.994 114.535C91.1206 113.901 84.3599 110.627 79.8705 104.817C72.7401 95.5735 73.5852 82.7389 74.1662 78.2494C68.9373 78.936 52.3526 82.0523 51.4019 94.6757C51.3491 95.151 51.085 95.5207 50.6624 95.732C50.2399 95.9433 49.7645 95.8904 49.3948 95.6264C43.6377 91.401 41.2609 84.8516 42.8454 77.7212C45.0637 67.6859 54.3068 59.1295 65.2928 56.9111C65.9795 56.7527 66.6133 57.228 66.7718 57.8619C66.9302 58.5485 66.4548 59.1823 65.821 59.3407C55.7857 61.3478 47.3349 69.112 45.3279 78.2494C44.1131 83.7424 45.5391 88.6016 49.2892 92.246C52.4582 77.3515 74.5887 75.7142 75.5923 75.6614C75.962 75.6614 76.3317 75.767 76.5958 76.0839C76.8599 76.348 76.9655 76.7705 76.8599 77.1402C76.8071 77.2987 73.9549 93.1439 81.8775 103.391C85.3107 107.827 90.2227 110.574 96.6136 111.683C95.1348 109.57 94.6594 107.088 95.3988 104.658C96.4552 101.225 101.684 93.3024 127.617 93.3024C127.829 93.3024 128.04 93.3024 128.251 93.3024C128.674 93.3024 129.096 93.5137 129.308 93.8834C130.258 95.4679 130.258 97.3693 129.308 99.3236C128.093 101.806 125.505 104.183 122.917 105.715C129.836 105.979 137.653 102.862 143.093 99.0067C148.48 95.2038 151.808 90.6615 152.072 86.8587C152.125 86.3305 152.495 85.8551 153.023 85.7495C153.551 85.6438 154.132 85.8551 154.396 86.3305C159.942 96.1545 158.516 104.817 157.195 109.095C162.266 106.824 172.935 100.802 172.671 90.8728C172.671 90.1862 173.199 89.6052 173.886 89.6052C173.886 89.6052 173.886 89.6052 173.938 89.6052C174.625 89.6052 175.153 90.1333 175.153 90.82C175.576 105.556 156.192 112.211 155.399 112.528C154.924 112.686 154.396 112.528 154.079 112.158C153.762 111.789 153.709 111.208 153.921 110.785C154.132 110.415 158.516 101.648 153.762 90.5559C152.336 94.1475 149.114 97.8447 144.572 101.067C138.023 105.662 127.142 110.098 118.005 107.457C117.424 107.299 117.054 106.771 117.107 106.19C117.16 105.609 117.582 105.134 118.163 105.028C120.857 104.658 125.61 101.383 127.142 98.2672C127.617 97.3165 127.723 96.4715 127.512 95.732C102.688 95.7848 98.515 103.074 97.8284 105.345C97.089 107.88 98.251 110.521 100.892 112.264C101.367 112.581 101.578 113.162 101.367 113.69C101.103 114.218 100.628 114.535 100.1 114.535Z" fill="#1B1B1A"/>
</svg>
