<svg width="230" height="340" viewBox="0 0 230 340" fill="none" xmlns="http://www.w3.org/2000/svg">
<path d="M60.3767 106.673C58.2858 126.654 67.6719 123.68 35.8893 141.569C14.7473 153.464 14.0503 177.255 44.6248 172.33C10.4725 199.605 57.5888 234.454 82.8662 191.473C56.7524 235.43 149.08 278.736 183 209.084C187.972 260.15 217.431 226.09 200.75 187.245C238.201 231.434 231.417 130.836 181.559 96.4044C134.071 102.584 60.3767 106.673 60.3767 106.673Z" fill="#FFF7E2"/>
<path d="M128.728 246.814C109.259 246.814 90.2075 237.242 81.7043 223.024C77.3365 215.729 76.1284 207.783 78.08 200.023C70.1343 209.223 60.2371 213.823 50.3864 212.522C41.5114 211.361 34.4021 205.599 32.2182 197.793C29.9879 189.847 33.2405 181.251 41.1397 173.863C25.5736 175.35 21.3917 168.612 20.2765 165.453C17.4886 157.507 23.8544 147.052 35.3314 140.593C59.3078 127.072 59.3078 125.957 58.9826 117.268C58.8896 114.573 58.7967 111.181 59.2613 106.58C59.3078 106.069 59.7725 105.651 60.2836 105.605C61.027 105.558 134.489 101.469 181.327 95.3357C181.606 95.2892 181.885 95.3822 182.07 95.5216C196.428 105.419 208.835 122.054 217.013 142.313C223.797 159.18 226.956 177.301 225.051 188.5C224.029 194.447 221.659 198.118 218.128 199.094C214.225 200.163 209.346 197.839 203.677 192.17C209.903 210.989 205.814 227.113 200.331 233.06C197.962 235.616 195.22 236.545 192.665 235.662C187.6 233.99 183.976 225.905 182.256 212.801C176.541 223.395 169.153 231.666 160.278 237.475C151.682 243.097 141.645 246.303 131.237 246.721C130.4 246.814 129.564 246.814 128.728 246.814ZM83.6559 192.217C77.9406 201.928 77.8941 212.476 83.5629 221.909C92.0197 236.081 111.628 245.42 131.144 244.584C143.829 244.026 167.341 238.636 181.977 208.619C182.21 208.201 182.674 207.922 183.139 208.015C183.604 208.108 183.976 208.48 184.022 208.991C185.369 222.884 188.854 232.085 193.362 233.618C195.592 234.361 197.497 232.921 198.752 231.573C204.188 225.672 208.231 207.644 199.681 187.663C199.449 187.152 199.634 186.595 200.099 186.316C200.564 186.037 201.168 186.13 201.493 186.548C208.091 194.354 213.807 198.072 217.57 197.003C220.916 196.074 222.31 191.706 222.914 188.174C224.772 177.348 221.659 159.644 214.968 143.149C207.023 123.401 194.988 107.231 181.141 97.5661C137.045 103.281 69.9485 107.231 61.2594 107.742C60.8876 111.738 60.9806 114.758 61.0735 117.221C61.3988 127.304 60.6553 128.838 36.3072 142.545C25.8989 148.4 19.8583 157.972 22.2281 164.802C24.3655 170.843 32.4041 173.212 44.2993 171.307C44.8105 171.214 45.2751 171.493 45.461 171.958C45.6468 172.422 45.5539 172.934 45.1357 173.259C35.9355 180.6 31.9394 189.382 34.1698 197.282C36.1214 204.252 42.5337 209.409 50.5258 210.431C62.0028 211.918 73.6193 204.716 81.6578 191.148C81.7043 191.102 81.7508 191.009 81.7508 190.962C82.076 190.451 82.7265 190.265 83.2377 190.591C83.7488 190.916 83.9347 191.566 83.6094 192.077C83.7488 192.124 83.7023 192.17 83.6559 192.217Z" fill="#1B1B1A"/>
<path d="M82.0757 236.127C82.0757 236.127 83.005 269.768 83.2838 276.552C87.8375 277.249 90.5789 276.134 90.5789 276.134L90.8113 234.222L82.0757 236.127Z" fill="#FFF7E2"/>
<path d="M86.2115 277.9C85.2822 277.9 84.26 277.853 83.1448 277.668C82.6337 277.575 82.2619 277.156 82.2155 276.645C81.9367 269.954 81.0074 236.545 81.0074 236.22C81.0074 235.709 81.3326 235.244 81.8437 235.105L90.5793 233.153C90.9046 233.06 91.2298 233.153 91.5086 233.386C91.7874 233.571 91.9268 233.897 91.9268 234.222L91.6945 276.134C91.6945 276.552 91.4157 276.971 90.9975 277.156C90.8581 277.203 89.1389 277.9 86.2115 277.9ZM84.3064 275.623C86.7691 275.902 88.5348 275.577 89.4641 275.344L89.6965 235.569L83.1913 237.01C83.3306 242.168 84.0276 268.049 84.3064 275.623Z" fill="#1B1B1A"/>
<path d="M93.0886 280.827C94.1573 282.686 94.529 286.45 90.3936 290.724C86.2581 295.046 81.3792 298.205 74.3629 296.579C68.4617 295.232 71.2961 288.587 71.2961 288.587L93.0886 280.827Z" fill="#FFF7E2"/>
<path d="M78.0338 298.112C76.8257 298.112 75.5247 297.973 74.1307 297.648C72.2256 297.23 70.8781 296.254 70.1347 294.813C68.6942 291.979 70.2276 288.355 70.2741 288.215C70.4135 287.936 70.6458 287.704 70.9246 287.611L92.717 279.851C93.2282 279.666 93.7857 279.898 94.0181 280.316C95.4585 282.779 95.4585 287.054 91.1837 291.514C88.1169 294.674 83.9815 298.112 78.0338 298.112ZM72.1791 289.423C71.9003 290.306 71.3892 292.304 72.1327 293.791C72.5509 294.674 73.3872 295.232 74.6418 295.51C80.2177 296.811 84.6785 295.139 89.6503 289.981C93.0888 286.403 92.9493 283.569 92.5312 282.221L72.1791 289.423Z" fill="#1B1B1A"/>
<path d="M90.6723 271.069C91.9268 272.696 93.7855 279.387 90.6723 282.732C87.559 286.078 82.0761 292.072 73.6658 290.678C67.0676 289.563 70.7849 283.708 73.9446 281.199C77.1042 278.69 82.9589 272.045 82.9589 272.045C82.9589 272.045 84.26 275.669 90.6723 271.069Z" fill="#FFD800"/>
<path d="M76.1286 291.932C75.2458 291.932 74.3629 291.84 73.4336 291.7C70.3204 291.189 69.2982 289.656 68.9729 288.448C68.2295 285.52 71.1103 281.942 73.2013 280.27C76.268 277.853 81.9833 271.302 82.0763 271.255C82.3086 270.976 82.7268 270.837 83.0985 270.883C83.4702 270.976 83.7955 271.209 83.9349 271.58C83.9349 271.58 84.1208 271.999 84.6784 272.138C85.3289 272.324 86.8622 272.324 89.9754 270.094C90.4401 269.768 91.1371 269.861 91.4623 270.326C92.8563 272.138 95.0402 279.48 91.4159 283.383L91.323 283.476C88.5815 286.589 83.5632 291.932 76.1286 291.932ZM82.9127 273.671C81.147 275.623 77.1044 280.037 74.6417 281.989C72.6437 283.569 70.7386 286.31 71.1568 287.89C71.3891 288.726 72.272 289.237 73.8518 289.516C81.6116 290.817 86.7228 285.288 89.7896 281.989L89.8825 281.896C92.1129 279.526 91.2765 274.787 90.3007 272.556C87.7916 274.183 85.6541 274.74 84.0278 274.229C83.5632 274.136 83.1915 273.904 82.9127 273.671Z" fill="#1B1B1A"/>
<path d="M76.7326 275.762C79.1953 274.74 82.8196 275.623 84.2601 277.249C85.6541 278.876 84.3066 280.456 83.2843 280.456C82.2156 280.456 79.0095 279.34 75.4781 279.247C71.9467 279.201 74.7346 276.552 76.7326 275.762Z" fill="#FFF7E2"/>
<path d="M83.1914 281.571C82.6803 281.571 81.9368 281.431 80.961 281.199C79.4741 280.874 77.4761 280.409 75.4316 280.363C73.4336 280.316 72.876 279.48 72.7366 278.783C72.4113 277.017 75.0599 275.298 76.3145 274.74C79.1024 273.579 83.2843 274.461 85.05 276.552C85.9329 277.575 86.1652 278.783 85.6541 279.898C85.1894 280.874 84.2136 281.571 83.2379 281.571C83.2379 281.571 83.2379 281.571 83.1914 281.571ZM75.1063 278.179C75.1993 278.179 75.3387 278.179 75.4781 278.179C77.7549 278.225 79.8923 278.69 81.4257 279.062C82.1692 279.247 82.9126 279.387 83.1914 279.387C83.2843 279.387 83.5631 279.247 83.6561 278.969C83.7955 278.69 83.7025 278.318 83.3773 277.946C82.3086 276.692 79.1954 275.902 77.1044 276.738C76.3145 277.11 75.5245 277.714 75.1063 278.179Z" fill="#1B1B1A"/>
<path d="M139.414 280.827C139.414 280.827 98.8496 313.4 93.3202 317.256C89.9747 314.05 89.2312 311.216 89.2312 311.216L135.651 272.696L139.414 280.827Z" fill="#FFF7E2"/>
<path d="M93.3204 318.372C93.0416 318.372 92.7628 318.279 92.5769 318.046C89.0455 314.701 88.2091 311.634 88.1627 311.541C88.0697 311.123 88.2091 310.705 88.5344 310.426L134.954 271.906C135.233 271.673 135.558 271.627 135.883 271.673C136.208 271.766 136.487 271.952 136.626 272.277L140.437 280.363C140.669 280.827 140.53 281.338 140.111 281.664C138.439 283.011 99.4538 314.283 93.9709 318.139C93.7386 318.325 93.5062 318.372 93.3204 318.372ZM90.486 311.588C90.8577 312.424 91.6941 314.05 93.4133 315.816C100.476 310.612 132.956 284.591 138.067 280.502L135.233 274.461L90.486 311.588Z" fill="#1B1B1A"/>
<path d="M84.1198 312.61C81.9824 312.889 78.8228 314.887 77.9399 320.788C77.0571 326.689 77.5217 332.451 83.0976 337.051C87.7906 340.908 91.2756 334.588 91.2756 334.588L84.1198 312.61Z" fill="#FFF7E2"/>
<path d="M86.1183 339.374C84.8173 339.374 83.5627 338.863 82.3546 337.887C75.9423 332.59 76.0352 325.899 76.8251 320.602C77.7545 314.468 81.1 311.913 83.9344 311.495C84.4455 311.448 84.9566 311.727 85.096 312.238L92.2518 334.216C92.3447 334.495 92.2982 334.82 92.1588 335.099C92.0659 335.239 90.1144 338.677 87.0012 339.281C86.7688 339.374 86.4436 339.374 86.1183 339.374ZM83.3768 313.911C82.0293 314.422 79.706 316.002 78.9626 320.927C77.8939 327.99 79.3343 332.544 83.7486 336.168C84.7243 337.004 85.7001 337.283 86.6294 337.097C88.2557 336.772 89.5568 335.146 90.0679 334.402L83.3768 313.911Z" fill="#1B1B1A"/>
<path d="M93.1348 308.056C91.0439 308.056 84.678 310.658 83.9346 315.165C83.1911 319.626 81.7972 327.711 88.0236 333.473C92.949 338.027 95.3187 331.475 95.3652 327.432C95.4116 323.39 97.1309 314.701 97.1309 314.701C97.1309 314.701 93.4601 315.955 93.1348 308.056Z" fill="#FFD800"/>
<path d="M91.1366 336.121C90.1143 336.121 88.8133 335.703 87.2799 334.309C80.6353 328.176 82.0758 319.673 82.8192 315.119V315.026C83.7021 309.775 90.8113 306.987 93.0881 306.987C93.6922 306.987 94.1568 307.452 94.1568 308.056C94.2962 311.866 95.2256 313.074 95.7831 313.493C96.2478 313.864 96.666 313.725 96.7125 313.725C97.0842 313.586 97.4559 313.679 97.7812 313.957C98.06 314.236 98.1994 314.608 98.1064 314.98C98.1064 315.072 96.4337 323.622 96.3872 327.525C96.3408 330.22 95.3185 334.681 92.5305 335.889C92.2053 336.029 91.6942 336.121 91.1366 336.121ZM92.1124 309.311C89.7426 309.915 85.5142 312.145 85.0031 315.351V315.444C84.2597 319.905 83.0051 327.339 88.8133 332.683C89.9749 333.752 90.9972 334.17 91.7406 333.798C93.2275 333.148 94.2498 329.988 94.2963 327.432C94.3427 324.226 95.365 318.372 95.8296 315.769C95.4579 315.677 95.0862 315.537 94.668 315.258C93.2275 314.329 92.3912 312.285 92.1124 309.311Z" fill="#1B1B1A"/>
<path d="M96.8984 322.042C96.2014 319.487 93.2741 317.117 91.1367 317.024C88.9992 316.931 88.5811 318.929 89.1851 319.766C89.8356 320.602 92.67 322.461 94.9004 325.202C97.0843 327.897 97.456 324.087 96.8984 322.042Z" fill="#FFF7E2"/>
<path d="M96.2015 327.247C95.5974 327.247 94.9004 326.921 94.0641 325.899C92.763 324.273 91.1832 322.972 90.0215 322.042C89.2316 321.392 88.6275 320.881 88.3023 320.463C87.6982 319.673 87.6518 318.465 88.1629 317.535C88.7205 316.466 89.8357 315.909 91.1832 316.002C93.9247 316.141 97.1772 318.929 97.9672 321.857C98.3389 323.158 98.5712 326.317 96.9914 327.154C96.7126 327.154 96.4803 327.247 96.2015 327.247ZM90.9508 318.093C90.5326 318.093 90.2074 318.232 90.068 318.511C89.9286 318.743 89.9751 319.069 90.0215 319.115C90.2074 319.347 90.8114 319.858 91.369 320.323C92.5771 321.345 94.2499 322.739 95.6904 324.505C95.7833 324.598 95.8762 324.691 95.9227 324.784C96.0156 324.18 96.0156 323.158 95.7833 322.321C95.1792 320.137 92.6701 318.186 90.9973 318.093C90.9973 318.093 90.9973 318.093 90.9508 318.093Z" fill="#1B1B1A"/>
<path d="M145.223 287.054C153.169 282.221 161.811 256.944 160.696 241.424C133.978 235.244 105.681 226.23 105.681 226.23C87.4195 227.159 77.2434 237.289 78.0798 239.055C78.0798 239.055 93.3206 240.356 101.824 254.899C110.281 269.35 124.778 289.609 145.223 287.054Z" fill="#1B1B1A"/>
<path d="M141.691 288.355C127.194 288.355 113.812 277.528 100.894 255.41C92.8094 241.564 78.1262 240.123 77.9868 240.123C77.6151 240.077 77.2434 239.844 77.104 239.519C76.8252 238.915 76.9181 238.172 77.4757 237.242C79.5202 233.804 89.4638 225.951 105.634 225.115C105.773 225.115 105.913 225.115 106.006 225.161C106.284 225.254 134.582 234.222 160.928 240.309C161.393 240.402 161.718 240.82 161.765 241.285C162.926 257.13 154.098 282.872 145.78 287.937C145.641 288.029 145.502 288.076 145.362 288.076C144.154 288.262 142.9 288.355 141.691 288.355ZM79.4737 238.125C83.4233 238.776 95.4579 241.796 102.753 254.295C116.228 277.342 129.982 287.704 144.851 285.985C152.332 281.106 160.371 257.176 159.674 242.261C134.582 236.406 108.05 228.089 105.541 227.299C96.4802 227.81 89.975 230.551 86.0719 232.782C82.3546 234.873 80.2636 236.964 79.4737 238.125Z" fill="#1B1B1A"/>
<path d="M165.482 181.437C165.482 181.437 191.874 180.229 215.107 134.553C218.732 135.017 221.566 131.997 224.493 127.211C227.607 124.516 229.233 122.1 227.978 121.124C226.631 120.102 223.425 123.401 222.542 124.098C222.635 123.912 226.12 119.451 226.817 118.429C228.443 116.013 226.352 114.154 224.586 115.967C223.099 117.5 219.94 121.217 219.754 121.403C219.847 121.171 222.774 116.059 223.332 115.13C224.958 112.342 222.124 110.158 220.172 113.271C218.871 115.409 216.687 119.219 216.408 119.498C216.362 119.312 217.291 116.106 217.663 114.154C218.313 110.948 215.711 109.972 214.317 113.411C213.249 116.152 210.368 122.565 210.368 122.565C210.368 122.565 207.951 118.383 205.675 119.73C203.351 121.078 207.812 128.28 207.812 128.28C207.812 128.28 197.497 162.107 162.09 171.214C155.77 177.394 165.482 181.437 165.482 181.437Z" fill="#FFF7E2"/>
<path d="M165.482 182.552C165.343 182.552 165.204 182.506 165.064 182.459C164.832 182.366 159.674 180.136 158.931 176.279C158.559 174.328 159.349 172.423 161.254 170.564C161.393 170.425 161.579 170.332 161.719 170.285C179.654 165.685 190.899 154.44 197.172 145.891C203.12 137.806 205.861 130.417 206.512 128.559C205.582 127.025 203.352 122.844 203.91 120.474C204.095 119.777 204.467 119.266 205.025 118.94C205.722 118.522 206.512 118.429 207.348 118.615C208.417 118.894 209.392 119.73 210.043 120.52C210.972 118.429 212.506 114.944 213.203 113.132C214.225 110.577 215.851 110.019 216.966 110.344C217.942 110.623 218.779 111.692 218.732 113.365C218.871 113.179 218.964 112.946 219.104 112.76C220.451 110.623 222.31 110.391 223.425 111.088C224.401 111.692 225.005 112.993 224.587 114.526C225.656 113.969 226.724 114.201 227.375 114.759C228.351 115.548 228.815 117.221 227.561 119.08C227.421 119.266 227.235 119.544 227.003 119.87C227.561 119.823 228.072 119.916 228.536 120.288C229.094 120.706 229.373 121.31 229.419 121.961C229.419 122.518 229.512 124.191 225.284 127.955C222.868 131.858 219.894 135.715 215.758 135.715H215.712C203.724 159.087 190.853 170.564 182.164 176.093C172.545 182.18 165.808 182.552 165.529 182.599C165.482 182.552 165.482 182.552 165.482 182.552ZM162.555 172.33C161.347 173.584 160.836 174.746 161.022 175.861C161.393 177.998 164.274 179.718 165.622 180.322C166.876 180.182 172.917 179.299 181.141 174.095C189.645 168.659 202.283 157.321 214.086 134.042C214.271 133.624 214.736 133.391 215.201 133.438C217.896 133.763 220.405 131.719 223.518 126.654C223.565 126.561 223.657 126.468 223.75 126.421C226.771 123.773 227.328 122.379 227.282 122.054C226.91 122.054 226.027 122.472 223.89 124.377C223.611 124.656 223.332 124.842 223.146 124.981C222.728 125.306 222.171 125.306 221.799 124.981C221.427 124.656 221.288 124.098 221.52 123.68C221.613 123.541 221.613 123.494 223.053 121.589C224.076 120.241 225.47 118.429 225.841 117.872C226.353 117.128 226.306 116.571 226.12 116.431C225.981 116.338 225.656 116.431 225.284 116.803C224.122 118.011 221.938 120.567 220.962 121.682C220.684 122.007 220.544 122.193 220.498 122.24C220.126 122.611 219.569 122.704 219.104 122.425C218.639 122.147 218.453 121.589 218.686 121.078C218.825 120.706 222.031 115.13 222.31 114.619C222.821 113.736 222.682 113.086 222.403 112.946C222.124 112.76 221.567 113.086 221.055 113.922C220.498 114.805 219.847 115.92 219.197 117.035C217.663 119.637 217.385 120.102 217.152 120.334C216.874 120.613 216.455 120.706 216.084 120.613C215.712 120.52 215.433 120.195 215.34 119.823C215.247 119.498 215.294 119.312 215.805 117.314C216.084 116.292 216.409 114.944 216.595 114.015C216.827 112.993 216.548 112.482 216.455 112.435C216.362 112.435 215.851 112.668 215.34 113.922C214.271 116.664 211.483 122.844 211.344 123.122C211.158 123.494 210.833 123.726 210.415 123.773C209.997 123.773 209.625 123.587 209.392 123.215C208.928 122.379 207.766 120.938 206.837 120.706C206.605 120.66 206.419 120.66 206.186 120.799C206.186 120.799 206.14 120.846 206.093 120.985C205.768 122.286 207.394 125.771 208.695 127.862C208.881 128.141 208.881 128.466 208.788 128.745C208.696 129.116 206.093 137.48 199.031 147.099C192.572 155.927 181.002 167.497 162.555 172.33Z" fill="#1B1B1A"/>
<path d="M110.838 185.665C110.838 185.665 77.1507 180.508 51.1299 152.628C47.6914 153.976 44.2064 151.745 40.2104 147.889C36.5396 146.03 34.3557 144.125 35.3315 142.87C36.3537 141.569 40.3033 143.939 41.3256 144.404C41.2326 144.264 36.7255 140.779 35.7961 139.989C33.6122 138.038 35.1921 135.761 37.376 137.062C39.1882 138.177 43.1842 141.012 43.4165 141.151C43.2771 140.965 39.1417 136.737 38.3982 135.947C36.1214 133.67 38.3053 130.836 41.0003 133.391C42.8125 135.111 45.8792 138.27 46.2045 138.456C46.2045 138.27 44.5317 135.389 43.6489 133.624C42.2084 130.696 44.4852 129.07 46.7156 132.09C48.4348 134.46 52.8491 139.989 52.8491 139.989C52.8491 139.989 54.1037 135.343 56.7057 136.086C59.3078 136.83 56.7987 144.915 56.7987 144.915C56.7987 144.915 76.1284 167.822 111.768 175.118C119.202 179.3 110.838 185.665 110.838 185.665Z" fill="#FFF7E2"/>
<path d="M110.838 186.734C110.792 186.734 110.745 186.734 110.652 186.734C110.281 186.688 101.963 185.386 90.3003 180.6C79.6597 176.233 64.233 168.101 50.7579 153.883C46.7154 154.951 42.8123 151.978 39.5132 148.771C34.4949 146.216 34.1232 144.589 33.9838 144.032C33.8444 143.381 33.9838 142.731 34.402 142.173C34.7737 141.709 35.2384 141.476 35.796 141.383C35.4707 141.105 35.1919 140.919 35.0525 140.733C33.3797 139.246 33.3797 137.48 34.1232 136.504C34.6343 135.807 35.6101 135.343 36.7717 135.622C35.9818 134.228 36.2606 132.787 37.0505 131.997C37.9798 131.022 39.8385 130.789 41.6971 132.555C41.8365 132.694 42.0224 132.88 42.2082 133.066C41.7436 131.393 42.3012 130.185 43.184 129.674C44.1598 129.07 45.879 129.163 47.5053 131.393C48.667 132.973 50.9903 135.947 52.4307 137.759C52.8954 136.83 53.5924 135.761 54.5681 135.25C55.3116 134.832 56.1015 134.739 56.8914 134.971C57.4955 135.157 58.0066 135.575 58.3319 136.179C59.4935 138.27 58.3783 142.777 57.8672 144.543C60.7481 147.703 79.7061 167.358 111.86 173.909C111.953 173.909 112.093 173.956 112.186 174.049C114.509 175.35 115.764 177.023 115.857 179.021C116.135 182.924 111.628 186.409 111.442 186.548C111.303 186.641 111.071 186.734 110.838 186.734ZM51.1297 151.513C51.4085 151.513 51.7337 151.652 51.9196 151.838C75.7565 177.301 106.378 183.714 110.559 184.457C111.768 183.435 113.905 181.158 113.766 179.114C113.673 177.952 112.883 176.93 111.303 176C75.803 168.705 56.055 145.705 55.8692 145.472C55.6368 145.194 55.5439 144.822 55.6833 144.45C56.3803 142.127 57.1237 138.317 56.4732 137.155C56.3803 137.016 56.3338 137.016 56.3338 137.016C56.1015 136.923 55.9156 136.969 55.6833 137.109C54.8005 137.62 54.057 139.385 53.8247 140.175C53.7317 140.593 53.4065 140.872 52.9883 140.965C52.5701 141.058 52.1519 140.919 51.9196 140.593C51.7337 140.361 47.5053 135.064 45.7861 132.694C44.9962 131.626 44.3921 131.533 44.3457 131.533C44.2527 131.626 44.1598 132.183 44.6245 133.112C45.0426 133.995 45.6932 135.157 46.2043 136.086C47.2265 137.945 47.273 138.084 47.3195 138.41C47.3195 138.828 47.1336 139.153 46.8083 139.385C46.4831 139.571 46.0649 139.571 45.6932 139.385C45.4144 139.246 45.0426 138.874 42.9981 136.783C42.1153 135.9 41.0931 134.878 40.3031 134.135C39.5597 133.438 38.9556 133.298 38.7233 133.531C38.491 133.763 38.491 134.414 39.2344 135.11C39.6526 135.529 44.1133 140.129 44.3457 140.454C44.6709 140.872 44.6245 141.476 44.2527 141.848C43.881 142.22 43.3234 142.313 42.8588 142.034C42.8123 141.987 42.487 141.802 42.0688 141.476C40.8143 140.593 38.2122 138.781 36.8647 137.945C36.4 137.666 36.0748 137.666 35.9818 137.806C35.8424 137.991 35.9354 138.549 36.5859 139.107C37.097 139.571 38.7698 140.872 40.0708 141.894C42.1153 143.474 42.1153 143.521 42.2547 143.66C42.58 144.032 42.58 144.59 42.2547 145.008C41.9294 145.379 41.4183 145.519 40.9536 145.333C40.7213 145.24 40.4425 145.101 40.1173 144.915C37.5616 143.614 36.5859 143.428 36.2606 143.521C36.3071 143.846 37.1899 145.054 40.7678 146.866C40.8607 146.913 40.9536 146.959 41.0466 147.052C45.3214 151.234 48.2488 152.582 50.8044 151.559C50.8509 151.559 50.9903 151.513 51.1297 151.513Z" fill="#1B1B1A"/>
<path d="M111.349 176.465C111.349 176.465 124.871 173.166 129.238 171.586C129.378 167.032 128.17 162.061 128.17 162.061L136.394 160.713C136.394 160.713 137.509 168.055 137.602 171.029C143.736 172.19 151.914 173.212 151.914 173.212C151.914 173.212 154.609 197.7 133.56 198.211C127.984 198.304 110.931 185.154 111.349 176.465Z" fill="#FFF7E2"/>
<path d="M133.467 199.28C129.843 199.28 122.548 194.773 117.018 189.104C114.416 186.409 110.002 181.205 110.234 176.419C110.281 175.954 110.606 175.536 111.071 175.396C111.21 175.35 123.291 172.423 128.123 170.796C128.123 166.661 127.055 162.339 127.055 162.293C126.962 162.014 127.055 161.689 127.194 161.457C127.38 161.224 127.612 161.038 127.938 160.992L136.162 159.644C136.441 159.598 136.766 159.644 136.998 159.83C137.231 160.016 137.37 160.248 137.417 160.527C137.463 160.806 138.346 166.754 138.578 170.099C144.526 171.168 151.96 172.097 152.053 172.097C152.564 172.144 152.936 172.562 152.983 173.073C153.029 173.584 154.284 185.665 147.593 193.286C144.247 197.096 139.508 199.14 133.56 199.28C133.56 199.28 133.514 199.28 133.467 199.28ZM112.465 177.348C112.743 180.136 114.927 183.807 118.598 187.57C124.081 193.193 130.819 197.096 133.467 197.096H133.514C138.857 196.956 143.039 195.191 145.966 191.845C151.078 186.037 151.031 176.93 150.892 174.142C148.615 173.863 142.296 173.027 137.417 172.051C136.906 171.958 136.534 171.54 136.534 171.029C136.487 168.845 135.79 164.059 135.512 161.921L129.517 162.897C129.889 164.663 130.493 168.194 130.4 171.586C130.4 172.051 130.122 172.423 129.703 172.562C125.847 174.002 115.531 176.558 112.465 177.348Z" fill="#1B1B1A"/>
<path d="M147.36 172.748C155.445 196.12 117.436 197.7 117.715 175.164C114.37 175.117 101.359 171.168 92.9025 166.428C90.9045 174.792 87.2337 178.184 85.7003 183.807C90.9509 187.989 99.4542 192.682 107.26 192.96C109.955 201.092 108.143 220.793 101.359 226.462C101.359 226.462 140.53 263.263 174.45 244.909C161.997 215.496 162.508 193.053 163.205 192.356C170.222 190.591 175.1 187.106 178.957 183.249C176.913 174.699 175.379 168.241 173.242 165.267C165.714 169.867 151.171 172.655 147.36 172.748Z" fill="#00B2B8"/>
<path d="M153.866 251.043C144.712 251.043 134.908 248.534 124.685 243.469C110.652 236.545 100.709 227.252 100.616 227.159C100.383 226.927 100.244 226.648 100.291 226.323C100.291 225.998 100.43 225.719 100.662 225.533C106.796 220.422 108.701 202.068 106.47 193.89C98.6642 193.379 90.3469 188.779 85.0498 184.55C84.7245 184.271 84.5851 183.853 84.678 183.435C85.375 180.879 86.4902 178.788 87.6518 176.558C89.1852 173.677 90.765 170.703 91.8338 166.103C91.9267 165.778 92.159 165.499 92.4378 165.36C92.7631 165.22 93.0883 165.22 93.4136 165.406C101.685 170.053 114.648 173.956 117.715 174.002C118.319 174.002 118.784 174.514 118.784 175.118C118.691 183.481 123.988 187.152 127.194 188.546C132.956 191.148 140.065 190.312 144.108 186.641C146.524 184.457 148.847 180.275 146.338 173.027C146.245 172.701 146.292 172.33 146.478 172.051C146.663 171.772 146.989 171.586 147.36 171.586C150.799 171.54 165.296 168.798 172.731 164.245C173.195 163.966 173.846 164.059 174.171 164.523C176.448 167.637 177.935 174.002 180.026 182.784L180.072 182.924C180.165 183.296 180.072 183.667 179.794 183.946C175.1 188.593 170.129 191.566 164.135 193.193C163.763 196.585 163.995 217.309 175.472 244.445C175.704 244.956 175.472 245.56 175.008 245.839C168.549 249.277 161.44 251.043 153.866 251.043ZM102.939 226.369C105.634 228.739 114.277 235.941 125.661 241.564C138.021 247.651 156.142 252.994 173.009 244.352C166.69 229.157 163.949 216.24 162.787 207.969C161.765 200.906 161.347 192.589 162.415 191.52C162.555 191.381 162.741 191.288 162.926 191.241C168.595 189.801 173.335 187.152 177.749 182.831C176.03 175.582 174.589 169.728 172.87 166.661C165.621 170.703 153.726 173.166 148.801 173.677C150.474 179.625 149.358 184.782 145.595 188.267C140.948 192.496 132.863 193.472 126.311 190.544C120.364 187.896 116.879 182.645 116.647 176.093C112.139 175.489 101.359 172.051 93.5995 167.962C92.4843 172.097 90.9045 174.978 89.557 177.58C88.4882 179.578 87.6054 181.298 86.9549 183.296C92.159 187.292 100.058 191.52 107.26 191.752C107.725 191.752 108.097 192.078 108.236 192.496C111.071 200.86 109.398 219.539 102.939 226.369Z" fill="#1B1B1A"/>
<path d="M63.6293 75.7737C63.8617 89.1558 50.8977 107.603 37.7944 100.865C24.7375 94.1277 5.08246 99.7965 5.08246 99.7965C5.08246 99.7965 12.517 77.6323 27.8971 76.6565C43.3238 75.7272 63.6293 75.7737 63.6293 75.7737Z" fill="#FFF7E2"/>
<path d="M43.5561 103.421C41.4651 103.421 39.3741 102.91 37.3761 101.887C24.8304 95.4287 5.63998 100.819 5.45411 100.865C5.08239 100.958 4.6642 100.865 4.38541 100.586C4.10661 100.308 4.01368 99.8894 4.15308 99.4712C4.47834 98.5419 12.0058 76.6101 27.9435 75.5878C43.1843 74.6585 63.5363 74.705 63.7222 74.705C64.3263 74.705 64.7909 75.1696 64.7909 75.7737C64.9768 85.1598 59.1221 96.2186 51.5017 101.005C48.8532 102.584 46.1581 103.421 43.5561 103.421ZM21.7636 96.4974C27.2466 96.4974 33.2407 97.3338 38.3519 99.9359C43.1843 102.445 47.5521 100.865 50.3401 99.146C56.9847 95.0105 62.2818 85.2062 62.607 76.8889C58.1928 76.8889 41.1863 76.9818 28.083 77.7717C16.2342 78.5152 9.17137 92.966 6.98748 98.2167C9.82189 97.5661 15.4907 96.4974 21.7636 96.4974Z" fill="#1B1B1A"/>
<path d="M63.7221 75.8201C56.5199 87.1113 35.5174 95.3358 28.3152 82.5112C21.113 69.6867 1.64383 63.5532 1.64383 63.5532C1.64383 63.5532 17.6745 48.4053 35.1456 54.4459C49.7359 59.3713 63.7221 75.8201 63.7221 75.8201Z" fill="#B3049E"/>
<path d="M40.164 90.0851C39.9782 90.0851 39.7923 90.0851 39.6064 90.0851C34.077 89.9457 29.8486 87.483 27.3395 83.0223C20.4625 70.7089 1.45802 64.6219 1.27216 64.5289C0.900429 64.3895 0.621618 64.1107 0.528686 63.739C0.435755 63.3673 0.575158 62.9491 0.853952 62.7168C1.50447 62.0662 17.5816 47.1972 35.471 53.3771C50.1542 58.3954 63.908 74.4261 64.5121 75.1231C64.8373 75.4948 64.8374 76.006 64.605 76.4242C59.6796 84.184 49.039 90.0851 40.164 90.0851ZM3.82777 63.0885C8.93901 64.9936 23.204 71.0806 29.291 81.9536C31.9396 86.6931 36.4003 87.8083 39.6994 87.9012C47.5986 88.0871 57.5422 82.79 62.3747 75.913C59.6797 72.8928 47.3662 59.7429 34.8669 55.4216C21.0666 50.6821 8.0097 59.7429 3.82777 63.0885Z" fill="#1B1B1A"/>
<path d="M183.325 36.2313C154.563 0.54556 109.909 -4.14748 79.6135 19.4571C64.5121 31.213 62.4677 49.2882 62.4677 49.2882C62.4677 49.2882 52.2452 55.4217 47.738 75.0302C45.6935 84.0446 47.6451 117.732 65.0697 115.781C65.0697 115.781 106.006 110.065 129.193 105.976C152.704 105.558 198.659 102.77 198.659 102.77C202.051 77.2606 193.501 48.8235 183.325 36.2313Z" fill="#FFF7E2"/>
<path d="M63.629 116.989C59.9582 116.989 56.7521 115.502 54.1035 112.482C45.6932 103.049 45.0892 81.7678 46.669 74.7979C50.7115 57.048 59.3542 50.1246 61.4451 48.6377C61.9098 45.5245 64.8836 29.5402 78.9162 18.6208C94.1106 6.77201 113.022 1.80016 132.166 4.54164C151.868 7.37605 170.314 18.3885 184.161 35.5343C194.523 48.3589 203.119 77.0747 199.681 102.91C199.634 103.421 199.17 103.839 198.659 103.839C198.194 103.886 152.565 106.627 129.239 107.045C106.331 111.134 65.5806 116.803 65.1624 116.849C64.6977 116.942 64.1866 116.989 63.629 116.989ZM121.711 5.98208C107.121 5.98208 92.6701 10.6751 80.2638 20.2935C65.72 31.6312 63.5825 49.1953 63.5361 49.3811C63.4896 49.7064 63.3037 50.0317 63.0249 50.1711C62.932 50.2175 53.1277 56.3975 48.8064 75.2626C47.3195 81.7213 47.9236 102.259 55.7298 110.995C58.2855 113.829 61.3522 115.084 64.9301 114.666C65.3018 114.619 106.099 108.95 128.96 104.861C129.006 104.861 129.053 104.861 129.146 104.861C150.567 104.49 191.085 102.073 197.636 101.702C200.703 76.703 192.386 49.1953 182.442 36.8818C166.133 16.6692 143.736 5.98208 121.711 5.98208Z" fill="#1B1B1A"/>
<path d="M65.2092 113.504C68.7871 149.887 99.5009 171.307 134.536 167.915C169.571 164.477 195.592 137.48 192.014 101.144C188.436 64.7613 157.304 39.391 122.269 42.783C87.2804 46.175 61.6778 77.1212 65.2092 113.504Z" fill="#FFF7E2"/>
<path d="M127.288 169.356C112.418 169.356 98.4787 164.895 87.4199 156.485C74.1306 146.402 65.8597 131.161 64.1405 113.597C62.4213 95.8004 67.486 78.5616 78.452 65.0865C89.3714 51.6579 104.891 43.3405 122.223 41.6677C139.554 39.995 156.375 45.1062 169.711 56.1651C183.093 67.2704 191.41 83.2082 193.176 101.005C194.895 118.569 189.738 135.11 178.632 147.61C167.852 159.691 152.286 167.311 134.722 169.03C132.213 169.216 129.75 169.356 127.288 169.356ZM66.3244 113.411C67.9972 130.371 75.9428 145.054 88.7674 154.765C101.22 164.198 117.437 168.473 134.49 166.8C151.496 165.127 166.598 157.786 177.006 146.123C187.693 134.135 192.665 118.15 190.992 101.19C189.319 83.9516 181.234 68.5714 168.317 57.8378C155.492 47.1507 139.183 42.1789 122.455 43.8516C105.727 45.4779 90.7189 53.5165 80.1712 66.4805C69.5305 79.4909 64.6516 96.1721 66.3244 113.411Z" fill="#1B1B1A"/>
<path d="M67.7646 113.504C67.7646 113.504 66.1847 106.209 57.1704 105.791C47.6449 105.372 44.764 118.011 50.3399 125.074C55.9158 132.09 66.4635 131.486 69.3444 125.446L67.7646 113.504Z" fill="#FFF7E2"/>
<path d="M60.7482 131.3C56.4733 131.3 52.2449 129.256 49.5034 125.817C46.1579 121.589 45.4609 115.037 47.9236 110.251C49.7822 106.581 53.2207 104.583 57.2632 104.768C67.0211 105.233 68.8797 113.272 68.8797 113.365C69.0191 113.969 68.6474 114.526 68.0433 114.666C67.4393 114.805 66.8816 114.433 66.7422 113.829C66.6958 113.55 65.1624 107.324 57.1238 106.952C53.9177 106.813 51.3156 108.346 49.8287 111.274C47.7378 115.316 48.3418 120.892 51.1762 124.47C53.8248 127.769 57.9602 129.535 62.0028 129.07C64.9766 128.745 67.2534 127.258 68.3221 125.074C68.6009 124.516 69.2514 124.284 69.7625 124.563C70.3201 124.842 70.5525 125.492 70.2737 126.003C68.9262 128.884 65.9059 130.836 62.2351 131.254C61.7704 131.254 61.2593 131.3 60.7482 131.3Z" fill="#1B1B1A"/>
<path d="M59.2619 124.377C61.9104 121.821 58.9366 114.108 54.7547 118.011C54.6618 115.502 56.1022 113.829 59.8195 113.876C59.3084 110.577 55.5446 109.183 55.5446 109.183C61.6317 107.696 67.254 118.243 59.2619 124.377Z" fill="#FFF7E2"/>
<path d="M59.2614 125.446C58.9826 125.446 58.7038 125.353 58.4715 125.12C58.0533 124.702 58.0533 124.005 58.518 123.587C59.6332 122.518 59.2614 119.73 58.0998 118.522C57.6351 118.011 56.8452 117.5 55.4977 118.801C55.1724 119.08 54.7543 119.173 54.3361 119.033C53.9643 118.894 53.6855 118.476 53.6391 118.058C53.5926 116.524 54.0108 115.316 54.8936 114.387C55.6835 113.55 56.8452 113.039 58.3321 112.853C57.4028 111.041 55.1724 110.205 55.126 110.205C54.5684 109.973 54.2896 109.368 54.4755 108.811C54.7078 108.253 55.3118 107.975 55.8694 108.16C56.0553 108.207 60.2372 109.833 60.8413 113.736C60.8877 114.062 60.7948 114.387 60.5625 114.619C60.3301 114.851 60.0513 114.991 59.7261 114.991C58.1927 114.944 57.0311 115.27 56.427 115.874C57.7281 115.688 58.8432 116.245 59.6331 117.035C61.5382 119.033 62.0494 123.169 59.9584 125.167C59.819 125.353 59.5402 125.446 59.2614 125.446Z" fill="#1B1B1A"/>
<path d="M189.969 101.609C189.969 101.609 190.108 94.1276 198.89 91.9902C208.183 89.7134 213.434 101.609 209.345 109.601C205.21 117.593 194.755 119.033 190.759 113.643L189.969 101.609Z" fill="#FFF7E2"/>
<path d="M197.776 117.918C194.477 117.918 191.596 116.617 189.876 114.294C189.505 113.829 189.598 113.132 190.109 112.76C190.573 112.389 191.27 112.482 191.642 112.993C193.083 114.944 195.638 115.92 198.612 115.688C202.701 115.362 206.418 112.807 208.37 109.043C210.461 104.954 209.95 99.3782 207.162 95.8003C205.117 93.1983 202.283 92.2225 199.17 92.9659C191.363 94.871 191.085 101.283 191.085 101.562C191.085 102.166 190.573 102.631 189.969 102.631C189.365 102.631 188.901 102.12 188.901 101.516C188.901 101.423 189.133 93.1983 198.659 90.8285C202.608 89.8527 206.325 91.1538 208.881 94.4064C212.18 98.6348 212.784 105.186 210.321 109.972C208.045 114.387 203.63 117.36 198.798 117.779C198.426 117.918 198.101 117.918 197.776 117.918Z" fill="#1B1B1A"/>
<path d="M200.424 110.577C196.381 109.136 198.751 100.4 203.63 103.467C203.258 101.005 201.492 99.657 197.868 100.4C197.729 97.1014 201.121 94.964 201.121 94.964C194.848 94.6852 191.363 106.116 200.424 110.577Z" fill="#FFF7E2"/>
<path d="M200.424 111.692C200.285 111.692 200.192 111.692 200.052 111.645C198.519 111.088 197.497 109.74 197.311 107.881C197.078 105.651 198.008 103.374 199.634 102.352C200.052 102.073 200.703 101.794 201.493 101.794C200.749 101.283 199.588 101.19 198.054 101.516C197.729 101.562 197.404 101.516 197.171 101.33C196.939 101.144 196.753 100.819 196.753 100.54C196.567 96.6368 200.377 94.2206 200.517 94.1276C201.028 93.8024 201.679 93.9882 202.004 94.4994C202.329 95.0105 202.143 95.661 201.632 95.9863C201.632 95.9863 199.634 97.2873 199.03 99.2389C200.517 99.1459 201.771 99.4247 202.701 100.075C203.723 100.819 204.374 101.934 204.606 103.421C204.652 103.839 204.466 104.257 204.141 104.49C203.769 104.722 203.305 104.722 202.98 104.49C202.097 103.932 201.353 103.885 200.749 104.257C199.866 104.815 199.262 106.348 199.402 107.742C199.448 108.3 199.727 109.322 200.703 109.694C201.26 109.88 201.586 110.53 201.353 111.088C201.26 111.413 200.842 111.692 200.424 111.692Z" fill="#1B1B1A"/>
<path d="M124.824 104.722C125.8 108.486 136.115 111.878 132.909 116.896C130.911 119.963 125.661 119.777 125.103 113.968C124.778 110.623 124.824 104.722 124.824 104.722Z" fill="#FFF7E2"/>
<path d="M129.378 119.963C129.007 119.963 128.588 119.916 128.217 119.823C125.893 119.266 124.314 117.128 124.035 114.108C123.71 110.762 123.756 105.001 123.756 104.768C123.756 104.211 124.174 103.746 124.732 103.7C125.289 103.607 125.801 103.978 125.94 104.49C126.219 105.605 127.938 106.906 129.564 108.207C132.631 110.623 136.395 113.597 133.886 117.5C132.863 119.033 131.144 119.963 129.378 119.963ZM125.94 108.067C125.986 109.926 126.033 112.249 126.219 113.876C126.405 115.967 127.334 117.361 128.728 117.686C129.936 117.965 131.283 117.407 131.98 116.292C133.328 114.201 131.423 112.482 128.124 109.88C127.38 109.275 126.637 108.671 125.94 108.067Z" fill="#1B1B1A"/>
<path d="M160.65 81.9536C154.191 79.9091 152.565 87.0184 156.886 87.2042C161.533 87.3901 165.389 89.2023 165.947 88.7841C167.294 87.8083 164.274 83.0688 160.65 81.9536Z" fill="#FFF7E2"/>
<path d="M165.715 89.8992C165.157 89.8992 164.413 89.7134 163.391 89.4346C161.718 88.9699 159.442 88.3659 156.886 88.2729C155.353 88.2265 154.191 87.483 153.68 86.2285C153.122 84.8809 153.448 83.2546 154.563 82.093C155.26 81.3495 157.258 79.7232 161.021 80.9313C164.181 81.9536 167.016 85.2991 167.387 87.576C167.573 88.7841 167.016 89.4346 166.644 89.6669C166.365 89.8063 166.04 89.8992 165.715 89.8992ZM158.419 82.6506C157.444 82.6506 156.654 82.9294 156.096 83.5334C155.585 84.091 155.399 84.8345 155.631 85.3921C155.864 85.9496 156.468 86.089 156.932 86.089C159.72 86.182 162.276 86.879 163.949 87.2972C164.367 87.3901 164.785 87.5295 165.157 87.6224C164.785 86.4608 162.834 83.7658 160.324 82.9758C159.627 82.7435 158.977 82.6506 158.419 82.6506Z" fill="#1B1B1A"/>
<path d="M91.3229 88.4124C97.7352 86.1821 99.5009 93.2913 95.1796 93.5701C90.533 93.8489 86.7228 95.754 86.1188 95.3358C84.8177 94.453 87.6986 89.667 91.3229 88.4124Z" fill="#FFF7E2"/>
<path d="M86.3975 96.4974C86.0722 96.4974 85.7934 96.4045 85.5146 96.2651C85.1429 96.0328 84.5853 95.4287 84.7247 94.1741C85.05 91.9438 87.7914 88.4589 90.9511 87.3901C94.6684 86.0891 96.7129 87.6689 97.4563 88.4124C98.5715 89.574 98.9432 91.2003 98.4321 92.5478C97.921 93.8024 96.8058 94.5923 95.2724 94.6853C92.7168 94.8247 90.44 95.5217 88.7672 95.9863C87.6985 96.3116 86.9551 96.4974 86.3975 96.4974ZM93.6926 89.1094C93.0885 89.1094 92.438 89.2488 91.6946 89.4811C89.1854 90.3639 87.3268 93.059 86.955 94.2206C87.3268 94.1277 87.745 93.9883 88.1632 93.8953C89.8359 93.4307 92.3451 92.6872 95.133 92.5014C95.5977 92.4549 96.2018 92.3155 96.3876 91.7579C96.62 91.2003 96.3876 90.4569 95.8765 89.9458C95.3654 89.3882 94.6219 89.1094 93.6926 89.1094Z" fill="#1B1B1A"/>
<path d="M85.3754 112.063C85.4218 112.482 87.7916 103.003 96.3413 102.491C104.333 102.027 108.376 111.181 108.376 110.716C108.004 104.304 85.0036 105.651 85.3754 112.063Z" fill="#FFF7E2"/>
<path d="M85.4215 113.132C85.3751 113.132 85.2822 113.132 85.2357 113.132C84.7246 113.039 84.3528 112.621 84.3064 112.11C84.3064 111.877 84.3528 111.645 84.4922 111.459C84.4922 111.413 84.5387 111.413 84.5387 111.366C86.9085 105.233 91.0904 101.701 96.341 101.376C99.7795 101.19 104.798 102.491 109.119 109.787C109.166 109.833 109.166 109.879 109.212 109.926C109.398 110.112 109.491 110.344 109.537 110.623C109.584 111.134 109.258 111.599 108.747 111.738C107.911 112.017 107.493 111.32 107.26 110.902C103.45 104.536 99.3148 103.374 96.4804 103.56C92.0661 103.839 88.6741 106.766 86.5832 112.156C86.4438 112.435 86.165 113.132 85.4215 113.132Z" fill="#1B1B1A"/>
<path d="M147.082 106.023C147.128 106.441 149.498 96.962 158.048 96.4509C166.04 95.9863 170.082 105.094 170.082 104.675C169.711 98.2631 146.71 99.6106 147.082 106.023Z" fill="#FFF7E2"/>
<path d="M147.128 107.138C147.082 107.138 146.989 107.138 146.942 107.138C146.431 107.045 146.06 106.627 146.013 106.116C146.013 105.883 146.06 105.651 146.199 105.465C146.199 105.419 146.245 105.419 146.245 105.372C148.615 99.2388 152.797 95.7074 158.048 95.3822C161.486 95.1963 166.458 96.4974 170.826 103.792C170.872 103.839 170.872 103.885 170.919 103.932C171.105 104.118 171.198 104.35 171.244 104.629C171.291 105.14 170.965 105.605 170.454 105.744C169.618 106.023 169.2 105.326 168.967 104.908C165.157 98.5419 161.022 97.3802 158.187 97.5661C153.773 97.8449 150.381 100.772 148.29 106.162C148.151 106.441 147.872 107.138 147.128 107.138Z" fill="#1B1B1A"/>
<path d="M130.308 142.777C144.48 141.755 156.236 131.765 158.187 118.987C158.234 118.615 158.001 118.243 157.63 118.197C157.258 118.15 156.886 118.383 156.84 118.754C154.935 130.882 143.736 140.407 130.215 141.383C117.251 142.313 105.263 135.25 101.081 124.237C100.941 123.866 100.57 123.726 100.198 123.819C99.8261 123.959 99.6867 124.33 99.7797 124.702C104.194 136.318 116.74 143.753 130.308 142.777Z" fill="#1B1B1A"/>
<path d="M127.938 143.288C115.113 143.288 103.636 135.947 99.4079 124.888C99.315 124.609 99.315 124.284 99.4544 124.052C99.5938 123.773 99.7796 123.587 100.058 123.447C100.337 123.355 100.662 123.355 100.895 123.494C101.174 123.633 101.359 123.819 101.499 124.098C105.588 134.971 117.39 141.894 130.168 140.965C143.504 139.989 154.563 130.65 156.421 118.708C156.514 118.104 157.072 117.686 157.676 117.779C158.28 117.872 158.698 118.429 158.605 119.08C156.607 132.044 144.712 142.22 130.308 143.242C129.518 143.242 128.728 143.288 127.938 143.288ZM100.477 124.237C100.43 124.237 100.43 124.237 100.384 124.237C100.337 124.284 100.291 124.33 100.244 124.377C100.198 124.423 100.198 124.516 100.244 124.563C104.566 135.993 116.926 143.288 130.308 142.313C144.294 141.29 155.864 131.44 157.815 118.894C157.815 118.754 157.722 118.615 157.583 118.615C157.444 118.615 157.304 118.708 157.304 118.847C155.399 131.207 144.015 140.872 130.261 141.848C117.111 142.777 104.937 135.622 100.709 124.423C100.662 124.377 100.662 124.33 100.57 124.284C100.523 124.237 100.477 124.237 100.477 124.237Z" fill="#1B1B1A"/>
<path d="M113.719 1.61432C72.2719 6.4003 42.5803 44.2235 47.134 86.2285C61.1666 68.2927 92.4846 61.2299 121.758 57.8844C149.591 54.6783 181.374 57.6056 197.915 70.012C197.915 69.8261 197.869 69.5938 197.869 69.4079C192.944 27.1705 155.306 -3.17165 113.719 1.61432Z" fill="#CC05B5"/>
<path d="M47.1337 87.2972C47.0407 87.2972 46.9478 87.2972 46.8549 87.2507C46.4367 87.1113 46.1114 86.7396 46.0649 86.3214C43.8346 65.6906 49.5963 45.4315 62.328 29.2614C75.0596 13.0448 93.2742 2.86884 113.58 0.499081C155.724 -4.33336 193.966 26.4735 198.891 69.222C198.891 69.3149 198.937 69.4543 198.937 69.5937L198.984 69.826C199.03 70.2442 198.798 70.6624 198.426 70.8948C198.055 71.1271 197.59 71.0806 197.218 70.8018C182.767 59.9753 153.169 55.2822 121.851 58.9066C83.377 63.3208 59.2148 72.4746 47.9701 86.879C47.7842 87.1578 47.4589 87.2972 47.1337 87.2972ZM113.719 1.61426L113.859 2.68297C74.0374 7.28308 44.9962 43.2476 48.0165 83.487C54.6611 76.0989 64.8371 70.0584 78.4051 65.5047C90.0216 61.6016 104.147 58.7672 121.618 56.7227C136.348 55.0499 151.031 55.0964 164.181 56.9086C177.563 58.7672 188.668 62.438 196.475 67.5957C190.806 26.9846 154.144 -2.01008 113.812 2.6365L113.719 1.61426Z" fill="#1B1B1A"/>
<path d="M46.9944 70.616C46.5297 75.7273 46.5762 80.9314 47.1338 86.1821C88.3489 65.226 160.743 60.2077 197.869 69.9191C197.869 69.7332 197.822 69.5009 197.822 69.315C197.218 64.2502 196.196 59.3713 194.709 54.6783C172.963 50.0782 146.292 48.9165 117.901 52.1691C91.0439 55.3288 66.6029 61.9269 46.9944 70.616Z" fill="#FFF7E2"/>
<path d="M47.1336 87.2971C46.9477 87.2971 46.7618 87.2507 46.6224 87.1578C46.2972 86.9719 46.1113 86.6931 46.0648 86.3214C45.5073 81.0707 45.4608 75.7272 45.9255 70.523C45.9719 70.1513 46.2043 69.7795 46.576 69.6402C67.0674 60.5793 91.6943 54.167 117.808 51.1932C145.455 47.9871 172.127 48.8699 194.941 53.7024C195.313 53.7953 195.638 54.0741 195.778 54.4458C197.311 59.2783 198.38 64.2501 198.937 69.2684C198.937 69.3614 198.984 69.5008 198.984 69.6402L199.03 69.8725C199.077 70.2442 198.937 70.5695 198.659 70.8018C198.38 71.0341 198.008 71.1271 197.683 71.0341C160.882 61.3692 88.9528 66.2481 47.6912 87.2042C47.4588 87.2507 47.3194 87.2971 47.1336 87.2971ZM48.0164 71.3594C47.6447 75.7272 47.6912 80.1414 48.0629 84.5092C89.371 64.2501 159.441 59.3712 196.614 68.525C196.056 64.1572 195.127 59.8823 193.826 55.6539C171.383 51.0074 145.176 50.171 117.994 53.3307C92.3913 56.3045 68.229 62.5309 48.0164 71.3594Z" fill="#1B1B1A"/>
<path d="M118.365 6.02868C118.505 7.56205 116.878 8.95602 114.694 9.18835C112.511 9.42067 110.652 8.35196 110.513 6.81859C110.373 5.28522 111.999 3.89125 114.183 3.65892C116.321 3.47306 118.226 4.49531 118.365 6.02868Z" fill="#FFF200"/>
<path d="M114.184 10.3035C111.674 10.3035 109.676 8.90957 109.491 6.91154C109.398 6.02869 109.676 5.19231 110.28 4.44886C111.117 3.42661 112.511 2.72962 114.091 2.59023C116.879 2.31143 119.248 3.79833 119.481 5.93575C119.574 7.00447 119.109 8.11964 118.133 8.90956C117.297 9.65302 116.089 10.1177 114.834 10.2571C114.602 10.3035 114.369 10.3035 114.184 10.3035ZM114.741 4.72764C114.602 4.72764 114.462 4.72764 114.277 4.72764C113.301 4.82057 112.371 5.23878 111.907 5.84283C111.767 6.02869 111.581 6.35395 111.581 6.67921C111.674 7.46913 112.929 8.25905 114.602 8.07318C115.392 7.98025 116.182 7.70146 116.693 7.23681C116.925 7.05094 117.343 6.63274 117.297 6.12161C117.204 5.42463 116.182 4.72764 114.741 4.72764Z" fill="#1B1B1A"/>
<path d="M120.178 24.4291C120.317 25.9625 118.691 27.3565 116.507 27.5888C114.323 27.8211 112.465 26.7524 112.325 25.2191C112.186 23.6857 113.812 22.2917 115.996 22.0594C118.134 21.8271 119.992 22.8958 120.178 24.4291Z" fill="#FFF200"/>
<path d="M115.949 28.7039C113.44 28.7039 111.442 27.31 111.256 25.3119C111.024 23.1745 113.069 21.2694 115.903 20.9906C118.691 20.7118 121.061 22.1987 121.293 24.3362C121.386 25.4049 120.921 26.52 119.945 27.31C119.109 28.0534 117.901 28.5181 116.646 28.6575C116.414 28.7039 116.182 28.7039 115.949 28.7039ZM116.507 23.128C116.368 23.128 116.228 23.128 116.042 23.128C114.37 23.3139 113.301 24.2897 113.394 25.0796C113.487 25.8695 114.741 26.6595 116.414 26.4736C117.204 26.3807 117.994 26.1019 118.505 25.6372C118.737 25.4513 119.156 25.0331 119.109 24.522C119.016 23.825 117.947 23.128 116.507 23.128Z" fill="#1B1B1A"/>
<path d="M69.3436 35.4415C69.483 36.9749 67.8567 38.3689 65.6728 38.6012C63.4889 38.8335 61.6303 37.7648 61.4909 36.2314C61.3515 34.6981 62.9778 33.3041 65.1617 33.0718C67.3456 32.8859 69.2042 33.9081 69.3436 35.4415Z" fill="#FFF200"/>
<path d="M65.162 39.7163C62.6529 39.7163 60.6548 38.3223 60.469 36.3243C60.2366 34.1869 62.2811 32.2818 65.1155 32.003C67.9035 31.7242 70.2733 33.2111 70.5056 35.3485C70.6914 37.486 68.6934 39.3911 65.859 39.6699C65.5802 39.7163 65.3943 39.7163 65.162 39.7163ZM65.7196 34.1404C65.5802 34.1404 65.4408 34.1404 65.255 34.1404C63.5822 34.3263 62.5135 35.3021 62.6064 36.092C62.6993 36.8819 63.9539 37.6718 65.6267 37.486C67.2994 37.3001 68.3682 36.3243 68.2752 35.5344C68.2288 34.8374 67.1601 34.1404 65.7196 34.1404Z" fill="#1B1B1A"/>
<path d="M174.45 25.1725C174.589 26.7059 172.963 28.0998 170.779 28.3322C168.595 28.5645 166.736 27.4958 166.597 25.9624C166.457 24.429 168.084 23.0351 170.268 22.8027C172.452 22.6169 174.31 23.6856 174.45 25.1725Z" fill="#FFF200"/>
<path d="M170.268 29.4473C169.245 29.4473 168.223 29.215 167.433 28.7504C166.318 28.1463 165.667 27.1705 165.528 26.0554C165.435 24.9866 165.9 23.8714 166.875 23.0815C167.712 22.3381 168.92 21.8734 170.175 21.734C172.963 21.4552 175.332 22.9421 175.565 25.0796C175.658 26.1483 175.193 27.2635 174.217 28.0534C173.381 28.7968 172.173 29.2615 170.918 29.4009C170.686 29.4473 170.5 29.4473 170.268 29.4473ZM170.825 23.8715C170.686 23.8715 170.546 23.8715 170.36 23.8715C169.571 23.9644 168.781 24.2432 168.269 24.7078C168.037 24.8937 167.619 25.3119 167.665 25.823C167.712 26.3341 168.177 26.6594 168.455 26.7988C169.059 27.1241 169.849 27.2635 170.639 27.217C171.476 27.1241 172.219 26.8453 172.73 26.3806C172.963 26.1947 173.381 25.7766 173.334 25.2654C173.334 24.5684 172.266 23.8715 170.825 23.8715Z" fill="#1B1B1A"/>
<path d="M122.269 46.1751C122.408 47.7084 120.782 49.1024 118.598 49.3347C116.414 49.5671 114.555 48.4984 114.416 46.965C114.276 45.4316 115.903 44.0376 118.087 43.8053C120.27 43.6194 122.129 44.6882 122.269 46.1751Z" fill="#FFF200"/>
<path d="M118.087 50.4499C117.065 50.4499 116.042 50.2176 115.252 49.7529C114.137 49.1489 113.487 48.1731 113.347 47.0579C113.254 45.9892 113.719 44.874 114.695 44.0841C115.531 43.3406 116.739 42.876 117.994 42.7366C119.249 42.5972 120.503 42.8295 121.479 43.4336C122.594 44.0376 123.245 45.0134 123.384 46.1286C123.477 47.1973 123.012 48.3125 122.036 49.1024C121.2 49.8459 119.992 50.3105 118.737 50.4499C118.505 50.4499 118.319 50.4499 118.087 50.4499ZM118.644 44.874C118.505 44.874 118.366 44.874 118.226 44.874C117.436 44.967 116.646 45.2457 116.135 45.7104C115.903 45.8963 115.485 46.3145 115.531 46.8256C115.578 47.3367 116.042 47.662 116.321 47.8014C116.925 48.1266 117.715 48.266 118.505 48.2196C119.295 48.1266 120.085 47.8478 120.596 47.3832C120.828 47.1973 121.247 46.7791 121.2 46.268C121.154 45.7569 120.689 45.4316 120.41 45.2922C119.945 45.0134 119.295 44.874 118.644 44.874Z" fill="#1B1B1A"/>
<path d="M89.3705 19.1785C89.5099 20.7118 87.8836 22.1058 85.6997 22.3382C83.5158 22.5705 81.6572 21.5018 81.5178 19.9684C81.3784 18.435 83.0047 17.041 85.1886 16.8087C87.3725 16.5764 89.2311 17.6451 89.3705 19.1785Z" fill="#FFF200"/>
<path d="M85.1888 23.4533C82.6796 23.4533 80.6816 22.0594 80.4958 20.0613C80.4028 18.9926 80.8675 17.8774 81.8433 17.0875C82.6796 16.3441 83.8878 15.8794 85.1423 15.74C86.3969 15.6006 87.6515 15.8329 88.6273 16.437C89.696 17.0411 90.393 18.0168 90.5324 19.132C90.6253 20.2007 90.1606 21.3159 89.1849 22.1058C88.3485 22.8493 87.1404 23.3139 85.8858 23.4533C85.607 23.4533 85.3747 23.4533 85.1888 23.4533ZM85.7464 17.8774C85.607 17.8774 85.4676 17.8774 85.3282 17.8774C84.4918 17.9704 83.7483 18.2492 83.2372 18.7138C83.0049 18.8997 82.5867 19.3179 82.6332 19.829C82.7261 20.6189 83.9342 21.4088 85.607 21.223C86.4434 21.13 87.1868 20.8512 87.698 20.3866C87.9303 20.2007 88.3485 19.7825 88.302 19.2714C88.2555 18.7603 87.7909 18.435 87.5121 18.2956C87.001 18.0168 86.3969 17.8774 85.7464 17.8774Z" fill="#1B1B1A"/>
<path d="M151.403 13.1379C151.542 14.6713 149.916 16.0652 147.732 16.2976C145.548 16.5299 143.689 15.4612 143.55 13.9278C143.411 12.3944 145.037 11.0005 147.221 10.7681C149.358 10.5358 151.263 11.6045 151.403 13.1379Z" fill="#FFF200"/>
<path d="M147.174 17.3662C144.665 17.3662 142.667 15.9723 142.481 13.9742C142.249 11.8368 144.293 9.9317 147.128 9.65291C149.916 9.37411 152.286 10.861 152.518 12.9985C152.75 15.1359 150.706 17.041 147.871 17.3198C147.639 17.3662 147.407 17.3662 147.174 17.3662ZM147.732 11.8368C147.592 11.8368 147.453 11.8368 147.267 11.8368C145.594 12.0227 144.526 12.9984 144.619 13.7884C144.712 14.5783 145.966 15.3217 147.639 15.1823C149.312 14.9965 150.38 14.0207 150.287 13.2308C150.241 12.5338 149.172 11.8368 147.732 11.8368Z" fill="#1B1B1A"/>
<path d="M91.462 40.6456C91.6014 42.179 89.9751 43.573 87.7912 43.8053C85.6073 44.0376 83.7487 42.9689 83.6093 41.4355C83.4699 39.9022 85.0962 38.5082 87.2801 38.2759C89.464 38.0435 91.3226 39.1123 91.462 40.6456Z" fill="#FFF200"/>
<path d="M87.2799 44.9205C84.7708 44.9205 82.7728 43.5265 82.5869 41.5285C82.494 40.4598 82.9586 39.3446 83.9344 38.5547C84.7708 37.8112 85.9789 37.3466 87.2335 37.2072C88.8133 37.0678 90.3002 37.4395 91.3689 38.3223C92.1124 38.9264 92.5306 39.7163 92.6235 40.5527C92.7164 41.6214 92.2518 42.7366 91.276 43.5265C90.4396 44.27 89.2315 44.7346 87.9769 44.874C87.6981 44.874 87.4658 44.9205 87.2799 44.9205ZM87.8375 39.3446C87.6981 39.3446 87.5587 39.3446 87.4193 39.3446C86.583 39.4375 85.8395 39.7163 85.3284 40.181C85.0961 40.3668 84.6779 40.785 84.7243 41.2961C84.8173 42.0861 86.0718 42.876 87.7446 42.6901C88.5345 42.5972 89.3244 42.3184 89.8356 41.8537C90.0679 41.6679 90.4861 41.2497 90.4396 40.7386C90.3932 40.3668 90.1608 40.1345 89.975 39.9486C89.4174 39.5769 88.6275 39.3446 87.8375 39.3446Z" fill="#1B1B1A"/>
<path d="M153.494 34.6051C153.633 36.1385 152.007 37.5324 149.823 37.7648C147.639 37.9971 145.78 36.9284 145.641 35.395C145.502 33.8616 147.128 32.4677 149.312 32.2354C151.449 32.003 153.354 33.0717 153.494 34.6051Z" fill="#FFF200"/>
<path d="M149.312 38.8335C148.289 38.8335 147.267 38.6012 146.477 38.1365C145.362 37.5325 144.712 36.5567 144.572 35.4415C144.479 34.3728 144.944 33.2576 145.92 32.4677C146.756 31.7243 147.964 31.2596 149.219 31.1202C150.473 30.9808 151.728 31.2131 152.704 31.8172C153.819 32.4212 154.469 33.397 154.609 34.5122C154.841 36.6496 152.797 38.5547 149.962 38.8335C149.73 38.8335 149.498 38.8335 149.312 38.8335ZM149.823 33.3041C149.683 33.3041 149.544 33.3041 149.405 33.3041C148.568 33.397 147.825 33.6758 147.314 34.1405C147.081 34.3263 146.663 34.7445 146.71 35.2557C146.756 35.7668 147.221 36.092 147.5 36.2314C148.104 36.5567 148.894 36.6961 149.683 36.6496C151.356 36.4638 152.425 35.488 152.332 34.6981C152.286 34.1869 151.821 33.8617 151.542 33.7223C151.124 33.4435 150.52 33.3041 149.823 33.3041Z" fill="#1B1B1A"/>
<path d="M61.9558 58.6743C62.0952 60.2077 60.4689 61.6017 58.285 61.834C56.1011 62.0663 54.2425 60.9976 54.1031 59.4642C53.9637 57.9309 55.59 56.5369 57.7739 56.3046C59.9113 56.0722 61.7699 57.141 61.9558 58.6743Z" fill="#FFF200"/>
<path d="M57.7277 62.9493C55.2185 62.9493 53.2205 61.5553 53.0346 59.5572C52.8488 57.4198 54.8468 55.5147 57.6812 55.2359C58.9358 55.0965 60.1903 55.3289 61.1661 55.8864C62.2348 56.4905 62.9318 57.4663 63.0712 58.5815C63.1642 59.6502 62.6995 60.7654 61.7237 61.5553C60.8873 62.2987 59.6792 62.7634 58.4247 62.9028C58.1459 62.9028 57.96 62.9493 57.7277 62.9493ZM58.2853 57.3734C58.1459 57.3734 58.0065 57.3734 57.8671 57.3734C56.1943 57.5592 55.1256 58.535 55.2185 59.3249C55.3114 60.1148 56.5196 60.9047 58.1923 60.7189C59.0287 60.626 59.7722 60.3472 60.2833 59.8825C60.5156 59.6966 60.9338 59.2785 60.8873 58.7673C60.8409 58.2562 60.3762 57.9309 60.0974 57.7915C59.5863 57.5128 58.9358 57.3734 58.2853 57.3734Z" fill="#1B1B1A"/>
<path d="M189.365 45.757C189.504 47.2903 187.878 48.6843 185.694 48.9166C183.51 49.149 181.652 48.0803 181.512 46.5469C181.373 45.0135 182.999 43.6195 185.183 43.3872C187.32 43.2014 189.179 44.2701 189.365 45.757Z" fill="#FFF200"/>
<path d="M185.137 50.0318C182.628 50.0318 180.63 48.6378 180.444 46.6398C180.212 44.5023 182.256 42.5972 185.091 42.3184C186.345 42.1791 187.6 42.4114 188.575 42.969C189.644 43.573 190.341 44.5488 190.481 45.664C190.713 47.8014 188.668 49.7065 185.834 49.9853C185.602 50.0318 185.369 50.0318 185.137 50.0318ZM185.695 44.4559C185.555 44.4559 185.416 44.4559 185.276 44.4559C183.604 44.5953 182.535 45.6175 182.581 46.4074C182.674 47.1974 183.929 47.9408 185.602 47.8014C187.274 47.6155 188.343 46.6398 188.25 45.8498C188.204 45.3387 187.739 45.0135 187.46 44.8741C186.996 44.5953 186.345 44.4559 185.695 44.4559Z" fill="#1B1B1A"/>
</svg>
