<svg width="148" height="125" viewBox="0 0 148 125" fill="none" xmlns="http://www.w3.org/2000/svg">
<path d="M121.374 80.4668L102.909 38.5645C99.0739 29.8289 88.9179 25.9228 80.2534 29.6869L34.587 49.7858C25.9224 53.6209 22.0163 63.7769 25.7804 72.4414L44.2458 114.344C48.0809 123.008 58.1659 126.985 66.9014 123.15L112.568 103.051C121.232 99.2873 125.139 89.1313 121.374 80.4668Z" fill="#FFF200"/>
<path d="M30.7518 80.1115C27.5559 82.0291 23.4367 81.0348 21.5191 77.8388L0.709989 43.1807C-0.639407 40.908 0.0708016 37.9251 2.34347 36.5757L16.6187 27.9822C21.5901 24.9993 26.2065 24.005 30.4677 24.9993C34.658 25.9936 38.209 28.8344 41.0498 33.5928C43.8907 38.2802 44.7429 42.7545 43.6776 46.9448C42.6123 51.135 39.5584 54.7571 34.5159 57.7399L27.6979 61.8592L33.0955 70.8078C35.0131 74.0037 33.9478 78.194 30.7518 80.1115ZM22.0873 52.5554L25.9224 50.2117C30.1836 47.655 31.1779 44.5301 28.9763 40.837C26.7746 37.1439 23.5077 36.5757 19.2464 39.1325L15.4113 41.4762L22.0873 52.5554Z" fill="#6300FF"/>
<path d="M54.5442 13.9911L63.7769 46.4477L73.8619 43.6068C76.9157 42.7546 80.0407 44.5301 80.8929 47.513C81.7452 50.5669 79.9696 53.6918 76.9868 54.5441L59.5156 59.5155C56.3907 60.3678 53.1948 58.5922 52.3425 55.5383L41.5474 17.6842C40.5531 14.1332 42.6127 10.3691 46.1637 9.37479C49.7858 8.30947 53.5499 10.4401 54.5442 13.9911Z" fill="#6300FF"/>
<path d="M94.0315 41.476L77.9097 34.9421L75.0689 38.2801C73.3644 40.2687 70.6656 40.9079 68.2509 39.9846C64.3448 38.4221 63.2794 33.3797 66.1913 30.1837L92.54 1.49129C93.8184 0.0708719 95.807 -0.355253 97.5115 0.354955L104.116 3.05375C105.821 3.76396 106.957 5.46846 106.886 7.315L105.821 46.2344C105.679 50.4957 101.418 53.4075 97.5115 51.7741C95.1678 50.7798 93.6764 48.4361 93.8184 45.8083L94.0315 41.476ZM94.5996 31.5331L95.5229 14.7722L84.5147 27.4139L94.5996 31.5331Z" fill="#6300FF"/>
<path d="M114.628 53.4786L110.295 33.5927C109.159 28.4082 114.344 24.0759 119.244 26.1356C121.233 26.9878 122.724 28.7633 123.15 30.894L125.849 44.3169L137.283 36.8597C139.13 35.6524 141.403 35.4393 143.391 36.2915C148.292 38.3511 148.86 45.0981 144.314 47.8679L127.127 58.7341L120.096 75.4951C118.676 78.9041 114.699 80.5375 111.29 79.1171C107.881 77.6967 106.247 73.7195 107.668 70.3105L114.628 53.4786Z" fill="#6300FF"/>
<path d="M50.2118 80.0406L49.7146 80.3957C47.584 81.8872 44.6011 80.8219 43.8199 78.3361C43.3938 76.9867 43.7489 75.5663 44.7432 74.572L53.3367 65.6234C54.8281 64.132 57.3849 64.7001 57.953 66.7597L67.1147 97.5118C67.967 100.424 66.3335 103.478 63.4217 104.401C60.5098 105.253 57.4559 103.62 56.6036 100.708L50.2118 80.0406Z" fill="#CC05B5"/>
<path d="M67.1857 76.6317C67.6119 73.9329 68.3931 71.5182 69.5294 69.3876C70.5947 67.2569 71.9441 65.5524 73.5066 64.203C75.0691 62.8536 76.7736 61.8593 78.6911 61.2912C80.6087 60.723 82.6683 60.652 84.7989 61.0071C86.9295 61.3622 88.7761 62.1434 90.4096 63.2798C92.0431 64.4161 93.3924 65.9075 94.3867 67.6831C95.381 69.4586 96.0912 71.5182 96.3753 73.8619C96.7304 76.2056 96.6594 78.7623 96.1623 81.4611C95.7361 84.1599 94.9549 86.5746 93.8186 88.7052C92.7533 90.8359 91.4039 92.5404 89.8414 93.9608C88.2789 95.3102 86.5744 96.3045 84.6569 96.8726C82.7393 97.4408 80.6797 97.5118 78.5491 97.1567C76.4185 96.8016 74.5009 96.0204 72.8674 94.884C71.2339 93.7477 69.8845 92.2563 68.8902 90.4097C67.896 88.6342 67.1857 86.5036 66.8306 84.1599C66.6886 81.8872 66.7596 79.3305 67.1857 76.6317ZM75.9923 78.1231C75.7082 79.6146 75.6372 81.035 75.7082 82.3134C75.7793 83.5917 75.9923 84.7281 76.3474 85.7223C76.7025 86.7166 77.1997 87.4979 77.7679 88.1371C78.407 88.7762 79.1173 89.1314 79.9695 89.2734C80.8218 89.4154 81.674 89.2734 82.4552 88.9183C83.2365 88.5632 83.9467 87.924 84.5859 87.1428C85.225 86.2905 85.7932 85.2962 86.2904 84.0889C86.7875 82.8815 87.1426 81.5321 87.4267 80.0407C87.7108 78.5492 87.7818 77.1288 87.7108 75.8505C87.6398 74.5721 87.4267 73.4357 87.1426 72.4415C86.7875 71.4472 86.3614 70.6659 85.7222 70.0267C85.083 69.3876 84.3728 69.0324 83.5205 68.8904C82.6683 68.7484 81.816 68.8904 81.0348 69.2455C80.2536 69.6006 79.5434 70.2398 78.9042 71.021C78.265 71.8023 77.6968 72.8676 77.1997 74.0749C76.6315 75.2823 76.2764 76.6317 75.9923 78.1231Z" fill="#CC05B5"/>
</svg>
