<svg width="20" height="22" viewBox="0 0 20 22" fill="none" xmlns="http://www.w3.org/2000/svg">
<path d="M1.0826 1.02419C0.816965 1.34289 0.682632 1.75078 0.706899 2.16496V20.1578C0.684005 20.5718 0.818177 20.9792 1.0826 21.2985L1.14408 21.36L11.2198 11.2775V11.0384L1.14408 0.962708L1.0826 1.02419Z" fill="url(#paint0_linear_1_707)"/>
<path d="M14.5806 14.6383L11.2198 11.2774V11.0384L14.5806 7.68433L14.6558 7.72531L18.6383 9.98638C19.7791 10.6285 19.7791 11.6873 18.6383 12.3362L14.6558 14.5973L14.5806 14.6383Z" fill="url(#paint1_linear_1_707)"/>
<path d="M14.6558 14.5974L11.2403 11.1819L1.08264 21.2986C1.31678 21.491 1.60827 21.6002 1.91126 21.6089C2.21424 21.6175 2.51149 21.5252 2.75623 21.3464L14.6353 14.5974" fill="url(#paint2_linear_1_707)"/>
<path d="M14.6558 7.72532L2.75623 0.969481C2.51412 0.783338 2.21489 0.687025 1.90965 0.696992C1.60441 0.706959 1.3121 0.822587 1.08264 1.02413L11.2198 11.1613L14.6558 7.72532Z" fill="url(#paint3_linear_1_707)"/>
<path opacity="0.1" d="M14.581 14.5225L2.75658 21.2305C2.52072 21.4062 2.23443 21.5012 1.94028 21.5012C1.64614 21.5012 1.35985 21.4062 1.12398 21.2305L1.0625 21.292L1.12398 21.3534C1.35985 21.5292 1.64614 21.6241 1.94028 21.6241C2.23443 21.6241 2.52072 21.5292 2.75658 21.3534L14.6357 14.6044L14.581 14.5225Z" fill="black"/>
<path opacity="0.07" d="M1.08238 21.1896C0.817525 20.8678 0.683415 20.4581 0.706695 20.042V20.1581C0.683802 20.5721 0.817967 20.9795 1.08238 21.2989L1.14386 21.2374L1.08238 21.1896Z" fill="black"/>
<path opacity="0.07" d="M18.6383 12.2133L14.5807 14.5222L14.6558 14.5974L18.6383 12.309C18.8719 12.2062 19.074 12.0433 19.224 11.8369C19.3741 11.6305 19.4666 11.3879 19.4922 11.134C19.4456 11.3687 19.3438 11.589 19.1954 11.7766C19.0469 11.9643 18.856 12.114 18.6383 12.2133Z" fill="black"/>
<path opacity="0.3" d="M2.75633 1.09246L18.6384 10.1025C18.8539 10.1994 19.0436 10.3458 19.192 10.5298C19.3403 10.7138 19.4432 10.9301 19.4923 11.1613C19.4681 10.907 19.3761 10.6638 19.2259 10.4572C19.0757 10.2505 18.8728 10.0879 18.6384 9.98639L2.75633 0.969502C1.63605 0.32739 0.707031 0.860207 0.707031 2.16492V2.28105C0.707031 0.983164 1.63605 0.443517 2.75633 1.09246Z" fill="white"/>
<defs>
<linearGradient id="paint0_linear_1_707" x1="10.3318" y1="1.97369" x2="-3.32338" y2="15.6288" gradientUnits="userSpaceOnUse">
<stop stop-color="#008EFF"/>
<stop offset="0.01" stop-color="#008FFF"/>
<stop offset="0.26" stop-color="#00ACFF"/>
<stop offset="0.51" stop-color="#00C0FF"/>
<stop offset="0.76" stop-color="#00CDFF"/>
<stop offset="1" stop-color="#00D1FF"/>
</linearGradient>
<linearGradient id="paint1_linear_1_707" x1="18.7749" y1="11.1613" x2="-0.912098" y2="11.1613" gradientUnits="userSpaceOnUse">
<stop stop-color="#FFD800"/>
<stop offset="1" stop-color="#FF8A00"/>
</linearGradient>
<linearGradient id="paint2_linear_1_707" x1="12.791" y1="13.0262" x2="-5.72097" y2="31.5382" gradientUnits="userSpaceOnUse">
<stop stop-color="#FF3A44"/>
<stop offset="1" stop-color="#B11162"/>
</linearGradient>
<linearGradient id="paint3_linear_1_707" x1="-1.47215" y1="-4.96664" x2="6.80017" y2="3.29886" gradientUnits="userSpaceOnUse">
<stop stop-color="#328E71"/>
<stop offset="0.07" stop-color="#2D9571"/>
<stop offset="0.48" stop-color="#15BD74"/>
<stop offset="0.8" stop-color="#06D575"/>
<stop offset="1" stop-color="#00DE76"/>
</linearGradient>
</defs>
</svg>
