<svg width="20" height="22" viewBox="0 0 20 22" fill="none" xmlns="http://www.w3.org/2000/svg">
<path d="M1.3326 1.02419C1.06697 1.34289 0.932632 1.75078 0.956899 2.16496V20.1578C0.934005 20.5718 1.06818 20.9792 1.3326 21.2985L1.39408 21.36L11.4698 11.2775V11.0384L1.39408 0.962708L1.3326 1.02419Z" fill="url(#paint0_linear_318_188)"/>
<path d="M14.8306 14.6383L11.4698 11.2774V11.0384L14.8306 7.68433L14.9058 7.72531L18.8883 9.98638C20.0291 10.6285 20.0291 11.6873 18.8883 12.3362L14.9058 14.5973L14.8306 14.6383Z" fill="url(#paint1_linear_318_188)"/>
<path d="M14.9058 14.5974L11.4903 11.1819L1.33264 21.2986C1.56678 21.491 1.85827 21.6002 2.16126 21.6089C2.46424 21.6175 2.76149 21.5252 3.00623 21.3464L14.8853 14.5974" fill="url(#paint2_linear_318_188)"/>
<path d="M14.9058 7.72532L3.00623 0.969481C2.76412 0.783338 2.46489 0.687025 2.15965 0.696992C1.85441 0.706959 1.5621 0.822587 1.33264 1.02413L11.4698 11.1613L14.9058 7.72532Z" fill="url(#paint3_linear_318_188)"/>
<path opacity="0.1" d="M14.831 14.5225L3.00658 21.2305C2.77072 21.4062 2.48443 21.5012 2.19028 21.5012C1.89614 21.5012 1.60985 21.4062 1.37398 21.2305L1.3125 21.292L1.37398 21.3534C1.60985 21.5292 1.89614 21.6241 2.19028 21.6241C2.48443 21.6241 2.77072 21.5292 3.00658 21.3534L14.8857 14.6044L14.831 14.5225Z" fill="black"/>
<path opacity="0.07" d="M1.33238 21.1896C1.06753 20.8678 0.933415 20.4581 0.956695 20.042V20.1581C0.933802 20.5721 1.06797 20.9795 1.33238 21.2989L1.39386 21.2374L1.33238 21.1896Z" fill="black"/>
<path opacity="0.07" d="M18.8883 12.2133L14.8307 14.5222L14.9058 14.5974L18.8883 12.309C19.1219 12.2062 19.324 12.0433 19.474 11.8369C19.6241 11.6305 19.7166 11.3879 19.7422 11.134C19.6956 11.3687 19.5938 11.589 19.4454 11.7766C19.2969 11.9643 19.106 12.114 18.8883 12.2133Z" fill="black"/>
<path opacity="0.3" d="M3.00633 1.09246L18.8884 10.1025C19.1039 10.1994 19.2936 10.3458 19.442 10.5298C19.5903 10.7138 19.6932 10.9301 19.7423 11.1613C19.7181 10.907 19.6261 10.6638 19.4759 10.4572C19.3257 10.2505 19.1228 10.0879 18.8884 9.98639L3.00633 0.969502C1.88605 0.32739 0.957031 0.860207 0.957031 2.16492V2.28105C0.957031 0.983164 1.88605 0.443517 3.00633 1.09246Z" fill="white"/>
<defs>
<linearGradient id="paint0_linear_318_188" x1="10.5818" y1="1.97369" x2="-3.07338" y2="15.6288" gradientUnits="userSpaceOnUse">
<stop stop-color="#008EFF"/>
<stop offset="0.01" stop-color="#008FFF"/>
<stop offset="0.26" stop-color="#00ACFF"/>
<stop offset="0.51" stop-color="#00C0FF"/>
<stop offset="0.76" stop-color="#00CDFF"/>
<stop offset="1" stop-color="#00D1FF"/>
</linearGradient>
<linearGradient id="paint1_linear_318_188" x1="19.0249" y1="11.1613" x2="-0.662098" y2="11.1613" gradientUnits="userSpaceOnUse">
<stop stop-color="#FFD800"/>
<stop offset="1" stop-color="#FF8A00"/>
</linearGradient>
<linearGradient id="paint2_linear_318_188" x1="13.041" y1="13.0262" x2="-5.47097" y2="31.5382" gradientUnits="userSpaceOnUse">
<stop stop-color="#FF3A44"/>
<stop offset="1" stop-color="#B11162"/>
</linearGradient>
<linearGradient id="paint3_linear_318_188" x1="-1.22215" y1="-4.96664" x2="7.05017" y2="3.29886" gradientUnits="userSpaceOnUse">
<stop stop-color="#328E71"/>
<stop offset="0.07" stop-color="#2D9571"/>
<stop offset="0.48" stop-color="#15BD74"/>
<stop offset="0.8" stop-color="#06D575"/>
<stop offset="1" stop-color="#00DE76"/>
</linearGradient>
</defs>
</svg>
