<svg width="198" height="254" viewBox="0 0 198 254" fill="none" xmlns="http://www.w3.org/2000/svg">
<path d="M36.3767 181.026C39.6177 127.185 68.5074 45.0461 106.179 0.857666C109.002 13.5078 115.937 16.3654 122.732 10.6502C121.269 24.4504 134.476 27.8656 143.363 19.92C141.272 34.5914 153.574 36.299 160.962 28.5974C159.916 41.1081 167.339 45.9173 176.853 38.1808C177.271 49.3673 188.945 50.8658 196.612 47.9037C144.792 105.509 101.544 178.866 93.1107 197.963C43.3465 184.999 36.3767 181.026 36.3767 181.026Z" fill="#C199FF"/>
<path d="M93.0754 198.834C93.0057 198.834 92.9359 198.834 92.8662 198.799C43.5899 185.905 36.2717 181.933 35.958 181.758C35.6793 181.619 35.5398 181.305 35.5398 180.992C37.1428 154.228 45.193 120.006 57.5992 87.039C70.8069 51.8764 87.848 21.1048 105.551 0.3349C105.76 0.0909579 106.074 -0.0135888 106.353 0.056109C106.666 0.125807 106.876 0.369749 106.945 0.683389C108.374 7.09559 110.988 11.2426 114.298 12.3578C116.703 13.1593 119.421 12.3578 122.174 10.0229C122.418 9.8138 122.802 9.77895 123.08 9.91835C123.359 10.0577 123.533 10.4062 123.498 10.7199C122.941 16.1215 124.718 20.3382 128.447 22.22C132.629 24.3806 138.379 23.1958 142.77 19.2927C143.014 19.0488 143.397 19.0139 143.711 19.1882C144.024 19.3624 144.199 19.676 144.129 20.0245C143.293 25.8094 144.721 29.9216 148.102 31.5595C151.656 33.302 156.675 31.8383 160.334 28.0398C160.578 27.7958 160.961 27.7261 161.275 27.8655C161.588 28.0049 161.797 28.3186 161.763 28.6671C161.275 34.5914 162.703 38.8778 165.666 40.446C168.384 41.8748 172.287 40.8293 176.329 37.5535C176.573 37.3444 176.887 37.3096 177.166 37.449C177.445 37.5884 177.619 37.8672 177.654 38.146C177.793 41.8399 179.222 44.6278 181.905 46.4051C186.052 49.1234 192.116 48.74 196.298 47.137C196.646 46.9976 197.064 47.137 197.274 47.4506C197.483 47.7643 197.448 48.1824 197.204 48.4612C145.941 105.474 102.485 178.761 93.842 198.312C93.7026 198.625 93.389 198.834 93.0754 198.834ZM37.2126 180.539C39.3383 181.514 50.1067 185.905 92.5875 197.022C101.788 176.74 144.024 105.753 194.033 49.5415C189.816 50.4825 184.728 50.2734 180.964 47.7991C178.246 46.0218 176.573 43.2339 176.12 39.749C171.904 42.7809 167.931 43.5475 164.864 41.9096C161.658 40.202 159.916 36.1247 159.985 30.5489C156.012 33.7898 151.064 34.8005 147.37 33.0232C143.781 31.2807 141.968 27.2382 142.317 21.767C137.682 25.0776 132.002 25.8791 127.715 23.6837C123.812 21.6973 121.686 17.62 121.791 12.3578C119.073 14.2048 116.32 14.7275 113.81 13.8911C110.186 12.6714 107.433 8.80318 105.76 2.60008C67.3917 48.5658 40.4187 130.217 37.2126 180.539Z" fill="#1B1B1A"/>
<path d="M36.3767 181.026C39.6177 127.185 68.5074 45.0461 106.179 0.857666C109.002 13.5078 115.937 16.3654 122.732 10.6502C121.269 24.4504 134.476 27.8656 143.363 19.92C141.272 34.5914 153.574 36.299 160.962 28.5974C159.916 41.1081 167.339 45.9173 176.853 38.1808C133.326 91.0118 102.311 137.187 93.0759 197.998C43.3465 184.999 36.3767 181.026 36.3767 181.026Z" fill="#FFF7E2"/>
<path d="M93.0754 198.834C93.0057 198.834 92.9359 198.834 92.8662 198.799C43.5899 185.905 36.2717 181.933 35.958 181.758C35.6793 181.619 35.5398 181.305 35.5398 180.992C37.1428 154.228 45.193 120.006 57.5992 87.039C70.8069 51.8764 87.848 21.1048 105.551 0.3349C105.76 0.0909579 106.074 -0.0135888 106.353 0.056109C106.666 0.125807 106.876 0.369749 106.945 0.683389C108.374 7.09559 110.988 11.2426 114.298 12.3578C116.703 13.1593 119.421 12.3578 122.174 10.0229C122.418 9.8138 122.802 9.77895 123.08 9.91835C123.359 10.0577 123.533 10.4062 123.498 10.7199C122.941 16.1215 124.718 20.3382 128.447 22.22C132.629 24.3806 138.379 23.1958 142.77 19.2927C143.014 19.0488 143.397 19.0139 143.711 19.1882C144.024 19.3624 144.199 19.676 144.129 20.0245C143.293 25.8094 144.721 29.9216 148.102 31.5595C151.656 33.302 156.675 31.8383 160.334 28.0398C160.578 27.7958 160.961 27.7261 161.275 27.8655C161.588 28.0049 161.797 28.3186 161.763 28.6671C161.275 34.5914 162.703 38.8778 165.666 40.446C168.384 41.8748 172.287 40.8293 176.329 37.5535C176.643 37.2747 177.131 37.3096 177.41 37.6232C177.688 37.9369 177.723 38.3899 177.445 38.7035C132.49 93.2769 102.833 138.964 93.8769 198.102C93.8421 198.346 93.7027 198.521 93.5284 198.66C93.389 198.765 93.2496 198.834 93.0754 198.834ZM37.2126 180.539C39.3383 181.514 50.0718 185.87 92.3784 196.987C96.7693 168.725 106.283 141.787 121.373 114.709C133.465 92.9981 149.008 70.9736 172.949 41.6657C169.952 43.0597 167.164 43.1642 164.864 41.9445C161.658 40.2369 159.916 36.1596 159.985 30.5837C156.012 33.8247 151.064 34.8353 147.37 33.058C143.781 31.3156 141.968 27.2731 142.282 21.8018C137.647 25.1125 131.967 25.914 127.68 23.7185C123.777 21.7321 121.651 17.6548 121.756 12.3926C119.038 14.2396 116.285 14.7623 113.776 13.926C110.151 12.7063 107.398 8.83803 105.726 2.63493C67.3917 48.5658 40.4187 130.217 37.2126 180.539Z" fill="#1B1B1A"/>
<path d="M36.3762 181.026C39.6172 127.185 68.5069 45.046 106.179 0.857544C109.001 13.5077 115.936 16.3653 122.732 10.6501C121.268 24.4503 134.476 27.8654 143.362 19.9199C141.271 34.5913 153.573 36.2989 160.961 28.5973C120.676 78.9539 82.1328 150.115 77.01 194.931C27.2458 181.967 36.3762 181.026 36.3762 181.026Z" fill="#FFFA99"/>
<path d="M77.0106 195.802C76.9409 195.802 76.8712 195.802 76.8015 195.767C34.6692 184.755 34.8435 182.455 34.9132 181.375C34.948 180.957 35.192 180.643 35.6102 180.434C37.3178 153.775 45.2981 119.762 57.6346 87.0738C70.8424 51.9112 87.8834 21.1396 105.587 0.36969C105.796 0.125748 106.109 0.0212012 106.388 0.090899C106.702 0.160597 106.911 0.404539 106.981 0.718179C108.409 7.13038 111.023 11.2774 114.334 12.3926C116.738 13.1941 119.457 12.3926 122.21 10.0577C122.454 9.84859 122.837 9.81374 123.116 9.95314C123.394 10.0925 123.569 10.441 123.534 10.7547C122.976 16.1562 124.754 20.373 128.482 22.2548C132.664 24.4154 138.414 23.2306 142.805 19.3275C143.049 19.0835 143.433 19.0487 143.746 19.2229C144.06 19.3972 144.234 19.7108 144.164 20.0593C143.328 25.8442 144.757 29.9564 148.137 31.5943C151.692 33.3367 156.71 31.8731 160.369 28.0746C160.683 27.7609 161.171 27.7261 161.484 28.0397C161.798 28.3185 161.868 28.8064 161.589 29.1549C123.987 76.166 83.144 148.234 77.8121 195.07C77.7773 195.314 77.6727 195.524 77.4636 195.663C77.3242 195.733 77.15 195.802 77.0106 195.802ZM36.9343 181.619C38.6071 182.769 45.8557 185.94 76.2788 193.92C78.8925 172.697 88.8244 144.923 105.029 113.489C119.387 85.6449 137.613 57.1385 156.675 32.6746C153.504 34.1731 150.089 34.3822 147.371 33.058C143.781 31.3155 141.969 27.273 142.283 21.8018C137.648 25.1124 131.967 25.9139 127.681 23.7185C123.778 21.7321 121.652 17.6547 121.757 12.3926C119.038 14.2396 116.285 14.7623 113.776 13.9259C110.152 12.7062 107.399 8.83797 105.726 2.63487C67.2181 48.74 40.2102 130.809 37.1435 181.096C37.1783 181.305 37.0737 181.514 36.9343 181.619Z" fill="#1B1B1A"/>
<path d="M36.3761 181.026C39.617 127.185 68.5068 45.0461 106.178 0.857666C109.001 13.5078 115.936 16.3654 122.732 10.6502C121.268 24.4504 134.476 27.8656 143.362 19.92C78.0553 105.3 75.9644 141.438 68.3325 185.208C18.5682 172.21 36.3761 181.026 36.3761 181.026Z" fill="#FFF7E2"/>
<path d="M68.2976 186.045C68.2279 186.045 68.1583 186.045 68.0886 186.01C49.8626 181.235 41.3246 179.598 37.317 179.075C37.2821 179.737 37.2125 180.399 37.1776 181.061C37.1776 181.34 37.0033 181.584 36.7594 181.723C36.5154 181.863 36.2367 181.863 35.9927 181.758C31.9502 179.737 32.3684 178.622 32.5078 178.238C32.7518 177.576 33.4836 177.158 35.7837 177.298C37.8746 151.126 45.7505 118.473 57.5642 87.0041C70.772 51.8415 87.813 21.0699 105.516 0.299988C105.725 0.0560458 106.039 -0.048501 106.318 0.0211968C106.631 0.0908947 106.841 0.334837 106.91 0.648477C108.339 7.06067 110.953 11.2077 114.263 12.3229C116.668 13.1244 119.386 12.3229 122.139 9.98798C122.383 9.77889 122.766 9.74404 123.045 9.88344C123.324 10.0228 123.498 10.3713 123.463 10.685C122.906 16.0865 124.683 20.3033 128.412 22.1851C132.594 24.3457 138.344 23.1609 142.735 19.2578C143.049 18.979 143.536 18.979 143.85 19.2578C144.164 19.5366 144.199 20.0245 143.955 20.3381C83.4918 99.4103 77.2538 136.559 70.6674 175.904C70.1446 178.97 69.622 182.107 69.0644 185.278C69.0295 185.487 68.8901 185.696 68.7159 185.836C68.6113 186.01 68.4719 186.045 68.2976 186.045ZM37.4564 177.472C38.3276 177.576 39.3731 177.716 40.558 177.925C46.308 178.901 55.4036 181.026 67.6355 184.198C68.1234 181.34 68.6113 178.482 69.0644 175.695C72.4447 155.552 75.6508 136.49 85.6176 112.339C96.4208 86.1677 113.671 57.7658 139.703 23.3351C135.661 25.2867 131.235 25.4957 127.715 23.6836C123.812 21.6972 121.686 17.6199 121.791 12.3577C119.072 14.2047 116.319 14.7274 113.81 13.8911C110.186 12.6713 107.433 8.80312 105.76 2.60002C68.1582 47.6248 41.4988 126.976 37.4564 177.472ZM34.4942 178.935C34.773 179.179 35.1912 179.458 35.6442 179.702C35.6442 179.458 35.6791 179.179 35.7139 178.935C35.1563 178.901 34.773 178.901 34.4942 178.935Z" fill="#1B1B1A"/>
<path d="M36.3767 181.026C39.6177 127.185 68.5074 45.0461 106.179 0.857666C109.002 13.5078 115.937 16.3654 122.732 10.6502C48.9572 122.585 54.4982 154.297 49.5496 183.536C46.6572 181.863 36.3767 181.026 36.3767 181.026Z" fill="#C199FF"/>
<path d="M49.5142 184.372C49.3748 184.372 49.2355 184.337 49.0961 184.267C46.8657 182.978 39.0945 182.107 36.3065 181.863C35.8535 181.828 35.5398 181.445 35.5398 180.992C37.1428 154.228 45.193 120.006 57.5992 87.039C70.8069 51.8764 87.848 21.1048 105.551 0.3349C105.76 0.0909579 106.074 -0.0135888 106.353 0.056109C106.666 0.125807 106.876 0.369749 106.945 0.683389C108.374 7.09559 110.988 11.2426 114.298 12.3578C116.703 13.1593 119.421 12.3578 122.174 10.0229C122.488 9.7441 122.941 9.77895 123.255 10.0229C123.568 10.3017 123.603 10.7547 123.394 11.0684C59.5856 107.844 55.1946 144.679 51.9885 171.548C51.5007 175.729 51.0127 179.702 50.3506 183.64C50.3157 183.919 50.1416 184.128 49.8976 184.233C49.7582 184.337 49.6536 184.372 49.5142 184.372ZM37.2474 180.295C39.4778 180.504 45.7505 181.166 48.8869 182.351C49.4445 178.796 49.8975 175.172 50.3506 171.373C53.5567 144.644 57.9128 108.123 119.909 13.4381C117.818 14.379 115.727 14.5533 113.81 13.8911C110.186 12.6714 107.433 8.80318 105.76 2.60008C67.4614 48.4612 40.5232 129.973 37.2474 180.295Z" fill="#1B1B1A"/>
<path d="M129.385 251.595C133.428 249.295 135.798 244.869 135.519 240.235L132.696 195.105L168.277 167.156C171.936 164.299 173.644 159.594 172.703 155.029C171.762 150.464 168.312 146.874 163.781 145.724L119.976 134.468L104.399 91.9873C102.796 87.6312 98.8578 84.5296 94.2229 84.0417C89.588 83.5538 85.0924 85.7145 82.5833 89.6524L58.3285 127.812L13.1295 129.485C8.45975 129.659 4.31266 132.447 2.43082 136.698C0.514132 140.95 1.17631 145.899 4.13847 149.488L32.9585 184.337L20.5871 227.828C20.0296 229.78 19.9947 231.801 20.378 233.683C20.9007 236.157 22.1902 238.492 24.1417 240.235C27.5917 243.336 32.5403 244.242 36.8268 242.535L78.8894 225.877L116.456 251.107C120.325 253.721 125.343 253.895 129.385 251.595Z" fill="#FFFBB2"/>
<path d="M123.287 254C120.743 254 118.199 253.268 116.004 251.805L78.8202 226.818L37.1409 243.301C32.5757 245.114 27.2438 244.138 23.5847 240.827C21.5286 238.945 20.1347 236.541 19.5771 233.822C19.1589 231.766 19.2285 229.606 19.7861 227.585L32.0529 184.476L3.5117 149.941C0.3056 146.073 -0.391395 140.846 1.66469 136.28C3.68593 131.715 8.07687 128.788 13.0603 128.579L57.8411 126.906L81.8521 89.095C84.5006 84.948 89.3794 82.5783 94.2582 83.101C99.137 83.6237 103.423 86.9344 105.096 91.5693L120.499 133.667L163.921 144.818C168.765 146.073 172.424 149.871 173.435 154.75C174.48 159.664 172.668 164.613 168.73 167.714L133.498 195.454L136.286 240.165C136.6 245.079 134.021 249.853 129.769 252.292C127.783 253.442 125.553 254 123.287 254ZM78.9247 225.075C79.0989 225.075 79.2383 225.11 79.3777 225.215L116.945 250.445C120.534 252.85 125.239 253.024 128.968 250.864C132.697 248.738 134.962 244.556 134.683 240.27L131.86 195.14C131.86 194.861 131.965 194.617 132.174 194.443L167.755 166.494C171.205 163.811 172.773 159.455 171.867 155.169C170.961 150.882 167.789 147.571 163.538 146.456L119.733 135.2C119.489 135.13 119.245 134.956 119.175 134.677L103.598 92.1966C102.099 88.1541 98.3704 85.2616 94.1188 84.7737C89.8324 84.3207 85.5808 86.3768 83.2808 90.0011L59.026 128.161C58.8866 128.405 58.6426 128.544 58.3638 128.544L13.1648 130.217C8.77387 130.391 4.94054 132.97 3.19809 136.943C1.38595 140.95 2.01318 145.515 4.80109 148.896L33.6211 183.745C33.7954 183.954 33.8651 184.232 33.7606 184.476L21.3892 228.003C20.9013 229.78 20.8316 231.662 21.1801 233.474C21.668 235.844 22.8877 237.97 24.6999 239.607C27.9059 242.5 32.5409 243.336 36.5485 241.768L78.6111 225.11C78.7156 225.11 78.8201 225.075 78.9247 225.075Z" fill="#1B1B1A"/>
<path d="M109.141 198.276C109.42 203.782 115.483 202.179 126.287 203.469C135.905 204.619 141.899 207.476 143.885 202.319C145.767 197.37 139.808 189.599 129.04 187.961C117.923 186.288 108.827 192.387 109.141 198.276Z" fill="#CC52BE"/>
<path d="M139.006 206.117C137.159 206.117 134.999 205.734 132.559 205.281C130.677 204.933 128.517 204.549 126.182 204.27C123.394 203.957 120.955 203.817 118.794 203.678C112.626 203.33 108.548 203.12 108.304 198.311C108.2 195.976 109.35 193.572 111.58 191.585C115.727 187.857 122.453 186.149 129.179 187.16C135.591 188.135 141.167 191.481 143.746 195.872C145.105 198.242 145.453 200.611 144.687 202.633C143.606 205.281 141.69 206.117 139.006 206.117ZM109.942 198.242C110.117 201.413 112.382 201.692 118.899 202.075C121.094 202.179 123.568 202.319 126.391 202.667C128.796 202.946 130.956 203.33 132.873 203.678C139.111 204.793 141.934 205.176 143.153 202.04C143.746 200.507 143.432 198.625 142.317 196.708C140.505 193.607 136.044 189.878 128.935 188.798C121.477 187.682 115.658 190.122 112.695 192.805C110.814 194.478 109.838 196.429 109.942 198.242Z" fill="#1B1B1A"/>
<path d="M53.1047 192.979C51.2577 198.172 45.8909 194.931 35.1923 193.084C25.6437 191.446 19.0572 192.492 18.6391 186.985C18.2209 181.723 26.1665 175.938 36.9696 177.472C48.0864 178.97 55.0911 187.404 53.1047 192.979Z" fill="#CC52BE"/>
<path d="M49.0964 196.604C47.2494 196.604 44.9842 196.081 42.3008 195.419C40.2099 194.931 37.8053 194.339 35.0523 193.886C32.7174 193.502 30.5568 193.258 28.6401 193.014C22.5764 192.352 18.1854 191.864 17.8369 187.02C17.6627 184.895 18.6733 182.699 20.6596 180.817C24.3536 177.332 30.6613 175.729 37.0735 176.6C43.7993 177.541 49.7934 181.061 52.6858 185.835C54.254 188.414 54.6722 191.028 53.9055 193.223C52.9995 195.767 51.3964 196.604 49.0964 196.604ZM33.5189 177.994C28.0825 177.994 23.9703 179.946 21.7748 182.002C20.1717 183.535 19.3354 185.243 19.4748 186.881C19.7188 190.226 22.5415 190.679 28.8491 191.376C30.8007 191.586 32.9961 191.829 35.3659 192.248C38.1886 192.736 40.5932 193.293 42.719 193.816C49.0615 195.314 51.3267 195.698 52.3721 192.701C52.9994 190.958 52.6161 188.832 51.2919 186.707C49.2009 183.291 44.322 179.284 36.8644 178.238C35.6795 178.064 34.5644 177.994 33.5189 177.994Z" fill="#1B1B1A"/>
<path d="M48.3298 136.175C48.5389 136.315 48.7828 136.419 49.0616 136.454C49.7934 136.559 50.4904 136.245 50.8737 135.618C55.3692 128.648 60.5269 128.265 63.2103 128.683C64.4997 128.892 65.7891 129.345 66.9391 130.007C67.1482 130.112 67.3572 130.216 67.6012 130.251C68.3679 130.356 69.0997 130.007 69.4831 129.345C70.0058 128.474 69.6921 127.359 68.8209 126.836C67.2527 125.93 65.58 125.337 63.8376 125.059C57.7739 124.153 51.9192 127.254 47.8071 133.631C47.8071 133.666 47.7722 133.666 47.7722 133.701C47.2495 134.572 47.4934 135.653 48.3298 136.175Z" fill="#FFF7E2"/>
<path d="M49.3049 137.291C49.1655 137.291 49.061 137.291 48.9216 137.256C48.5383 137.186 48.2247 137.081 47.8762 136.872C46.6913 136.106 46.308 134.537 47.005 133.283C47.005 133.283 47.0049 133.248 47.0398 133.248L47.0746 133.213C51.3611 126.557 57.4945 123.281 63.9067 124.257C65.7537 124.536 67.5658 125.163 69.2037 126.139C70.4583 126.871 70.9113 128.509 70.1446 129.763C69.587 130.704 68.5416 131.227 67.4612 131.053C67.1476 131.018 66.7991 130.878 66.5203 130.739C65.4749 130.112 64.29 129.693 63.1051 129.519C60.6309 129.136 55.8217 129.519 51.5701 136.106C51.0474 136.838 50.211 137.291 49.3049 137.291ZM48.7474 135.513C48.8868 135.583 48.9913 135.653 49.1307 135.653C49.514 135.722 49.9323 135.548 50.1414 135.2C54.8808 127.847 60.4218 127.463 63.2794 127.916C64.6733 128.125 66.0673 128.613 67.287 129.345C67.3915 129.415 67.5309 129.45 67.6355 129.484C68.0537 129.554 68.4719 129.345 68.681 128.997C68.9597 128.509 68.7855 127.881 68.2976 127.603C66.8339 126.766 65.2309 126.174 63.593 125.93C58.052 125.093 52.6853 127.847 48.7822 133.527C48.8867 133.666 48.9564 133.841 48.9564 134.05C48.9564 134.468 48.608 134.851 48.1898 134.851C48.364 135.06 48.5035 135.339 48.7474 135.513Z" fill="#1B1B1A"/>
<path d="M67.9832 139.904C60.177 138.545 45.0526 151.404 46.9693 168.55C48.8163 184.894 68.1225 184.755 74.9181 174.997C80.8424 166.424 83.8046 142.623 67.9832 139.904Z" fill="#FFF7E2"/>
<path d="M61.2918 182.525C59.8979 182.525 58.4691 182.35 57.11 182.002C50.9069 180.434 46.9341 175.555 46.1326 168.62C45.1568 159.873 48.5371 150.917 55.1584 144.679C59.4797 140.601 64.4282 138.476 68.0874 139.103C73.0708 139.974 76.7647 142.936 78.7511 147.745C82.3057 156.283 79.936 169.212 75.5799 175.485C72.5132 179.876 66.9374 182.525 61.2918 182.525ZM66.798 140.601C63.7661 140.601 59.7933 142.553 56.3084 145.829C50.0356 151.753 46.8295 160.186 47.7705 168.411C48.7462 176.949 54.2872 179.562 57.5281 180.399C63.7312 181.967 70.7707 179.493 74.2556 174.474C77.8799 169.247 80.8072 156.771 77.2875 148.303C75.4753 144.016 72.3041 141.438 67.8435 140.671C67.495 140.636 67.1465 140.601 66.798 140.601Z" fill="#1B1B1A"/>
<path d="M69.1669 162.068C67.5987 166.32 63.5912 168.759 60.176 167.505C56.7956 166.25 55.2971 161.824 56.8304 157.573C58.3986 153.321 62.4063 150.882 65.8215 152.136C69.2367 153.356 70.7351 157.817 69.1669 162.068Z" fill="#1B1B1A"/>
<path d="M62.0581 168.654C61.3263 168.654 60.5944 168.515 59.9323 168.271C58.0504 167.574 56.6216 166.041 55.9247 163.915C55.2277 161.859 55.2974 159.489 56.1338 157.294C57.8414 152.624 62.3369 149.975 66.1703 151.369C69.9688 152.763 71.7112 157.712 69.9688 162.382C69.1673 164.612 67.6688 166.459 65.8218 167.574C64.6021 168.271 63.3127 168.654 62.0581 168.654ZM64.0097 152.624C61.4657 152.624 58.8172 154.68 57.6323 157.851C56.9353 159.733 56.8656 161.72 57.4581 163.392C58.0156 165.03 59.0959 166.215 60.4899 166.738C61.8839 167.26 63.4869 167.051 64.9506 166.145C66.4839 165.204 67.7036 163.671 68.4006 161.789C69.7945 157.991 68.54 153.983 65.543 152.903C65.0551 152.694 64.5324 152.624 64.0097 152.624Z" fill="#1B1B1A"/>
<path d="M123.742 139.138C123.742 139.138 123.742 139.103 123.707 139.068C120.257 132.307 114.786 128.613 108.652 128.892C106.875 128.962 105.133 129.38 103.495 130.147C102.589 130.565 102.171 131.645 102.589 132.586C102.902 133.283 103.599 133.701 104.366 133.667C104.61 133.667 104.819 133.597 105.028 133.492C106.213 132.935 107.537 132.621 108.862 132.551C111.58 132.412 116.668 133.318 120.431 140.706C120.745 141.333 121.442 141.752 122.174 141.717C122.418 141.717 122.697 141.647 122.906 141.508C123.777 141.089 124.16 140.044 123.742 139.138Z" fill="#FFF7E2"/>
<path d="M122.069 142.588C121.059 142.588 120.153 142.03 119.7 141.124C116.145 134.12 111.406 133.283 108.896 133.388C107.677 133.457 106.457 133.736 105.377 134.259C105.063 134.398 104.749 134.468 104.401 134.503C103.321 134.573 102.31 133.945 101.857 132.935C101.265 131.61 101.857 130.042 103.181 129.415C104.924 128.613 106.771 128.195 108.653 128.091C115.134 127.777 120.885 131.68 124.474 138.72V138.754L124.509 138.789C124.509 138.789 124.509 138.789 124.509 138.824C125.101 140.114 124.578 141.647 123.289 142.309C122.941 142.483 122.592 142.588 122.209 142.588C122.174 142.588 122.139 142.588 122.069 142.588ZM109.315 131.75C112.312 131.75 117.4 133.004 121.163 140.357C121.338 140.706 121.721 140.95 122.139 140.915C122.278 140.915 122.418 140.88 122.557 140.811C122.836 140.671 123.01 140.427 123.08 140.148C122.697 140.079 122.418 139.73 122.418 139.347C122.418 139.138 122.522 138.929 122.662 138.754C119.351 132.726 114.298 129.415 108.722 129.694C107.049 129.763 105.412 130.182 103.878 130.879C103.356 131.123 103.146 131.715 103.356 132.238C103.53 132.621 103.913 132.865 104.331 132.83C104.471 132.83 104.575 132.795 104.715 132.726C106.004 132.133 107.433 131.785 108.862 131.715C108.966 131.75 109.14 131.75 109.315 131.75Z" fill="#1B1B1A"/>
<path d="M102.973 143.215C110.884 142.657 124.614 156.98 120.92 173.847C117.4 189.912 98.2336 187.821 92.4486 177.367C87.4304 168.306 86.9425 144.33 102.973 143.215Z" fill="#FFF7E2"/>
<path d="M107.015 186.393C100.777 186.393 94.6439 183.012 91.7514 177.785C88.0574 171.094 87.012 157.991 91.4378 149.871C93.9121 145.306 97.8849 142.727 102.938 142.378C106.632 142.135 111.337 144.748 115.205 149.244C121.164 156.144 123.603 165.414 121.721 173.986C120.223 180.817 115.762 185.243 109.42 186.184C108.653 186.358 107.852 186.393 107.015 186.393ZM103.043 144.051C98.5122 144.365 95.0969 146.595 92.8666 150.673C88.4756 158.723 90.1135 171.442 93.1803 177.018C96.1424 182.35 102.868 185.556 109.211 184.615C112.521 184.127 118.306 182.071 120.153 173.708C121.931 165.623 119.631 156.91 113.985 150.359C110.465 146.316 106.179 143.842 103.043 144.051Z" fill="#1B1B1A"/>
<path d="M99.4888 165.17C100.604 169.561 104.368 172.383 107.853 171.477C111.372 170.606 113.289 166.32 112.174 161.929C111.059 157.538 107.295 154.715 103.81 155.586C100.325 156.492 98.3737 160.779 99.4888 165.17Z" fill="#1B1B1A"/>
<path d="M106.563 172.453C105.378 172.453 104.158 172.105 103.043 171.443C100.952 170.188 99.3838 167.992 98.7217 165.344C97.502 160.535 99.6975 155.795 103.635 154.785C107.573 153.774 111.79 156.911 113.01 161.72C113.602 164.02 113.428 166.389 112.522 168.341C111.581 170.362 110.013 171.756 108.096 172.244C107.573 172.418 107.085 172.453 106.563 172.453ZM105.134 156.248C104.751 156.248 104.402 156.283 104.019 156.388C100.952 157.154 99.2793 161.023 100.29 164.961C100.847 167.156 102.137 169.038 103.879 170.049C105.099 170.78 106.423 170.989 107.678 170.676C109.141 170.292 110.326 169.247 111.023 167.679C111.755 166.041 111.895 164.089 111.407 162.138C110.536 158.688 107.852 156.248 105.134 156.248Z" fill="#1B1B1A"/>
<path d="M56.9372 197.823C59.516 204.096 66.8691 212.565 78.4041 213.854C89.9739 215.143 98.9998 208.557 102.903 202.981C106.806 197.44 109.489 192.84 104.541 190.923C99.5922 189.007 90.6361 191.063 81.0875 189.982C71.5389 188.902 63.2796 184.929 58.0175 185.696C52.7901 186.463 54.3932 191.551 56.9372 197.823Z" fill="#FFF7E2"/>
<path d="M81.3321 214.83C80.3563 214.83 79.3457 214.76 78.37 214.655C67.2183 213.401 59.203 205.455 56.206 198.137C54.3939 193.711 52.8954 189.529 54.3242 187.02C54.9863 185.87 56.2061 185.138 57.9137 184.894C60.9804 184.441 64.8485 185.487 69.344 186.672C72.8986 187.613 76.976 188.693 81.2275 189.181C85.4791 189.669 89.661 189.495 93.355 189.355C97.9899 189.181 101.997 189.041 104.89 190.157C106.528 190.784 107.538 191.76 107.922 193.014C108.758 195.802 106.388 199.531 103.635 203.469C99.4884 209.358 91.1595 214.83 81.3321 214.83ZM59.4819 186.428C59.0288 186.428 58.5758 186.463 58.1576 186.532C56.9379 186.707 56.1363 187.16 55.753 187.857C54.6727 189.738 56.1363 193.676 57.7045 197.545C59.7955 202.667 66.5213 211.728 78.5093 213.052C79.4851 213.157 80.4608 213.227 81.3669 213.227C91.8564 213.227 99.3141 206.71 102.241 202.528C104.646 199.113 106.946 195.558 106.319 193.502C106.075 192.735 105.413 192.143 104.263 191.69C101.684 190.679 97.8504 190.854 93.3898 190.993C89.6261 191.132 85.4094 191.272 81.0184 190.784C76.6623 190.296 72.5502 189.181 68.9259 188.24C65.2667 187.264 62.0258 186.428 59.4819 186.428Z" fill="#1B1B1A"/>
<path d="M78.4374 213.854C86.4526 214.76 93.283 211.833 97.9876 208.139C94.3285 203.434 88.4739 199.008 80.5283 197.928C72.2343 196.813 65.16 199.775 60.3508 203.573C64.1145 208.383 70.213 212.948 78.4374 213.854Z" fill="#FFF7E2"/>
<path d="M81.4 214.83C80.4243 214.83 79.4137 214.76 78.3682 214.655C68.4711 213.54 62.4423 207.546 59.724 204.061C59.4453 203.713 59.5149 203.19 59.8634 202.911C63.3483 200.158 70.7014 195.732 80.6682 197.091C90.2168 198.381 96.0366 204.235 98.6502 207.616C98.929 207.964 98.8594 208.487 98.5109 208.766C95.479 211.17 89.485 214.83 81.4 214.83ZM61.5013 203.713C64.2543 207.023 69.7953 212.076 78.5076 213.052C86.9758 213.993 93.388 210.508 96.8032 207.999C94.1199 204.793 88.788 199.879 80.3895 198.764C71.6424 197.544 65.021 201.134 61.5013 203.713Z" fill="#1B1B1A"/>
</svg>
